<?xml version="1.0" encoding="utf-8" standalone="no"?>
<!DOCTYPE svg PUBLIC "-//W3C//DTD SVG 1.1//EN"
  "http://www.w3.org/Graphics/SVG/1.1/DTD/svg11.dtd">
<svg xmlns:xlink="http://www.w3.org/1999/xlink" width="460.8pt" height="345.6pt" viewBox="0 0 460.8 345.6" xmlns="http://www.w3.org/2000/svg" version="1.1">
 <metadata>
  <rdf:RDF xmlns:dc="http://purl.org/dc/elements/1.1/" xmlns:cc="http://creativecommons.org/ns#" xmlns:rdf="http://www.w3.org/1999/02/22-rdf-syntax-ns#">
   <cc:Work>
    <dc:type rdf:resource="http://purl.org/dc/dcmitype/StillImage"/>
    <dc:date>2023-06-30T15:15:44.082376</dc:date>
    <dc:format>image/svg+xml</dc:format>
    <dc:creator>
     <cc:Agent>
      <dc:title>Matplotlib v3.7.1, https://matplotlib.org/</dc:title>
     </cc:Agent>
    </dc:creator>
   </cc:Work>
  </rdf:RDF>
 </metadata>
 <defs>
  <style type="text/css">*{stroke-linejoin: round; stroke-linecap: butt}</style>
 </defs>
 <g id="figure_1">
  <g id="patch_1">
   <path d="M 0 345.6 
L 460.8 345.6 
L 460.8 0 
L 0 0 
z
" style="fill: #ffffff"/>
  </g>
  <g id="axes_1">
   <g id="patch_2">
    <path d="M 57.6 307.584 
L 414.72 307.584 
L 414.72 41.472 
L 57.6 41.472 
z
" style="fill: #ffffff"/>
   </g>
   <g id="matplotlib.axis_1">
    <g id="xtick_1">
     <g id="line2d_1">
      <path d="M 73.832727 307.584 
L 73.832727 41.472 
" clip-path="url(#pd9df0ef719)" style="fill: none; stroke: #b0b0b0; stroke-width: 0.8; stroke-linecap: square"/>
     </g>
     <g id="line2d_2">
      <defs>
       <path id="mda511772bc" d="M 0 0 
L 0 3.5 
" style="stroke: #000000; stroke-width: 0.8"/>
      </defs>
      <g>
       <use xlink:href="#mda511772bc" x="73.832727" y="307.584" style="stroke: #000000; stroke-width: 0.8"/>
      </g>
     </g>
     <g id="text_1">
      <!-- 0 -->
      <g transform="translate(70.651477 322.182437) scale(0.1 -0.1)">
       <defs>
        <path id="DejaVuSans-30" d="M 2034 4250 
Q 1547 4250 1301 3770 
Q 1056 3291 1056 2328 
Q 1056 1369 1301 889 
Q 1547 409 2034 409 
Q 2525 409 2770 889 
Q 3016 1369 3016 2328 
Q 3016 3291 2770 3770 
Q 2525 4250 2034 4250 
z
M 2034 4750 
Q 2819 4750 3233 4129 
Q 3647 3509 3647 2328 
Q 3647 1150 3233 529 
Q 2819 -91 2034 -91 
Q 1250 -91 836 529 
Q 422 1150 422 2328 
Q 422 3509 836 4129 
Q 1250 4750 2034 4750 
z
" transform="scale(0.015625)"/>
       </defs>
       <use xlink:href="#DejaVuSans-30"/>
      </g>
     </g>
    </g>
    <g id="xtick_2">
     <g id="line2d_3">
      <path d="M 117.410519 307.584 
L 117.410519 41.472 
" clip-path="url(#pd9df0ef719)" style="fill: none; stroke: #b0b0b0; stroke-width: 0.8; stroke-linecap: square"/>
     </g>
     <g id="line2d_4">
      <g>
       <use xlink:href="#mda511772bc" x="117.410519" y="307.584" style="stroke: #000000; stroke-width: 0.8"/>
      </g>
     </g>
     <g id="text_2">
      <!-- 20 -->
      <g transform="translate(111.048019 322.182437) scale(0.1 -0.1)">
       <defs>
        <path id="DejaVuSans-32" d="M 1228 531 
L 3431 531 
L 3431 0 
L 469 0 
L 469 531 
Q 828 903 1448 1529 
Q 2069 2156 2228 2338 
Q 2531 2678 2651 2914 
Q 2772 3150 2772 3378 
Q 2772 3750 2511 3984 
Q 2250 4219 1831 4219 
Q 1534 4219 1204 4116 
Q 875 4013 500 3803 
L 500 4441 
Q 881 4594 1212 4672 
Q 1544 4750 1819 4750 
Q 2544 4750 2975 4387 
Q 3406 4025 3406 3419 
Q 3406 3131 3298 2873 
Q 3191 2616 2906 2266 
Q 2828 2175 2409 1742 
Q 1991 1309 1228 531 
z
" transform="scale(0.015625)"/>
       </defs>
       <use xlink:href="#DejaVuSans-32"/>
       <use xlink:href="#DejaVuSans-30" x="63.623047"/>
      </g>
     </g>
    </g>
    <g id="xtick_3">
     <g id="line2d_5">
      <path d="M 160.98831 307.584 
L 160.98831 41.472 
" clip-path="url(#pd9df0ef719)" style="fill: none; stroke: #b0b0b0; stroke-width: 0.8; stroke-linecap: square"/>
     </g>
     <g id="line2d_6">
      <g>
       <use xlink:href="#mda511772bc" x="160.98831" y="307.584" style="stroke: #000000; stroke-width: 0.8"/>
      </g>
     </g>
     <g id="text_3">
      <!-- 40 -->
      <g transform="translate(154.62581 322.182437) scale(0.1 -0.1)">
       <defs>
        <path id="DejaVuSans-34" d="M 2419 4116 
L 825 1625 
L 2419 1625 
L 2419 4116 
z
M 2253 4666 
L 3047 4666 
L 3047 1625 
L 3713 1625 
L 3713 1100 
L 3047 1100 
L 3047 0 
L 2419 0 
L 2419 1100 
L 313 1100 
L 313 1709 
L 2253 4666 
z
" transform="scale(0.015625)"/>
       </defs>
       <use xlink:href="#DejaVuSans-34"/>
       <use xlink:href="#DejaVuSans-30" x="63.623047"/>
      </g>
     </g>
    </g>
    <g id="xtick_4">
     <g id="line2d_7">
      <path d="M 204.566101 307.584 
L 204.566101 41.472 
" clip-path="url(#pd9df0ef719)" style="fill: none; stroke: #b0b0b0; stroke-width: 0.8; stroke-linecap: square"/>
     </g>
     <g id="line2d_8">
      <g>
       <use xlink:href="#mda511772bc" x="204.566101" y="307.584" style="stroke: #000000; stroke-width: 0.8"/>
      </g>
     </g>
     <g id="text_4">
      <!-- 60 -->
      <g transform="translate(198.203601 322.182437) scale(0.1 -0.1)">
       <defs>
        <path id="DejaVuSans-36" d="M 2113 2584 
Q 1688 2584 1439 2293 
Q 1191 2003 1191 1497 
Q 1191 994 1439 701 
Q 1688 409 2113 409 
Q 2538 409 2786 701 
Q 3034 994 3034 1497 
Q 3034 2003 2786 2293 
Q 2538 2584 2113 2584 
z
M 3366 4563 
L 3366 3988 
Q 3128 4100 2886 4159 
Q 2644 4219 2406 4219 
Q 1781 4219 1451 3797 
Q 1122 3375 1075 2522 
Q 1259 2794 1537 2939 
Q 1816 3084 2150 3084 
Q 2853 3084 3261 2657 
Q 3669 2231 3669 1497 
Q 3669 778 3244 343 
Q 2819 -91 2113 -91 
Q 1303 -91 875 529 
Q 447 1150 447 2328 
Q 447 3434 972 4092 
Q 1497 4750 2381 4750 
Q 2619 4750 2861 4703 
Q 3103 4656 3366 4563 
z
" transform="scale(0.015625)"/>
       </defs>
       <use xlink:href="#DejaVuSans-36"/>
       <use xlink:href="#DejaVuSans-30" x="63.623047"/>
      </g>
     </g>
    </g>
    <g id="xtick_5">
     <g id="line2d_9">
      <path d="M 248.143893 307.584 
L 248.143893 41.472 
" clip-path="url(#pd9df0ef719)" style="fill: none; stroke: #b0b0b0; stroke-width: 0.8; stroke-linecap: square"/>
     </g>
     <g id="line2d_10">
      <g>
       <use xlink:href="#mda511772bc" x="248.143893" y="307.584" style="stroke: #000000; stroke-width: 0.8"/>
      </g>
     </g>
     <g id="text_5">
      <!-- 80 -->
      <g transform="translate(241.781393 322.182437) scale(0.1 -0.1)">
       <defs>
        <path id="DejaVuSans-38" d="M 2034 2216 
Q 1584 2216 1326 1975 
Q 1069 1734 1069 1313 
Q 1069 891 1326 650 
Q 1584 409 2034 409 
Q 2484 409 2743 651 
Q 3003 894 3003 1313 
Q 3003 1734 2745 1975 
Q 2488 2216 2034 2216 
z
M 1403 2484 
Q 997 2584 770 2862 
Q 544 3141 544 3541 
Q 544 4100 942 4425 
Q 1341 4750 2034 4750 
Q 2731 4750 3128 4425 
Q 3525 4100 3525 3541 
Q 3525 3141 3298 2862 
Q 3072 2584 2669 2484 
Q 3125 2378 3379 2068 
Q 3634 1759 3634 1313 
Q 3634 634 3220 271 
Q 2806 -91 2034 -91 
Q 1263 -91 848 271 
Q 434 634 434 1313 
Q 434 1759 690 2068 
Q 947 2378 1403 2484 
z
M 1172 3481 
Q 1172 3119 1398 2916 
Q 1625 2713 2034 2713 
Q 2441 2713 2670 2916 
Q 2900 3119 2900 3481 
Q 2900 3844 2670 4047 
Q 2441 4250 2034 4250 
Q 1625 4250 1398 4047 
Q 1172 3844 1172 3481 
z
" transform="scale(0.015625)"/>
       </defs>
       <use xlink:href="#DejaVuSans-38"/>
       <use xlink:href="#DejaVuSans-30" x="63.623047"/>
      </g>
     </g>
    </g>
    <g id="xtick_6">
     <g id="line2d_11">
      <path d="M 291.721684 307.584 
L 291.721684 41.472 
" clip-path="url(#pd9df0ef719)" style="fill: none; stroke: #b0b0b0; stroke-width: 0.8; stroke-linecap: square"/>
     </g>
     <g id="line2d_12">
      <g>
       <use xlink:href="#mda511772bc" x="291.721684" y="307.584" style="stroke: #000000; stroke-width: 0.8"/>
      </g>
     </g>
     <g id="text_6">
      <!-- 100 -->
      <g transform="translate(282.177934 322.182437) scale(0.1 -0.1)">
       <defs>
        <path id="DejaVuSans-31" d="M 794 531 
L 1825 531 
L 1825 4091 
L 703 3866 
L 703 4441 
L 1819 4666 
L 2450 4666 
L 2450 531 
L 3481 531 
L 3481 0 
L 794 0 
L 794 531 
z
" transform="scale(0.015625)"/>
       </defs>
       <use xlink:href="#DejaVuSans-31"/>
       <use xlink:href="#DejaVuSans-30" x="63.623047"/>
       <use xlink:href="#DejaVuSans-30" x="127.246094"/>
      </g>
     </g>
    </g>
    <g id="xtick_7">
     <g id="line2d_13">
      <path d="M 335.299475 307.584 
L 335.299475 41.472 
" clip-path="url(#pd9df0ef719)" style="fill: none; stroke: #b0b0b0; stroke-width: 0.8; stroke-linecap: square"/>
     </g>
     <g id="line2d_14">
      <g>
       <use xlink:href="#mda511772bc" x="335.299475" y="307.584" style="stroke: #000000; stroke-width: 0.8"/>
      </g>
     </g>
     <g id="text_7">
      <!-- 120 -->
      <g transform="translate(325.755725 322.182437) scale(0.1 -0.1)">
       <use xlink:href="#DejaVuSans-31"/>
       <use xlink:href="#DejaVuSans-32" x="63.623047"/>
       <use xlink:href="#DejaVuSans-30" x="127.246094"/>
      </g>
     </g>
    </g>
    <g id="xtick_8">
     <g id="line2d_15">
      <path d="M 378.877267 307.584 
L 378.877267 41.472 
" clip-path="url(#pd9df0ef719)" style="fill: none; stroke: #b0b0b0; stroke-width: 0.8; stroke-linecap: square"/>
     </g>
     <g id="line2d_16">
      <g>
       <use xlink:href="#mda511772bc" x="378.877267" y="307.584" style="stroke: #000000; stroke-width: 0.8"/>
      </g>
     </g>
     <g id="text_8">
      <!-- 140 -->
      <g transform="translate(369.333517 322.182437) scale(0.1 -0.1)">
       <use xlink:href="#DejaVuSans-31"/>
       <use xlink:href="#DejaVuSans-34" x="63.623047"/>
       <use xlink:href="#DejaVuSans-30" x="127.246094"/>
      </g>
     </g>
    </g>
   </g>
   <g id="matplotlib.axis_2">
    <g id="ytick_1">
     <g id="line2d_17">
      <path d="M 57.6 302.560023 
L 414.72 302.560023 
" clip-path="url(#pd9df0ef719)" style="fill: none; stroke: #b0b0b0; stroke-width: 0.8; stroke-linecap: square"/>
     </g>
     <g id="line2d_18">
      <defs>
       <path id="m925633c8d3" d="M 0 0 
L -3.5 0 
" style="stroke: #000000; stroke-width: 0.8"/>
      </defs>
      <g>
       <use xlink:href="#m925633c8d3" x="57.6" y="302.560023" style="stroke: #000000; stroke-width: 0.8"/>
      </g>
     </g>
     <g id="text_9">
      <!-- −10 -->
      <g transform="translate(29.495313 306.359242) scale(0.1 -0.1)">
       <defs>
        <path id="DejaVuSans-2212" d="M 678 2272 
L 4684 2272 
L 4684 1741 
L 678 1741 
L 678 2272 
z
" transform="scale(0.015625)"/>
       </defs>
       <use xlink:href="#DejaVuSans-2212"/>
       <use xlink:href="#DejaVuSans-31" x="83.789062"/>
       <use xlink:href="#DejaVuSans-30" x="147.412109"/>
      </g>
     </g>
    </g>
    <g id="ytick_2">
     <g id="line2d_19">
      <path d="M 57.6 252.761619 
L 414.72 252.761619 
" clip-path="url(#pd9df0ef719)" style="fill: none; stroke: #b0b0b0; stroke-width: 0.8; stroke-linecap: square"/>
     </g>
     <g id="line2d_20">
      <g>
       <use xlink:href="#m925633c8d3" x="57.6" y="252.761619" style="stroke: #000000; stroke-width: 0.8"/>
      </g>
     </g>
     <g id="text_10">
      <!-- 0 -->
      <g transform="translate(44.2375 256.560838) scale(0.1 -0.1)">
       <use xlink:href="#DejaVuSans-30"/>
      </g>
     </g>
    </g>
    <g id="ytick_3">
     <g id="line2d_21">
      <path d="M 57.6 202.963214 
L 414.72 202.963214 
" clip-path="url(#pd9df0ef719)" style="fill: none; stroke: #b0b0b0; stroke-width: 0.8; stroke-linecap: square"/>
     </g>
     <g id="line2d_22">
      <g>
       <use xlink:href="#m925633c8d3" x="57.6" y="202.963214" style="stroke: #000000; stroke-width: 0.8"/>
      </g>
     </g>
     <g id="text_11">
      <!-- 10 -->
      <g transform="translate(37.875 206.762433) scale(0.1 -0.1)">
       <use xlink:href="#DejaVuSans-31"/>
       <use xlink:href="#DejaVuSans-30" x="63.623047"/>
      </g>
     </g>
    </g>
    <g id="ytick_4">
     <g id="line2d_23">
      <path d="M 57.6 153.164809 
L 414.72 153.164809 
" clip-path="url(#pd9df0ef719)" style="fill: none; stroke: #b0b0b0; stroke-width: 0.8; stroke-linecap: square"/>
     </g>
     <g id="line2d_24">
      <g>
       <use xlink:href="#m925633c8d3" x="57.6" y="153.164809" style="stroke: #000000; stroke-width: 0.8"/>
      </g>
     </g>
     <g id="text_12">
      <!-- 20 -->
      <g transform="translate(37.875 156.964028) scale(0.1 -0.1)">
       <use xlink:href="#DejaVuSans-32"/>
       <use xlink:href="#DejaVuSans-30" x="63.623047"/>
      </g>
     </g>
    </g>
    <g id="ytick_5">
     <g id="line2d_25">
      <path d="M 57.6 103.366405 
L 414.72 103.366405 
" clip-path="url(#pd9df0ef719)" style="fill: none; stroke: #b0b0b0; stroke-width: 0.8; stroke-linecap: square"/>
     </g>
     <g id="line2d_26">
      <g>
       <use xlink:href="#m925633c8d3" x="57.6" y="103.366405" style="stroke: #000000; stroke-width: 0.8"/>
      </g>
     </g>
     <g id="text_13">
      <!-- 30 -->
      <g transform="translate(37.875 107.165623) scale(0.1 -0.1)">
       <defs>
        <path id="DejaVuSans-33" d="M 2597 2516 
Q 3050 2419 3304 2112 
Q 3559 1806 3559 1356 
Q 3559 666 3084 287 
Q 2609 -91 1734 -91 
Q 1441 -91 1130 -33 
Q 819 25 488 141 
L 488 750 
Q 750 597 1062 519 
Q 1375 441 1716 441 
Q 2309 441 2620 675 
Q 2931 909 2931 1356 
Q 2931 1769 2642 2001 
Q 2353 2234 1838 2234 
L 1294 2234 
L 1294 2753 
L 1863 2753 
Q 2328 2753 2575 2939 
Q 2822 3125 2822 3475 
Q 2822 3834 2567 4026 
Q 2313 4219 1838 4219 
Q 1578 4219 1281 4162 
Q 984 4106 628 3988 
L 628 4550 
Q 988 4650 1302 4700 
Q 1616 4750 1894 4750 
Q 2613 4750 3031 4423 
Q 3450 4097 3450 3541 
Q 3450 3153 3228 2886 
Q 3006 2619 2597 2516 
z
" transform="scale(0.015625)"/>
       </defs>
       <use xlink:href="#DejaVuSans-33"/>
       <use xlink:href="#DejaVuSans-30" x="63.623047"/>
      </g>
     </g>
    </g>
    <g id="ytick_6">
     <g id="line2d_27">
      <path d="M 57.6 53.568 
L 414.72 53.568 
" clip-path="url(#pd9df0ef719)" style="fill: none; stroke: #b0b0b0; stroke-width: 0.8; stroke-linecap: square"/>
     </g>
     <g id="line2d_28">
      <g>
       <use xlink:href="#m925633c8d3" x="57.6" y="53.568" style="stroke: #000000; stroke-width: 0.8"/>
      </g>
     </g>
     <g id="text_14">
      <!-- 40 -->
      <g transform="translate(37.875 57.367219) scale(0.1 -0.1)">
       <use xlink:href="#DejaVuSans-34"/>
       <use xlink:href="#DejaVuSans-30" x="63.623047"/>
      </g>
     </g>
    </g>
   </g>
   <g id="line2d_29">
    <path d="M 73.832727 290.150052 
L 76.011617 245.218631 
L 78.190506 288.72724 
L 80.369396 193.736672 
L 82.548286 212.668237 
L 84.727175 265.030452 
L 86.906065 253.254046 
L 89.084954 237.781941 
L 91.263844 251.683833 
L 93.442733 259.804536 
L 95.621623 258.110991 
L 97.800513 255.97688 
L 99.979402 254.505386 
L 102.158292 252.524243 
L 104.337181 259.804536 
L 106.516071 256.15181 
L 108.69496 224.409586 
L 110.87385 238.675924 
L 113.052739 248.888695 
L 115.231629 242.635943 
L 117.410519 258.111095 
L 119.589408 260.043518 
L 121.768298 242.207116 
L 123.947187 260.714486 
L 126.126077 255.240846 
L 128.304966 224.553297 
L 130.483856 228.049519 
L 132.662746 246.982383 
L 134.841635 236.431376 
L 137.020525 257.164326 
L 139.199414 255.130991 
L 141.378304 231.000126 
L 143.557193 257.399674 
L 145.736083 265.732918 
L 147.914973 232.427621 
L 150.093862 255.912912 
L 152.272752 208.336656 
L 154.451641 234.07536 
L 156.630531 288.39561 
L 158.80942 255.130991 
L 160.98831 260.043518 
L 163.1672 253.512726 
L 165.346089 247.457189 
L 167.524979 289.666618 
L 169.703868 243.861249 
L 171.882758 247.962789 
L 174.061647 258.487129 
L 176.240537 256.767222 
L 178.419426 224.582018 
L 180.598316 255.130991 
L 182.777206 290.189732 
L 184.956095 294.544852 
L 187.134985 253.210195 
L 189.313874 233.037397 
L 191.492764 221.675877 
L 193.671653 253.494758 
L 195.850543 238.596899 
L 198.029433 246.959208 
L 200.208322 234.588393 
L 202.387212 237.665043 
L 204.566101 251.684056 
L 206.744991 255.83469 
L 208.92388 291.498466 
L 211.10277 255.130473 
L 213.28166 249.045998 
L 215.460549 253.494758 
L 217.639439 234.176964 
L 219.818328 279.383588 
L 221.997218 223.19424 
L 224.176107 247.353317 
L 226.354997 290.189732 
L 228.533887 254.822671 
L 230.712776 230.382579 
L 232.891666 249.709895 
L 235.070555 223.022859 
L 237.249445 234.248882 
L 239.428334 253.494758 
L 241.607224 290.150052 
L 243.786113 219.120679 
L 245.965003 265.481867 
L 248.143893 265.203423 
L 250.322782 289.851152 
L 252.501672 254.822715 
L 254.680561 293.208679 
L 256.859451 291.595677 
L 259.03834 204.99388 
L 261.21723 232.0273 
L 263.39612 253.494758 
L 265.575009 295.016502 
L 267.753899 295.488 
L 269.932788 232.24193 
L 272.111678 260.043518 
L 274.290567 254.822714 
L 276.469457 210.427767 
L 278.648347 253.494758 
L 280.827236 286.261026 
L 283.006126 246.540876 
L 285.185015 254.736558 
L 287.363905 255.130384 
L 289.542794 261.302152 
L 291.721684 220.606325 
L 293.900574 251.020213 
L 296.079463 261.55371 
L 300.437242 258.168303 
L 302.616132 217.904563 
L 304.795021 231.419445 
L 306.973911 253.494758 
L 309.1528 292.624056 
L 311.33169 258.859688 
L 313.51058 228.882639 
L 315.689469 253.494758 
L 317.868359 216.535522 
L 320.047248 213.128073 
L 322.226138 257.320847 
L 324.405027 265.203423 
L 326.583917 256.58377 
L 328.762807 290.150052 
L 330.941696 264.396745 
L 333.120586 257.587395 
L 335.299475 257.480163 
L 337.478365 234.698216 
L 339.657254 218.201563 
L 341.836144 256.037707 
L 344.015034 244.171789 
L 346.193923 259.804536 
L 348.372813 244.43125 
L 350.551702 264.051104 
L 352.730592 217.088618 
L 354.909481 256.332674 
L 357.088371 254.846426 
L 359.267261 241.916792 
L 361.44615 266.602879 
L 363.62504 253.494758 
L 365.803929 290.088782 
L 367.982819 231.212343 
L 370.161708 283.551938 
L 372.340598 230.074629 
L 374.519487 229.316521 
L 376.698377 258.452865 
L 378.877267 230.779914 
L 381.056156 256.767222 
L 383.235046 231.212343 
L 385.413935 225.017117 
L 387.592825 253.494758 
L 389.771714 254.821191 
L 391.950604 232.027285 
L 394.129494 231.917429 
L 396.308383 253.494758 
L 398.487273 253.210195 
L 398.487273 253.210195 
" clip-path="url(#pd9df0ef719)" style="fill: none; stroke: #008000; stroke-width: 1.5; stroke-linecap: square"/>
   </g>
   <g id="line2d_30">
    <path d="M 73.832727 207.943055 
L 76.011617 53.568 
L 78.190506 188.023693 
L 80.369396 53.568 
L 82.548286 53.568 
L 84.727175 118.305926 
L 86.906065 193.003533 
L 89.084954 53.568 
L 91.263844 193.003533 
L 93.442733 138.225288 
L 95.621623 158.14465 
L 97.800513 188.023693 
L 99.979402 197.983374 
L 102.158292 98.386564 
L 104.337181 138.225288 
L 106.516071 163.12449 
L 108.69496 53.568 
L 110.87385 53.568 
L 113.052739 178.064012 
L 115.231629 53.568 
L 117.410519 178.064012 
L 119.589408 138.225288 
L 121.768298 53.568 
L 123.947187 138.225288 
L 126.126077 193.003533 
L 128.304966 53.568 
L 134.841635 53.568 
L 137.020525 173.084171 
L 139.199414 197.983374 
L 141.378304 53.568 
L 143.557193 163.12449 
L 145.736083 153.164809 
L 147.914973 53.568 
L 150.093862 163.12449 
L 152.272752 53.568 
L 154.451641 53.568 
L 156.630531 207.943055 
L 158.80942 197.983374 
L 160.98831 138.225288 
L 163.1672 153.164809 
L 165.346089 193.003533 
L 167.524979 143.205128 
L 169.703868 53.568 
L 171.882758 53.568 
L 174.061647 183.043852 
L 176.240537 193.003533 
L 178.419426 53.568 
L 180.598316 197.983374 
L 182.777206 207.943055 
L 184.956095 227.862416 
L 187.134985 193.003533 
L 189.313874 53.568 
L 191.492764 53.568 
L 193.671653 202.963214 
L 195.850543 53.568 
L 198.029433 193.003533 
L 200.208322 53.568 
L 202.387212 53.568 
L 204.566101 68.507521 
L 206.744991 197.983374 
L 208.92388 207.943055 
L 211.10277 197.983374 
L 213.28166 197.983374 
L 215.460549 202.963214 
L 217.639439 53.568 
L 219.818328 153.164809 
L 221.997218 53.568 
L 224.176107 197.983374 
L 226.354997 207.943055 
L 228.533887 202.963214 
L 230.712776 53.568 
L 232.891666 197.983374 
L 235.070555 53.568 
L 237.249445 53.568 
L 239.428334 202.963214 
L 241.607224 207.943055 
L 243.786113 78.467202 
L 245.965003 138.225288 
L 248.143893 118.305926 
L 250.322782 153.164809 
L 252.501672 202.963214 
L 254.680561 222.882576 
L 256.859451 227.862416 
L 259.03834 53.568 
L 261.21723 53.568 
L 263.39612 202.963214 
L 265.575009 227.862416 
L 267.753899 227.862416 
L 269.932788 53.568 
L 272.111678 138.225288 
L 274.290567 202.963214 
L 276.469457 53.568 
L 278.648347 202.963214 
L 280.827236 73.487362 
L 283.006126 53.568 
L 285.185015 193.003533 
L 287.363905 197.983374 
L 289.542794 118.305926 
L 291.721684 53.568 
L 293.900574 188.023693 
L 296.079463 128.265607 
L 298.258353 138.225288 
L 300.437242 143.205128 
L 302.616132 53.568 
L 304.795021 53.568 
L 306.973911 202.963214 
L 309.1528 222.882576 
L 313.51058 53.568 
L 315.689469 202.963214 
L 317.868359 53.568 
L 320.047248 53.568 
L 322.226138 163.12449 
L 324.405027 118.305926 
L 326.583917 173.084171 
L 328.762807 207.943055 
L 330.941696 148.184969 
L 333.120586 202.963214 
L 335.299475 163.12449 
L 337.478365 53.568 
L 339.657254 53.568 
L 341.836144 202.963214 
L 344.015034 88.426883 
L 346.193923 138.225288 
L 348.372813 193.003533 
L 350.551702 148.184969 
L 352.730592 53.568 
L 354.909481 197.983374 
L 357.088371 188.023693 
L 359.267261 53.568 
L 361.44615 153.164809 
L 363.62504 202.963214 
L 365.803929 207.943055 
L 367.982819 53.568 
L 370.161708 217.902735 
L 372.340598 53.568 
L 374.519487 53.568 
L 376.698377 153.164809 
L 378.877267 53.568 
L 381.056156 193.003533 
L 383.235046 53.568 
L 385.413935 53.568 
L 387.592825 202.963214 
L 389.771714 202.963214 
L 391.950604 53.568 
L 394.129494 53.568 
L 396.308383 202.963214 
L 398.487273 193.003533 
L 398.487273 193.003533 
" clip-path="url(#pd9df0ef719)" style="fill: none; stroke: #0000ff; stroke-width: 1.5; stroke-linecap: square"/>
   </g>
   <g id="patch_3">
    <path d="M 57.6 307.584 
L 57.6 41.472 
" style="fill: none; stroke: #000000; stroke-width: 0.8; stroke-linejoin: miter; stroke-linecap: square"/>
   </g>
   <g id="patch_4">
    <path d="M 414.72 307.584 
L 414.72 41.472 
" style="fill: none; stroke: #000000; stroke-width: 0.8; stroke-linejoin: miter; stroke-linecap: square"/>
   </g>
   <g id="patch_5">
    <path d="M 57.6 307.584 
L 414.72 307.584 
" style="fill: none; stroke: #000000; stroke-width: 0.8; stroke-linejoin: miter; stroke-linecap: square"/>
   </g>
   <g id="patch_6">
    <path d="M 57.6 41.472 
L 414.72 41.472 
" style="fill: none; stroke: #000000; stroke-width: 0.8; stroke-linejoin: miter; stroke-linecap: square"/>
   </g>
   <g id="legend_1">
    <g id="patch_7">
     <path d="M 204.2225 190.706125 
L 268.0975 190.706125 
Q 270.0975 190.706125 270.0975 188.706125 
L 270.0975 160.349875 
Q 270.0975 158.349875 268.0975 158.349875 
L 204.2225 158.349875 
Q 202.2225 158.349875 202.2225 160.349875 
L 202.2225 188.706125 
Q 202.2225 190.706125 204.2225 190.706125 
z
" style="fill: #ffffff; opacity: 0.8; stroke: #cccccc; stroke-linejoin: miter"/>
    </g>
    <g id="line2d_31">
     <path d="M 206.2225 166.448312 
L 216.2225 166.448312 
L 226.2225 166.448312 
" style="fill: none; stroke: #008000; stroke-width: 1.5; stroke-linecap: square"/>
    </g>
    <g id="text_15">
     <!-- score -->
     <g transform="translate(234.2225 169.948312) scale(0.1 -0.1)">
      <defs>
       <path id="DejaVuSans-73" d="M 2834 3397 
L 2834 2853 
Q 2591 2978 2328 3040 
Q 2066 3103 1784 3103 
Q 1356 3103 1142 2972 
Q 928 2841 928 2578 
Q 928 2378 1081 2264 
Q 1234 2150 1697 2047 
L 1894 2003 
Q 2506 1872 2764 1633 
Q 3022 1394 3022 966 
Q 3022 478 2636 193 
Q 2250 -91 1575 -91 
Q 1294 -91 989 -36 
Q 684 19 347 128 
L 347 722 
Q 666 556 975 473 
Q 1284 391 1588 391 
Q 1994 391 2212 530 
Q 2431 669 2431 922 
Q 2431 1156 2273 1281 
Q 2116 1406 1581 1522 
L 1381 1569 
Q 847 1681 609 1914 
Q 372 2147 372 2553 
Q 372 3047 722 3315 
Q 1072 3584 1716 3584 
Q 2034 3584 2315 3537 
Q 2597 3491 2834 3397 
z
" transform="scale(0.015625)"/>
       <path id="DejaVuSans-63" d="M 3122 3366 
L 3122 2828 
Q 2878 2963 2633 3030 
Q 2388 3097 2138 3097 
Q 1578 3097 1268 2742 
Q 959 2388 959 1747 
Q 959 1106 1268 751 
Q 1578 397 2138 397 
Q 2388 397 2633 464 
Q 2878 531 3122 666 
L 3122 134 
Q 2881 22 2623 -34 
Q 2366 -91 2075 -91 
Q 1284 -91 818 406 
Q 353 903 353 1747 
Q 353 2603 823 3093 
Q 1294 3584 2113 3584 
Q 2378 3584 2631 3529 
Q 2884 3475 3122 3366 
z
" transform="scale(0.015625)"/>
       <path id="DejaVuSans-6f" d="M 1959 3097 
Q 1497 3097 1228 2736 
Q 959 2375 959 1747 
Q 959 1119 1226 758 
Q 1494 397 1959 397 
Q 2419 397 2687 759 
Q 2956 1122 2956 1747 
Q 2956 2369 2687 2733 
Q 2419 3097 1959 3097 
z
M 1959 3584 
Q 2709 3584 3137 3096 
Q 3566 2609 3566 1747 
Q 3566 888 3137 398 
Q 2709 -91 1959 -91 
Q 1206 -91 779 398 
Q 353 888 353 1747 
Q 353 2609 779 3096 
Q 1206 3584 1959 3584 
z
" transform="scale(0.015625)"/>
       <path id="DejaVuSans-72" d="M 2631 2963 
Q 2534 3019 2420 3045 
Q 2306 3072 2169 3072 
Q 1681 3072 1420 2755 
Q 1159 2438 1159 1844 
L 1159 0 
L 581 0 
L 581 3500 
L 1159 3500 
L 1159 2956 
Q 1341 3275 1631 3429 
Q 1922 3584 2338 3584 
Q 2397 3584 2469 3576 
Q 2541 3569 2628 3553 
L 2631 2963 
z
" transform="scale(0.015625)"/>
       <path id="DejaVuSans-65" d="M 3597 1894 
L 3597 1613 
L 953 1613 
Q 991 1019 1311 708 
Q 1631 397 2203 397 
Q 2534 397 2845 478 
Q 3156 559 3463 722 
L 3463 178 
Q 3153 47 2828 -22 
Q 2503 -91 2169 -91 
Q 1331 -91 842 396 
Q 353 884 353 1716 
Q 353 2575 817 3079 
Q 1281 3584 2069 3584 
Q 2775 3584 3186 3129 
Q 3597 2675 3597 1894 
z
M 3022 2063 
Q 3016 2534 2758 2815 
Q 2500 3097 2075 3097 
Q 1594 3097 1305 2825 
Q 1016 2553 972 2059 
L 3022 2063 
z
" transform="scale(0.015625)"/>
      </defs>
      <use xlink:href="#DejaVuSans-73"/>
      <use xlink:href="#DejaVuSans-63" x="52.099609"/>
      <use xlink:href="#DejaVuSans-6f" x="107.080078"/>
      <use xlink:href="#DejaVuSans-72" x="168.261719"/>
      <use xlink:href="#DejaVuSans-65" x="207.125"/>
     </g>
    </g>
    <g id="line2d_32">
     <path d="M 206.2225 181.126437 
L 216.2225 181.126437 
L 226.2225 181.126437 
" style="fill: none; stroke: #0000ff; stroke-width: 1.5; stroke-linecap: square"/>
    </g>
    <g id="text_16">
     <!-- length -->
     <g transform="translate(234.2225 184.626437) scale(0.1 -0.1)">
      <defs>
       <path id="DejaVuSans-6c" d="M 603 4863 
L 1178 4863 
L 1178 0 
L 603 0 
L 603 4863 
z
" transform="scale(0.015625)"/>
       <path id="DejaVuSans-6e" d="M 3513 2113 
L 3513 0 
L 2938 0 
L 2938 2094 
Q 2938 2591 2744 2837 
Q 2550 3084 2163 3084 
Q 1697 3084 1428 2787 
Q 1159 2491 1159 1978 
L 1159 0 
L 581 0 
L 581 3500 
L 1159 3500 
L 1159 2956 
Q 1366 3272 1645 3428 
Q 1925 3584 2291 3584 
Q 2894 3584 3203 3211 
Q 3513 2838 3513 2113 
z
" transform="scale(0.015625)"/>
       <path id="DejaVuSans-67" d="M 2906 1791 
Q 2906 2416 2648 2759 
Q 2391 3103 1925 3103 
Q 1463 3103 1205 2759 
Q 947 2416 947 1791 
Q 947 1169 1205 825 
Q 1463 481 1925 481 
Q 2391 481 2648 825 
Q 2906 1169 2906 1791 
z
M 3481 434 
Q 3481 -459 3084 -895 
Q 2688 -1331 1869 -1331 
Q 1566 -1331 1297 -1286 
Q 1028 -1241 775 -1147 
L 775 -588 
Q 1028 -725 1275 -790 
Q 1522 -856 1778 -856 
Q 2344 -856 2625 -561 
Q 2906 -266 2906 331 
L 2906 616 
Q 2728 306 2450 153 
Q 2172 0 1784 0 
Q 1141 0 747 490 
Q 353 981 353 1791 
Q 353 2603 747 3093 
Q 1141 3584 1784 3584 
Q 2172 3584 2450 3431 
Q 2728 3278 2906 2969 
L 2906 3500 
L 3481 3500 
L 3481 434 
z
" transform="scale(0.015625)"/>
       <path id="DejaVuSans-74" d="M 1172 4494 
L 1172 3500 
L 2356 3500 
L 2356 3053 
L 1172 3053 
L 1172 1153 
Q 1172 725 1289 603 
Q 1406 481 1766 481 
L 2356 481 
L 2356 0 
L 1766 0 
Q 1100 0 847 248 
Q 594 497 594 1153 
L 594 3053 
L 172 3053 
L 172 3500 
L 594 3500 
L 594 4494 
L 1172 4494 
z
" transform="scale(0.015625)"/>
       <path id="DejaVuSans-68" d="M 3513 2113 
L 3513 0 
L 2938 0 
L 2938 2094 
Q 2938 2591 2744 2837 
Q 2550 3084 2163 3084 
Q 1697 3084 1428 2787 
Q 1159 2491 1159 1978 
L 1159 0 
L 581 0 
L 581 4863 
L 1159 4863 
L 1159 2956 
Q 1366 3272 1645 3428 
Q 1925 3584 2291 3584 
Q 2894 3584 3203 3211 
Q 3513 2838 3513 2113 
z
" transform="scale(0.015625)"/>
      </defs>
      <use xlink:href="#DejaVuSans-6c"/>
      <use xlink:href="#DejaVuSans-65" x="27.783203"/>
      <use xlink:href="#DejaVuSans-6e" x="89.306641"/>
      <use xlink:href="#DejaVuSans-67" x="152.685547"/>
      <use xlink:href="#DejaVuSans-74" x="216.162109"/>
      <use xlink:href="#DejaVuSans-68" x="255.371094"/>
     </g>
    </g>
   </g>
  </g>
 </g>
 <defs>
  <clipPath id="pd9df0ef719">
   <rect x="57.6" y="41.472" width="357.12" height="266.112"/>
  </clipPath>
 </defs>
</svg>
