<?xml version="1.0" encoding="UTF-8" standalone="no"?>
<!DOCTYPE svg PUBLIC "-//W3C//DTD SVG 1.1//EN"
 "http://www.w3.org/Graphics/SVG/1.1/DTD/svg11.dtd">
<!-- Generated by graphviz version 2.43.0 (0)
 -->
<!-- Title: %3 Pages: 1 -->
<svg width="194pt" height="109pt"
 viewBox="0.00 0.00 193.53 109.05" xmlns="http://www.w3.org/2000/svg" xmlns:xlink="http://www.w3.org/1999/xlink">
<g id="graph0" class="graph" transform="scale(1 1) rotate(0) translate(4 105.05)">
<title>%3</title>
<polygon fill="white" stroke="transparent" points="-4,4 -4,-105.05 189.53,-105.05 189.53,4 -4,4"/>
<!-- &#45;1 -->
<g id="node1" class="node">
<title>&#45;1</title>
<polygon fill="lightgray" stroke="black" points="80.26,-93.79 54.26,-93.79 54.26,-75.79 80.26,-75.79 80.26,-93.79"/>
<text text-anchor="middle" x="67.26" y="-82.59" font-family="Times,serif" font-size="9.00">&#45;1</text>
</g>
<!-- 0 -->
<g id="node4" class="node">
<title>0</title>
<ellipse fill="lightblue" stroke="black" cx="118.26" cy="-16.26" rx="16.03" ry="16.03"/>
<text text-anchor="middle" x="118.26" y="-14.06" font-family="Times,serif" font-size="9.00">0</text>
</g>
<!-- &#45;1&#45;&gt;0 -->
<g id="edge3" class="edge">
<title>&#45;1&#45;&gt;0</title>
<path fill="none" stroke="red" stroke-width="0.2" d="M73.52,-75.63C80.69,-66.27 92.73,-50.57 102.51,-37.81"/>
<polygon fill="red" stroke="red" stroke-width="0.2" points="105.53,-39.63 108.83,-29.56 99.97,-35.37 105.53,-39.63"/>
</g>
<!-- 1 -->
<g id="node5" class="node">
<title>1</title>
<ellipse fill="lightblue" stroke="black" cx="16.26" cy="-16.26" rx="16.03" ry="16.03"/>
<text text-anchor="middle" x="16.26" y="-14.06" font-family="Times,serif" font-size="9.00">1</text>
</g>
<!-- &#45;1&#45;&gt;1 -->
<g id="edge6" class="edge">
<title>&#45;1&#45;&gt;1</title>
<path fill="none" stroke="red" stroke-width="0.16" d="M61.01,-75.63C53.83,-66.27 41.8,-50.57 32.02,-37.81"/>
<polygon fill="red" stroke="red" stroke-width="0.16" points="34.55,-35.37 25.69,-29.56 29,-39.63 34.55,-35.37"/>
</g>
<!-- 3 -->
<g id="node7" class="node">
<title>3</title>
<ellipse fill="lightblue" stroke="black" cx="67.26" cy="-16.26" rx="16.03" ry="16.03"/>
<text text-anchor="middle" x="67.26" y="-14.06" font-family="Times,serif" font-size="9.00">3</text>
</g>
<!-- &#45;1&#45;&gt;3 -->
<g id="edge4" class="edge">
<title>&#45;1&#45;&gt;3</title>
<path fill="none" stroke="green" stroke-width="0.48" d="M67.26,-75.63C67.26,-67.45 67.26,-54.42 67.26,-42.75"/>
<polygon fill="green" stroke="green" stroke-width="0.48" points="70.76,-42.59 67.26,-32.59 63.76,-42.59 70.76,-42.59"/>
</g>
<!-- &#45;2 -->
<g id="node2" class="node">
<title>&#45;2</title>
<polygon fill="lightgray" stroke="black" points="29.26,-93.79 3.26,-93.79 3.26,-75.79 29.26,-75.79 29.26,-93.79"/>
<text text-anchor="middle" x="16.26" y="-82.59" font-family="Times,serif" font-size="9.00">&#45;2</text>
</g>
<!-- &#45;2&#45;&gt;1 -->
<g id="edge2" class="edge">
<title>&#45;2&#45;&gt;1</title>
<path fill="none" stroke="green" stroke-width="0.29" d="M16.26,-75.63C16.26,-67.45 16.26,-54.42 16.26,-42.75"/>
<polygon fill="green" stroke="green" stroke-width="0.29" points="19.76,-42.59 16.26,-32.59 12.76,-42.59 19.76,-42.59"/>
</g>
<!-- &#45;3 -->
<g id="node3" class="node">
<title>&#45;3</title>
<polygon fill="lightgray" stroke="black" points="127.26,-93.79 101.26,-93.79 101.26,-75.79 127.26,-75.79 127.26,-93.79"/>
<text text-anchor="middle" x="114.26" y="-82.59" font-family="Times,serif" font-size="9.00">&#45;3</text>
</g>
<!-- &#45;3&#45;&gt;0 -->
<g id="edge5" class="edge">
<title>&#45;3&#45;&gt;0</title>
<path fill="none" stroke="green" stroke-width="0.17" d="M114.75,-75.63C115.25,-67.45 116.03,-54.42 116.73,-42.75"/>
<polygon fill="green" stroke="green" stroke-width="0.17" points="120.24,-42.78 117.34,-32.59 113.25,-42.36 120.24,-42.78"/>
</g>
<!-- &#45;3&#45;&gt;1 -->
<g id="edge8" class="edge">
<title>&#45;3&#45;&gt;1</title>
<path fill="none" stroke="red" stroke-width="0.22" d="M102.25,-75.63C86.2,-64.74 57.51,-45.26 37.71,-31.82"/>
<polygon fill="red" stroke="red" stroke-width="0.22" points="39.55,-28.84 29.32,-26.12 35.62,-34.64 39.55,-28.84"/>
</g>
<!-- &#45;3&#45;&gt;3 -->
<g id="edge1" class="edge">
<title>&#45;3&#45;&gt;3</title>
<path fill="none" stroke="red" stroke-width="0.17" d="M108.5,-75.63C101.97,-66.39 91.06,-50.95 82.11,-38.28"/>
<polygon fill="red" stroke="red" stroke-width="0.17" points="84.93,-36.2 76.3,-30.05 79.21,-40.24 84.93,-36.2"/>
</g>
<!-- 4 -->
<g id="node8" class="node">
<title>4</title>
<ellipse fill="lightblue" stroke="black" cx="169.26" cy="-16.26" rx="16.03" ry="16.03"/>
<text text-anchor="middle" x="169.26" y="-14.06" font-family="Times,serif" font-size="9.00">4</text>
</g>
<!-- &#45;3&#45;&gt;4 -->
<g id="edge7" class="edge">
<title>&#45;3&#45;&gt;4</title>
<path fill="none" stroke="green" stroke-width="0.12" d="M121.01,-75.63C128.82,-66.18 141.97,-50.27 152.58,-37.45"/>
<polygon fill="green" stroke="green" stroke-width="0.12" points="155.42,-39.5 159.1,-29.56 150.03,-35.04 155.42,-39.5"/>
</g>
<!-- 2 -->
<g id="node6" class="node">
<title>2</title>
<ellipse fill="lightblue" stroke="black" cx="161.26" cy="-84.79" rx="16.03" ry="16.03"/>
<text text-anchor="middle" x="161.26" y="-82.59" font-family="Times,serif" font-size="9.00">2</text>
</g>
</g>
</svg>
