<?xml version="1.0" encoding="UTF-8" standalone="no"?>
<!DOCTYPE svg PUBLIC "-//W3C//DTD SVG 1.1//EN"
 "http://www.w3.org/Graphics/SVG/1.1/DTD/svg11.dtd">
<!-- Generated by graphviz version 2.43.0 (0)
 -->
<!-- Title: %3 Pages: 1 -->
<svg width="245pt" height="95pt"
 viewBox="0.00 0.00 244.53 94.53" xmlns="http://www.w3.org/2000/svg" xmlns:xlink="http://www.w3.org/1999/xlink">
<g id="graph0" class="graph" transform="scale(1 1) rotate(0) translate(4 90.53)">
<title>%3</title>
<polygon fill="white" stroke="transparent" points="-4,4 -4,-90.53 240.53,-90.53 240.53,4 -4,4"/>
<!-- &#45;1 -->
<g id="node1" class="node">
<title>&#45;1</title>
<polygon fill="lightgray" stroke="black" points="80.26,-86.53 54.26,-86.53 54.26,-68.53 80.26,-68.53 80.26,-86.53"/>
<text text-anchor="middle" x="67.26" y="-75.33" font-family="Times,serif" font-size="9.00">&#45;1</text>
</g>
<!-- 0 -->
<g id="node4" class="node">
<title>0</title>
<ellipse fill="lightblue" stroke="black" cx="67.26" cy="-16.26" rx="16.03" ry="16.03"/>
<text text-anchor="middle" x="67.26" y="-14.06" font-family="Times,serif" font-size="9.00">0</text>
</g>
<!-- &#45;1&#45;&gt;0 -->
<g id="edge8" class="edge">
<title>&#45;1&#45;&gt;0</title>
<path fill="none" stroke="red" stroke-width="0.13" d="M67.26,-68.29C67.26,-61.7 67.26,-52.1 67.26,-43"/>
<polygon fill="red" stroke="red" stroke-width="0.13" points="70.76,-42.76 67.26,-32.76 63.76,-42.76 70.76,-42.76"/>
</g>
<!-- 1 -->
<g id="node5" class="node">
<title>1</title>
<ellipse fill="lightblue" stroke="black" cx="16.26" cy="-16.26" rx="16.03" ry="16.03"/>
<text text-anchor="middle" x="16.26" y="-14.06" font-family="Times,serif" font-size="9.00">1</text>
</g>
<!-- &#45;1&#45;&gt;1 -->
<g id="edge7" class="edge">
<title>&#45;1&#45;&gt;1</title>
<path fill="none" stroke="red" stroke-width="0.28" d="M60.17,-68.29C53.19,-60.18 42.27,-47.49 33.07,-36.79"/>
<polygon fill="red" stroke="red" stroke-width="0.28" points="35.64,-34.41 26.46,-29.11 30.33,-38.98 35.64,-34.41"/>
</g>
<!-- 3 -->
<g id="node7" class="node">
<title>3</title>
<ellipse fill="lightblue" stroke="black" cx="118.26" cy="-16.26" rx="16.03" ry="16.03"/>
<text text-anchor="middle" x="118.26" y="-14.06" font-family="Times,serif" font-size="9.00">3</text>
</g>
<!-- &#45;1&#45;&gt;3 -->
<g id="edge3" class="edge">
<title>&#45;1&#45;&gt;3</title>
<path fill="none" stroke="red" stroke-width="0.1" d="M74.35,-68.29C81.33,-60.18 92.25,-47.49 101.46,-36.79"/>
<polygon fill="red" stroke="red" stroke-width="0.1" points="104.2,-38.98 108.07,-29.11 98.89,-34.41 104.2,-38.98"/>
</g>
<!-- &#45;2 -->
<g id="node2" class="node">
<title>&#45;2</title>
<polygon fill="lightgray" stroke="black" points="134.26,-86.53 108.26,-86.53 108.26,-68.53 134.26,-68.53 134.26,-86.53"/>
<text text-anchor="middle" x="121.26" y="-75.33" font-family="Times,serif" font-size="9.00">&#45;2</text>
</g>
<!-- 2 -->
<g id="node6" class="node">
<title>2</title>
<ellipse fill="lightblue" stroke="black" cx="169.26" cy="-16.26" rx="16.03" ry="16.03"/>
<text text-anchor="middle" x="169.26" y="-14.06" font-family="Times,serif" font-size="9.00">2</text>
</g>
<!-- &#45;2&#45;&gt;2 -->
<g id="edge6" class="edge">
<title>&#45;2&#45;&gt;2</title>
<path fill="none" stroke="green" stroke-width="0.24" d="M127.94,-68.29C134.36,-60.36 144.33,-48.05 152.87,-37.51"/>
<polygon fill="green" stroke="green" stroke-width="0.24" points="155.74,-39.53 159.31,-29.55 150.3,-35.12 155.74,-39.53"/>
</g>
<!-- &#45;2&#45;&gt;3 -->
<g id="edge1" class="edge">
<title>&#45;2&#45;&gt;3</title>
<path fill="none" stroke="green" stroke-width="0.37" d="M120.85,-68.29C120.51,-61.7 120.03,-52.1 119.57,-43"/>
<polygon fill="green" stroke="green" stroke-width="0.37" points="123.05,-42.57 119.05,-32.76 116.06,-42.92 123.05,-42.57"/>
</g>
<!-- &#45;3 -->
<g id="node3" class="node">
<title>&#45;3</title>
<polygon fill="lightgray" stroke="black" points="182.26,-86.53 156.26,-86.53 156.26,-68.53 182.26,-68.53 182.26,-86.53"/>
<text text-anchor="middle" x="169.26" y="-75.33" font-family="Times,serif" font-size="9.00">&#45;3</text>
</g>
<!-- &#45;3&#45;&gt;2 -->
<g id="edge4" class="edge">
<title>&#45;3&#45;&gt;2</title>
<path fill="none" stroke="red" stroke-width="0.24" d="M169.26,-68.29C169.26,-61.7 169.26,-52.1 169.26,-43"/>
<polygon fill="red" stroke="red" stroke-width="0.24" points="172.76,-42.76 169.26,-32.76 165.76,-42.76 172.76,-42.76"/>
</g>
<!-- &#45;3&#45;&gt;3 -->
<g id="edge5" class="edge">
<title>&#45;3&#45;&gt;3</title>
<path fill="none" stroke="red" stroke-width="0.22" d="M162.17,-68.29C155.19,-60.18 144.27,-47.49 135.07,-36.79"/>
<polygon fill="red" stroke="red" stroke-width="0.22" points="137.64,-34.41 128.46,-29.11 132.33,-38.98 137.64,-34.41"/>
</g>
<!-- 4 -->
<g id="node8" class="node">
<title>4</title>
<ellipse fill="lightblue" stroke="black" cx="220.26" cy="-16.26" rx="16.03" ry="16.03"/>
<text text-anchor="middle" x="220.26" y="-14.06" font-family="Times,serif" font-size="9.00">4</text>
</g>
<!-- &#45;3&#45;&gt;4 -->
<g id="edge2" class="edge">
<title>&#45;3&#45;&gt;4</title>
<path fill="none" stroke="red" stroke-width="0.17" d="M176.35,-68.29C183.33,-60.18 194.25,-47.49 203.46,-36.79"/>
<polygon fill="red" stroke="red" stroke-width="0.17" points="206.2,-38.98 210.07,-29.11 200.89,-34.41 206.2,-38.98"/>
</g>
</g>
</svg>
