<?xml version="1.0" encoding="UTF-8" standalone="no"?>
<!DOCTYPE svg PUBLIC "-//W3C//DTD SVG 1.1//EN"
 "http://www.w3.org/Graphics/SVG/1.1/DTD/svg11.dtd">
<!-- Generated by graphviz version 2.43.0 (0)
 -->
<!-- Title: %3 Pages: 1 -->
<svg width="291pt" height="172pt"
 viewBox="0.00 0.00 290.53 171.54" xmlns="http://www.w3.org/2000/svg" xmlns:xlink="http://www.w3.org/1999/xlink">
<g id="graph0" class="graph" transform="scale(1 1) rotate(0) translate(4 167.54)">
<title>%3</title>
<polygon fill="white" stroke="transparent" points="-4,4 -4,-167.54 286.53,-167.54 286.53,4 -4,4"/>
<!-- &#45;1 -->
<g id="node1" class="node">
<title>&#45;1</title>
<polygon fill="lightgray" stroke="black" points="29.26,-163.54 3.26,-163.54 3.26,-145.54 29.26,-145.54 29.26,-163.54"/>
<text text-anchor="middle" x="16.26" y="-152.34" font-family="Times,serif" font-size="9.00">&#45;1</text>
</g>
<!-- 2 -->
<g id="node6" class="node">
<title>2</title>
<ellipse fill="lightblue" stroke="black" cx="16.26" cy="-89.03" rx="16.03" ry="16.03"/>
<text text-anchor="middle" x="16.26" y="-86.83" font-family="Times,serif" font-size="9.00">2</text>
</g>
<!-- &#45;1&#45;&gt;2 -->
<g id="edge2" class="edge">
<title>&#45;1&#45;&gt;2</title>
<path fill="none" stroke="green" stroke-width="0.31" d="M16.26,-145.5C16.26,-137.99 16.26,-126.37 16.26,-115.7"/>
<polygon fill="green" stroke="green" stroke-width="0.31" points="19.76,-115.54 16.26,-105.54 12.76,-115.54 19.76,-115.54"/>
</g>
<!-- &#45;2 -->
<g id="node2" class="node">
<title>&#45;2</title>
<polygon fill="lightgray" stroke="black" points="228.26,-163.54 202.26,-163.54 202.26,-145.54 228.26,-145.54 228.26,-163.54"/>
<text text-anchor="middle" x="215.26" y="-152.34" font-family="Times,serif" font-size="9.00">&#45;2</text>
</g>
<!-- 0 -->
<g id="node4" class="node">
<title>0</title>
<ellipse fill="lightblue" stroke="black" cx="164.26" cy="-89.03" rx="16.03" ry="16.03"/>
<text text-anchor="middle" x="164.26" y="-86.83" font-family="Times,serif" font-size="9.00">0</text>
</g>
<!-- &#45;2&#45;&gt;0 -->
<g id="edge6" class="edge">
<title>&#45;2&#45;&gt;0</title>
<path fill="none" stroke="green" stroke-width="0.35" d="M208.8,-145.5C201.73,-136.69 190.11,-122.22 180.52,-110.27"/>
<polygon fill="green" stroke="green" stroke-width="0.35" points="182.97,-107.74 173.98,-102.13 177.51,-112.12 182.97,-107.74"/>
</g>
<!-- 3 -->
<g id="node7" class="node">
<title>3</title>
<ellipse fill="lightblue" stroke="black" cx="215.26" cy="-89.03" rx="16.03" ry="16.03"/>
<text text-anchor="middle" x="215.26" y="-86.83" font-family="Times,serif" font-size="9.00">3</text>
</g>
<!-- &#45;2&#45;&gt;3 -->
<g id="edge8" class="edge">
<title>&#45;2&#45;&gt;3</title>
<path fill="none" stroke="green" stroke-width="0.15" d="M215.26,-145.5C215.26,-137.99 215.26,-126.37 215.26,-115.7"/>
<polygon fill="green" stroke="green" stroke-width="0.15" points="218.76,-115.54 215.26,-105.54 211.76,-115.54 218.76,-115.54"/>
</g>
<!-- 4 -->
<g id="node8" class="node">
<title>4</title>
<ellipse fill="lightblue" stroke="black" cx="266.26" cy="-89.03" rx="16.03" ry="16.03"/>
<text text-anchor="middle" x="266.26" y="-86.83" font-family="Times,serif" font-size="9.00">4</text>
</g>
<!-- &#45;2&#45;&gt;4 -->
<g id="edge4" class="edge">
<title>&#45;2&#45;&gt;4</title>
<path fill="none" stroke="green" stroke-width="0.16" d="M221.72,-145.5C228.8,-136.69 240.41,-122.22 250.01,-110.27"/>
<polygon fill="green" stroke="green" stroke-width="0.16" points="253.01,-112.12 256.55,-102.13 247.56,-107.74 253.01,-112.12"/>
</g>
<!-- &#45;3 -->
<g id="node3" class="node">
<title>&#45;3</title>
<polygon fill="lightgray" stroke="black" points="177.26,-163.54 151.26,-163.54 151.26,-145.54 177.26,-145.54 177.26,-163.54"/>
<text text-anchor="middle" x="164.26" y="-152.34" font-family="Times,serif" font-size="9.00">&#45;3</text>
</g>
<!-- &#45;3&#45;&gt;0 -->
<g id="edge3" class="edge">
<title>&#45;3&#45;&gt;0</title>
<path fill="none" stroke="green" stroke-width="0.22" d="M164.26,-145.5C164.26,-137.99 164.26,-126.37 164.26,-115.7"/>
<polygon fill="green" stroke="green" stroke-width="0.22" points="167.76,-115.54 164.26,-105.54 160.76,-115.54 167.76,-115.54"/>
</g>
<!-- 1 -->
<g id="node5" class="node">
<title>1</title>
<ellipse fill="lightblue" stroke="black" cx="84.26" cy="-16.26" rx="16.03" ry="16.03"/>
<text text-anchor="middle" x="84.26" y="-14.06" font-family="Times,serif" font-size="9.00">1</text>
</g>
<!-- &#45;3&#45;&gt;1 -->
<g id="edge7" class="edge">
<title>&#45;3&#45;&gt;1</title>
<path fill="none" stroke="red" stroke-width="0.2" d="M151,-151.11C131.31,-146.72 94.98,-135.38 79.26,-109.54 66.82,-89.09 70.58,-61.14 75.88,-41.37"/>
<polygon fill="red" stroke="red" stroke-width="0.2" points="79.29,-42.18 78.8,-31.6 72.59,-40.18 79.29,-42.18"/>
</g>
<!-- &#45;3&#45;&gt;3 -->
<g id="edge1" class="edge">
<title>&#45;3&#45;&gt;3</title>
<path fill="none" stroke="red" stroke-width="0.27" d="M170.72,-145.5C177.8,-136.69 189.41,-122.22 199.01,-110.27"/>
<polygon fill="red" stroke="red" stroke-width="0.27" points="202.01,-112.12 205.55,-102.13 196.56,-107.74 202.01,-112.12"/>
</g>
<!-- &#45;3&#45;&gt;4 -->
<g id="edge5" class="edge">
<title>&#45;3&#45;&gt;4</title>
<path fill="none" stroke="green" stroke-width="0.14" d="M177.46,-146.52C192.84,-138.2 218.9,-123.67 240.26,-109.54 241.96,-108.42 243.69,-107.23 245.42,-106.01"/>
<polygon fill="green" stroke="green" stroke-width="0.14" points="247.79,-108.6 253.79,-99.87 243.65,-102.96 247.79,-108.6"/>
</g>
<!-- 24 -->
<g id="node9" class="node">
<title>24</title>
<ellipse fill="white" stroke="black" cx="109.26" cy="-89.03" rx="20.51" ry="20.51"/>
<text text-anchor="middle" x="109.26" y="-86.83" font-family="Times,serif" font-size="9.00">24</text>
</g>
<!-- &#45;3&#45;&gt;24 -->
<g id="edge9" class="edge">
<title>&#45;3&#45;&gt;24</title>
<path fill="none" stroke="green" stroke-width="0.35" d="M157.3,-145.5C150.16,-137.25 138.73,-124.05 128.81,-112.6"/>
<polygon fill="green" stroke="green" stroke-width="0.35" points="131.45,-110.3 122.25,-105.03 126.16,-114.88 131.45,-110.3"/>
</g>
<!-- 24&#45;&gt;1 -->
<g id="edge10" class="edge">
<title>24&#45;&gt;1</title>
<path fill="none" stroke="green" stroke-width="0.55" d="M102.7,-69.44C99.67,-60.87 96.04,-50.59 92.8,-41.43"/>
<polygon fill="green" stroke="green" stroke-width="0.55" points="96,-39.98 89.37,-31.71 89.4,-42.31 96,-39.98"/>
</g>
</g>
</svg>
