<?xml version="1.0" encoding="UTF-8" standalone="no"?>
<!DOCTYPE svg PUBLIC "-//W3C//DTD SVG 1.1//EN"
 "http://www.w3.org/Graphics/SVG/1.1/DTD/svg11.dtd">
<!-- Generated by graphviz version 2.43.0 (0)
 -->
<!-- Title: %3 Pages: 1 -->
<svg width="1695pt" height="812pt"
 viewBox="0.00 0.00 1695.30 812.45" xmlns="http://www.w3.org/2000/svg" xmlns:xlink="http://www.w3.org/1999/xlink">
<g id="graph0" class="graph" transform="scale(1 1) rotate(0) translate(4 808.45)">
<title>%3</title>
<polygon fill="white" stroke="transparent" points="-4,4 -4,-808.45 1691.3,-808.45 1691.3,4 -4,4"/>
<!-- &#45;1 -->
<g id="node1" class="node">
<title>&#45;1</title>
<polygon fill="lightgray" stroke="black" points="982,-559.46 956,-559.46 956,-541.46 982,-541.46 982,-559.46"/>
<text text-anchor="middle" x="969" y="-548.26" font-family="Times,serif" font-size="9.00">&#45;1</text>
</g>
<!-- 0 -->
<g id="node4" class="node">
<title>0</title>
<ellipse fill="lightblue" stroke="black" cx="988" cy="-16.26" rx="16.03" ry="16.03"/>
<text text-anchor="middle" x="988" y="-14.06" font-family="Times,serif" font-size="9.00">0</text>
</g>
<!-- &#45;1&#45;&gt;0 -->
<g id="edge46" class="edge">
<title>&#45;1&#45;&gt;0</title>
<path fill="none" stroke="red" stroke-width="0.45" stroke-dasharray="1,5" d="M969.3,-541.1C971.37,-483.04 983.64,-139.31 987.1,-42.58"/>
<polygon fill="red" stroke="red" stroke-width="0.45" points="990.6,-42.65 987.46,-32.53 983.6,-42.4 990.6,-42.65"/>
</g>
<!-- 1 -->
<g id="node5" class="node">
<title>1</title>
<ellipse fill="lightblue" stroke="black" cx="323" cy="-97.52" rx="16.03" ry="16.03"/>
<text text-anchor="middle" x="323" y="-95.32" font-family="Times,serif" font-size="9.00">1</text>
</g>
<!-- &#45;1&#45;&gt;1 -->
<g id="edge47" class="edge">
<title>&#45;1&#45;&gt;1</title>
<path fill="none" stroke="red" stroke-width="0.47" d="M955.68,-547.74C890.16,-539.22 603.75,-501.32 567,-485.47 535.57,-471.92 338.11,-328.21 323,-297.5 294.85,-240.29 307.29,-162.14 316.43,-122.98"/>
<polygon fill="red" stroke="red" stroke-width="0.47" points="319.83,-123.79 318.82,-113.24 313.04,-122.12 319.83,-123.79"/>
</g>
<!-- 2 -->
<g id="node6" class="node">
<title>2</title>
<ellipse fill="lightblue" stroke="black" cx="695" cy="-97.52" rx="16.03" ry="16.03"/>
<text text-anchor="middle" x="695" y="-95.32" font-family="Times,serif" font-size="9.00">2</text>
</g>
<!-- &#45;1&#45;&gt;2 -->
<g id="edge48" class="edge">
<title>&#45;1&#45;&gt;2</title>
<path fill="none" stroke="green" stroke-width="0.21" stroke-dasharray="1,5" d="M967.06,-541.17C956.02,-494.01 901.25,-261.15 893,-248.01 879.75,-226.89 868.89,-228.26 850,-212.01 824.82,-190.34 820.47,-182.58 794,-162.51 768.83,-143.42 738.02,-124.09 717.52,-111.74"/>
<polygon fill="green" stroke="green" stroke-width="0.21" points="719.27,-108.71 708.89,-106.59 715.68,-114.72 719.27,-108.71"/>
</g>
<!-- 3 -->
<g id="node7" class="node">
<title>3</title>
<ellipse fill="lightblue" stroke="black" cx="1045" cy="-97.52" rx="16.03" ry="16.03"/>
<text text-anchor="middle" x="1045" y="-95.32" font-family="Times,serif" font-size="9.00">3</text>
</g>
<!-- &#45;1&#45;&gt;3 -->
<g id="edge49" class="edge">
<title>&#45;1&#45;&gt;3</title>
<path fill="none" stroke="red" stroke-width="1.33" d="M970.85,-541.19C973.58,-529 978.78,-505.5 983,-485.47 991.78,-443.77 994.68,-433.47 1002,-391.49 1019.19,-292.88 1035.11,-174.79 1041.74,-123.9"/>
<polygon fill="red" stroke="red" stroke-width="1.33" points="1045.23,-124.18 1043.05,-113.81 1038.29,-123.28 1045.23,-124.18"/>
</g>
<!-- 1544 -->
<g id="node9" class="node">
<title>1544</title>
<ellipse fill="white" stroke="black" cx="1102" cy="-456.48" rx="28.98" ry="28.98"/>
<text text-anchor="middle" x="1102" y="-454.28" font-family="Times,serif" font-size="9.00">1544</text>
</g>
<!-- &#45;1&#45;&gt;1544 -->
<g id="edge80" class="edge">
<title>&#45;1&#45;&gt;1544</title>
<path fill="none" stroke="green" stroke-width="0.25" d="M980.8,-541.3C1000.62,-527.59 1041.24,-499.5 1069.98,-479.62"/>
<polygon fill="green" stroke="green" stroke-width="0.25" points="1072.25,-482.31 1078.48,-473.74 1068.27,-476.55 1072.25,-482.31"/>
</g>
<!-- 1037 -->
<g id="node10" class="node">
<title>1037</title>
<ellipse fill="white" stroke="black" cx="874" cy="-456.48" rx="28.98" ry="28.98"/>
<text text-anchor="middle" x="874" y="-454.28" font-family="Times,serif" font-size="9.00">1037</text>
</g>
<!-- &#45;1&#45;&gt;1037 -->
<g id="edge61" class="edge">
<title>&#45;1&#45;&gt;1037</title>
<path fill="none" stroke="green" stroke-width="0.33" d="M960.57,-541.3C947.52,-528.67 921.86,-503.82 901.85,-484.44"/>
<polygon fill="green" stroke="green" stroke-width="0.33" points="904.11,-481.76 894.49,-477.32 899.24,-486.79 904.11,-481.76"/>
</g>
<!-- 711 -->
<g id="node15" class="node">
<title>711</title>
<ellipse fill="white" stroke="black" cx="471" cy="-187.26" rx="25" ry="25"/>
<text text-anchor="middle" x="471" y="-185.06" font-family="Times,serif" font-size="9.00">711</text>
</g>
<!-- &#45;1&#45;&gt;711 -->
<g id="edge1" class="edge">
<title>&#45;1&#45;&gt;711</title>
<path fill="none" stroke="green" stroke-width="0.48" stroke-dasharray="1,5" d="M955.98,-547.71C896.72,-539.64 654.27,-505.61 627,-485.47 536.64,-418.73 493.91,-283.98 478.31,-221.48"/>
<polygon fill="green" stroke="green" stroke-width="0.48" points="481.71,-220.64 475.96,-211.74 474.91,-222.28 481.71,-220.64"/>
</g>
<!-- 712 -->
<g id="node16" class="node">
<title>712</title>
<ellipse fill="white" stroke="black" cx="1193" cy="-187.26" rx="25" ry="25"/>
<text text-anchor="middle" x="1193" y="-185.06" font-family="Times,serif" font-size="9.00">712</text>
</g>
<!-- &#45;1&#45;&gt;712 -->
<g id="edge2" class="edge">
<title>&#45;1&#45;&gt;712</title>
<path fill="none" stroke="green" stroke-width="0.11" stroke-dasharray="1,5" d="M982.18,-548.76C1014.6,-546.29 1098.61,-535.15 1140,-485.47 1203.77,-408.92 1202.06,-282.19 1196.95,-222"/>
<polygon fill="green" stroke="green" stroke-width="0.11" points="1200.42,-221.53 1196.01,-211.9 1193.45,-222.18 1200.42,-221.53"/>
</g>
<!-- 715 -->
<g id="node19" class="node">
<title>715</title>
<ellipse fill="white" stroke="black" cx="1102" cy="-362.5" rx="25" ry="25"/>
<text text-anchor="middle" x="1102" y="-360.3" font-family="Times,serif" font-size="9.00">715</text>
</g>
<!-- &#45;1&#45;&gt;715 -->
<g id="edge3" class="edge">
<title>&#45;1&#45;&gt;715</title>
<path fill="none" stroke="green" stroke-width="0.83" d="M975.99,-541.38C986.23,-529.43 1005.73,-506.23 1021,-485.47 1043.67,-454.65 1067.69,-417.91 1083.62,-392.86"/>
<polygon fill="green" stroke="green" stroke-width="0.83" points="1086.72,-394.51 1089.11,-384.19 1080.81,-390.77 1086.72,-394.51"/>
</g>
<!-- &#45;2 -->
<g id="node2" class="node">
<title>&#45;2</title>
<polygon fill="lightgray" stroke="black" points="1286,-734.7 1260,-734.7 1260,-716.7 1286,-716.7 1286,-734.7"/>
<text text-anchor="middle" x="1273" y="-723.5" font-family="Times,serif" font-size="9.00">&#45;2</text>
</g>
<!-- &#45;2&#45;&gt;0 -->
<g id="edge50" class="edge">
<title>&#45;2&#45;&gt;0</title>
<path fill="none" stroke="green" stroke-width="0.81" stroke-dasharray="1,5" d="M1286.24,-724.76C1352.51,-724.31 1645,-713.18 1645,-551.46 1645,-551.46 1645,-551.46 1645,-455.48 1645,-325 1725,-277.86 1664,-162.51 1629.31,-96.91 1595.8,-93.72 1526,-68.53 1430.07,-33.9 1109.1,-21.11 1014.47,-18.05"/>
<polygon fill="green" stroke="green" stroke-width="0.81" points="1014.43,-14.54 1004.32,-17.73 1014.21,-21.54 1014.43,-14.54"/>
</g>
<!-- &#45;2&#45;&gt;1 -->
<g id="edge51" class="edge">
<title>&#45;2&#45;&gt;1</title>
<path fill="none" stroke="green" stroke-width="0.51" d="M1259.79,-724.17C1178.03,-720.83 740.43,-701.45 612,-664.95 530.27,-641.72 500.65,-639.96 441,-579.45 343.32,-480.38 338.38,-432.57 305,-297.5 290.6,-239.24 292.52,-221.77 302,-162.51 304.17,-148.94 308.78,-134.33 313.12,-122.51"/>
<polygon fill="green" stroke="green" stroke-width="0.51" points="316.48,-123.52 316.81,-112.93 309.95,-121.01 316.48,-123.52"/>
</g>
<!-- &#45;2&#45;&gt;3 -->
<g id="edge52" class="edge">
<title>&#45;2&#45;&gt;3</title>
<path fill="none" stroke="green" stroke-width="1.6" d="M1272.23,-716.43C1270.47,-698.14 1265.76,-652.9 1259,-615.45 1220.47,-402.12 1173.04,-357.35 1078,-162.51 1071.25,-148.68 1063.37,-133.36 1056.99,-121.17"/>
<polygon fill="green" stroke="green" stroke-width="1.6" points="1060.01,-119.38 1052.26,-112.16 1053.81,-122.64 1060.01,-119.38"/>
</g>
<!-- 4 -->
<g id="node8" class="node">
<title>4</title>
<ellipse fill="lightblue" stroke="black" cx="1501" cy="-97.52" rx="16.03" ry="16.03"/>
<text text-anchor="middle" x="1501" y="-95.32" font-family="Times,serif" font-size="9.00">4</text>
</g>
<!-- &#45;2&#45;&gt;4 -->
<g id="edge53" class="edge">
<title>&#45;2&#45;&gt;4</title>
<path fill="none" stroke="red" stroke-width="0.22" d="M1286.1,-717.8C1304.84,-707.61 1339.91,-687.3 1366,-664.95 1446.93,-595.61 1473.23,-578.62 1525,-485.47 1594.99,-359.54 1601.21,-298.28 1553,-162.51 1546.56,-144.36 1532.52,-127.62 1520.66,-115.81"/>
<polygon fill="red" stroke="red" stroke-width="0.22" points="1522.94,-113.15 1513.28,-108.8 1518.12,-118.22 1522.94,-113.15"/>
</g>
<!-- 710 -->
<g id="node14" class="node">
<title>710</title>
<ellipse fill="white" stroke="black" cx="646" cy="-640.2" rx="25" ry="25"/>
<text text-anchor="middle" x="646" y="-638" font-family="Times,serif" font-size="9.00">710</text>
</g>
<!-- &#45;2&#45;&gt;710 -->
<g id="edge4" class="edge">
<title>&#45;2&#45;&gt;710</title>
<path fill="none" stroke="red" stroke-width="0.88" stroke-dasharray="1,5" d="M1259.9,-723.15C1204.49,-716.57 983.86,-690.12 803,-664.95 760.81,-659.08 712.35,-651.64 680.56,-646.67"/>
<polygon fill="red" stroke="red" stroke-width="0.88" points="680.87,-643.18 670.45,-645.08 679.79,-650.09 680.87,-643.18"/>
</g>
<!-- &#45;2&#45;&gt;712 -->
<g id="edge82" class="edge">
<title>&#45;2&#45;&gt;712</title>
<path fill="none" stroke="red" stroke-width="0.62" d="M1276.11,-716.54C1285.19,-691.99 1311,-616.43 1311,-551.46 1311,-551.46 1311,-551.46 1311,-455.48 1311,-360.67 1248.07,-261.82 1214.12,-215.4"/>
<polygon fill="red" stroke="red" stroke-width="0.62" points="1216.72,-213.03 1207.94,-207.09 1211.1,-217.21 1216.72,-213.03"/>
</g>
<!-- &#45;2&#45;&gt;715 -->
<g id="edge5" class="edge">
<title>&#45;2&#45;&gt;715</title>
<path fill="none" stroke="red" stroke-width="0.37" d="M1270.95,-716.64C1260.11,-674.36 1208.59,-478.33 1173,-427.49 1161.31,-410.78 1144.48,-395.37 1130.14,-383.86"/>
<polygon fill="red" stroke="red" stroke-width="0.37" points="1132.09,-380.94 1122.05,-377.55 1127.78,-386.46 1132.09,-380.94"/>
</g>
<!-- 716 -->
<g id="node20" class="node">
<title>716</title>
<ellipse fill="white" stroke="black" cx="1260" cy="-187.26" rx="25" ry="25"/>
<text text-anchor="middle" x="1260" y="-185.06" font-family="Times,serif" font-size="9.00">716</text>
</g>
<!-- &#45;2&#45;&gt;716 -->
<g id="edge6" class="edge">
<title>&#45;2&#45;&gt;716</title>
<path fill="none" stroke="red" stroke-width="0.25" d="M1283.52,-716.61C1311.74,-693.91 1387,-626.35 1387,-551.46 1387,-551.46 1387,-551.46 1387,-455.48 1387,-362.65 1413.88,-325.64 1363,-248.01 1346.84,-223.35 1316.71,-207.62 1293.2,-198.52"/>
<polygon fill="red" stroke="red" stroke-width="0.25" points="1294.18,-195.16 1283.59,-195.03 1291.79,-201.74 1294.18,-195.16"/>
</g>
<!-- 722 -->
<g id="node24" class="node">
<title>722</title>
<ellipse fill="white" stroke="black" cx="859" cy="-272.76" rx="25" ry="25"/>
<text text-anchor="middle" x="859" y="-270.56" font-family="Times,serif" font-size="9.00">722</text>
</g>
<!-- &#45;2&#45;&gt;722 -->
<g id="edge7" class="edge">
<title>&#45;2&#45;&gt;722</title>
<path fill="none" stroke="green" stroke-width="0.97" d="M1259.79,-722.92C1195.85,-713.48 918.22,-662.81 836,-485.47 825.16,-462.09 832.85,-453.06 836,-427.49 838.02,-411.12 842.02,-407.71 845,-391.49 850.13,-363.57 853.79,-331.58 856.08,-307.99"/>
<polygon fill="green" stroke="green" stroke-width="0.97" points="859.59,-308.07 857.04,-297.79 852.62,-307.42 859.59,-308.07"/>
</g>
<!-- &#45;3 -->
<g id="node3" class="node">
<title>&#45;3</title>
<polygon fill="lightgray" stroke="black" points="545,-804.45 519,-804.45 519,-786.45 545,-786.45 545,-804.45"/>
<text text-anchor="middle" x="532" y="-793.25" font-family="Times,serif" font-size="9.00">&#45;3</text>
</g>
<!-- &#45;3&#45;&gt;0 -->
<g id="edge54" class="edge">
<title>&#45;3&#45;&gt;0</title>
<path fill="none" stroke="red" stroke-width="0.8" d="M518.68,-794.52C452.94,-794.65 163.28,-792.78 86,-750.45 31.8,-720.76 0,-702.99 0,-641.2 0,-641.2 0,-641.2 0,-186.26 0,-119.3 34.52,-99.28 94,-68.53 172.74,-27.82 820.77,-18.96 961.22,-17.51"/>
<polygon fill="red" stroke="red" stroke-width="0.8" points="961.52,-21 971.49,-17.41 961.45,-14 961.52,-21"/>
</g>
<!-- &#45;3&#45;&gt;1 -->
<g id="edge55" class="edge">
<title>&#45;3&#45;&gt;1</title>
<path fill="none" stroke="green" stroke-width="0.18" stroke-dasharray="1,5" d="M518.79,-793.32C440.23,-786.24 38,-744.92 38,-641.2 38,-641.2 38,-641.2 38,-271.76 38,-151.39 225.93,-112.27 296.58,-101.82"/>
<polygon fill="green" stroke="green" stroke-width="0.18" points="297.44,-105.23 306.86,-100.38 296.47,-98.3 297.44,-105.23"/>
</g>
<!-- &#45;3&#45;&gt;2 -->
<g id="edge56" class="edge">
<title>&#45;3&#45;&gt;2</title>
<path fill="none" stroke="green" stroke-width="1.19" d="M545.24,-792.25C593.9,-783.37 760,-745.41 760,-641.2 760,-641.2 760,-641.2 760,-549.46 760,-506.56 713.32,-212.51 699.08,-123.8"/>
<polygon fill="green" stroke="green" stroke-width="1.19" points="702.51,-123.12 697.47,-113.8 695.6,-124.23 702.51,-123.12"/>
</g>
<!-- &#45;3&#45;&gt;4 -->
<g id="edge57" class="edge">
<title>&#45;3&#45;&gt;4</title>
<path fill="none" stroke="green" stroke-width="0.34" d="M545.14,-794.15C635.92,-792.07 1170.93,-778.7 1331,-750.45 1492.31,-721.98 1683,-805.01 1683,-641.2 1683,-641.2 1683,-641.2 1683,-271.76 1683,-222.47 1697.5,-198.66 1664,-162.51 1619.75,-114.75 1576.18,-162.61 1522,-126.51 1519.44,-124.8 1517.07,-122.68 1514.92,-120.37"/>
<polygon fill="green" stroke="green" stroke-width="0.34" points="1517.39,-117.84 1508.47,-112.12 1511.87,-122.15 1517.39,-117.84"/>
</g>
<!-- &#45;3&#45;&gt;711 -->
<g id="edge8" class="edge">
<title>&#45;3&#45;&gt;711</title>
<path fill="none" stroke="green" stroke-width="0.15" d="M518.65,-794.25C490.19,-793.1 422.97,-786.49 384,-750.45 345.81,-715.13 342,-693.22 342,-641.2 342,-641.2 342,-641.2 342,-549.46 342,-419.26 417.26,-277.22 452.81,-217.4"/>
<polygon fill="green" stroke="green" stroke-width="0.15" points="456,-218.89 458.16,-208.51 450,-215.28 456,-218.89"/>
</g>
<!-- &#45;3&#45;&gt;712 -->
<g id="edge9" class="edge">
<title>&#45;3&#45;&gt;712</title>
<path fill="none" stroke="red" stroke-width="0.42" d="M545.01,-794.15C643.27,-791.82 1265.5,-776.11 1295,-750.45 1434.84,-628.77 1365.73,-508.99 1306,-333.5 1292.36,-293.43 1290.09,-281.35 1264,-248.01 1257.22,-239.34 1237.45,-222.9 1220.49,-209.46"/>
<polygon fill="red" stroke="red" stroke-width="0.42" points="1222.48,-206.57 1212.46,-203.15 1218.16,-212.08 1222.48,-206.57"/>
</g>
<!-- &#45;3&#45;&gt;715 -->
<g id="edge10" class="edge">
<title>&#45;3&#45;&gt;715</title>
<path fill="none" stroke="green" stroke-width="0.13" d="M545.17,-794.08C582.56,-792.63 691.91,-785.47 774,-750.45 958.71,-671.64 1048.68,-664.33 1140,-485.47 1155.61,-454.9 1138.46,-416.72 1122.45,-391.3"/>
<polygon fill="green" stroke="green" stroke-width="0.13" points="1125.32,-389.29 1116.9,-382.87 1119.48,-393.14 1125.32,-389.29"/>
</g>
<!-- 721 -->
<g id="node23" class="node">
<title>721</title>
<ellipse fill="white" stroke="black" cx="418" cy="-725.7" rx="25" ry="25"/>
<text text-anchor="middle" x="418" y="-723.5" font-family="Times,serif" font-size="9.00">721</text>
</g>
<!-- &#45;3&#45;&gt;721 -->
<g id="edge11" class="edge">
<title>&#45;3&#45;&gt;721</title>
<path fill="none" stroke="green" stroke-width="0.63" d="M518.92,-786.68C501.68,-776.43 470.82,-758.09 447.75,-744.38"/>
<polygon fill="green" stroke="green" stroke-width="0.63" points="449.41,-741.3 439.03,-739.2 445.84,-747.31 449.41,-741.3"/>
</g>
<!-- &#45;3&#45;&gt;722 -->
<g id="edge12" class="edge">
<title>&#45;3&#45;&gt;722</title>
<path fill="none" stroke="green" stroke-width="0.49" stroke-dasharray="1,5" d="M532,-786.14C532,-763.12 532,-696.54 532,-641.2 532,-641.2 532,-641.2 532,-549.46 532,-429.48 597.57,-404.9 694,-333.5 733.78,-304.05 789.52,-287.92 824.95,-280.06"/>
<polygon fill="green" stroke="green" stroke-width="0.49" points="825.75,-283.47 834.81,-277.97 824.3,-276.62 825.75,-283.47"/>
</g>
<!-- 1544&#45;&gt;715 -->
<g id="edge81" class="edge">
<title>1544&#45;&gt;715</title>
<path fill="none" stroke="green" stroke-width="0.14" d="M1102,-427.38C1102,-417.99 1102,-407.42 1102,-397.63"/>
<polygon fill="green" stroke="green" stroke-width="0.14" points="1105.5,-397.39 1102,-387.39 1098.5,-397.39 1105.5,-397.39"/>
</g>
<!-- 1037&#45;&gt;722 -->
<g id="edge68" class="edge">
<title>1037&#45;&gt;722</title>
<path fill="none" stroke="green" stroke-width="0.33" d="M882.27,-428.54C888.71,-403.63 895.4,-365.7 888,-333.5 885.62,-323.14 881.19,-312.48 876.49,-303.1"/>
<polygon fill="green" stroke="green" stroke-width="0.33" points="879.55,-301.39 871.78,-294.19 873.36,-304.66 879.55,-301.39"/>
</g>
<!-- 1301 -->
<g id="node11" class="node">
<title>1301</title>
<ellipse fill="white" stroke="black" cx="1197" cy="-97.52" rx="28.98" ry="28.98"/>
<text text-anchor="middle" x="1197" y="-95.32" font-family="Times,serif" font-size="9.00">1301</text>
</g>
<!-- 1301&#45;&gt;0 -->
<g id="edge67" class="edge">
<title>1301&#45;&gt;0</title>
<path fill="none" stroke="red" stroke-width="0.98" stroke-dasharray="1,5" d="M1173.58,-79.6C1167.4,-75.61 1160.61,-71.63 1154,-68.53 1106.68,-46.35 1047.38,-30.71 1013.99,-22.92"/>
<polygon fill="red" stroke="red" stroke-width="0.98" points="1014.63,-19.48 1004.11,-20.67 1013.08,-26.3 1014.63,-19.48"/>
</g>
<!-- 1324 -->
<g id="node12" class="node">
<title>1324</title>
<ellipse fill="white" stroke="black" cx="1482" cy="-362.5" rx="28.98" ry="28.98"/>
<text text-anchor="middle" x="1482" y="-360.3" font-family="Times,serif" font-size="9.00">1324</text>
</g>
<!-- 1324&#45;&gt;4 -->
<g id="edge71" class="edge">
<title>1324&#45;&gt;4</title>
<path fill="none" stroke="green" stroke-width="1.53" d="M1484.03,-333.35C1487.75,-281.86 1495.6,-173.25 1499.17,-123.89"/>
<polygon fill="green" stroke="green" stroke-width="1.53" points="1502.67,-123.98 1499.9,-113.76 1495.69,-123.48 1502.67,-123.98"/>
</g>
<!-- 831 -->
<g id="node13" class="node">
<title>831</title>
<ellipse fill="white" stroke="black" cx="475" cy="-550.46" rx="25" ry="25"/>
<text text-anchor="middle" x="475" y="-548.26" font-family="Times,serif" font-size="9.00">831</text>
</g>
<!-- 831&#45;&gt;0 -->
<g id="edge77" class="edge">
<title>831&#45;&gt;0</title>
<path fill="none" stroke="red" stroke-width="0.28" d="M457.23,-533.15C387.11,-466.92 139.96,-214.72 276,-68.53 323.53,-17.45 838.43,-16.57 961.63,-17.09"/>
<polygon fill="red" stroke="red" stroke-width="0.28" points="961.67,-20.59 971.69,-17.14 961.71,-13.59 961.67,-20.59"/>
</g>
<!-- 831&#45;&gt;2 -->
<g id="edge83" class="edge">
<title>831&#45;&gt;2</title>
<path fill="none" stroke="green" stroke-width="0.17" d="M479.92,-525.79C493.95,-462.3 538.77,-284.74 624,-162.51 637.49,-143.17 657.88,-125.58 673.35,-113.76"/>
<polygon fill="green" stroke="green" stroke-width="0.17" points="675.86,-116.26 681.81,-107.5 671.69,-110.64 675.86,-116.26"/>
</g>
<!-- 1098 -->
<g id="node18" class="node">
<title>1098</title>
<ellipse fill="white" stroke="black" cx="665" cy="-456.48" rx="28.98" ry="28.98"/>
<text text-anchor="middle" x="665" y="-454.28" font-family="Times,serif" font-size="9.00">1098</text>
</g>
<!-- 831&#45;&gt;1098 -->
<g id="edge75" class="edge">
<title>831&#45;&gt;1098</title>
<path fill="none" stroke="green" stroke-width="0.24" d="M497.17,-538.73C529.74,-522.96 590.88,-493.36 629.68,-474.58"/>
<polygon fill="green" stroke="green" stroke-width="0.24" points="631.56,-477.56 639.04,-470.05 628.51,-471.25 631.56,-477.56"/>
</g>
<!-- 710&#45;&gt;1 -->
<g id="edge13" class="edge">
<title>710&#45;&gt;1</title>
<path fill="none" stroke="red" stroke-width="0.16" d="M621.21,-637.41C580.09,-633.34 496.79,-620.29 441,-579.45 319.27,-490.34 295.9,-441.84 252,-297.5 234.54,-240.1 227.61,-217.33 252,-162.51 261.85,-140.38 283.55,-122.68 300.38,-111.56"/>
<polygon fill="red" stroke="red" stroke-width="0.16" points="302.52,-114.35 309.13,-106.07 298.8,-108.42 302.52,-114.35"/>
</g>
<!-- 710&#45;&gt;2 -->
<g id="edge14" class="edge">
<title>710&#45;&gt;2</title>
<path fill="none" stroke="green" stroke-width="1.14" stroke-dasharray="1,5" d="M642.16,-615.58C637.49,-585.48 629.85,-531.77 627,-485.47 618.46,-346.75 666.6,-183.71 686.6,-122.95"/>
<polygon fill="green" stroke="green" stroke-width="1.14" points="690.02,-123.73 689.88,-113.14 683.39,-121.51 690.02,-123.73"/>
</g>
<!-- 710&#45;&gt;4 -->
<g id="edge15" class="edge">
<title>710&#45;&gt;4</title>
<path fill="none" stroke="green" stroke-width="0.12" stroke-dasharray="1,5" d="M670.91,-637.56C728.61,-633.17 875.31,-618.75 991,-579.45 1195.91,-509.84 1250.6,-464.71 1388,-297.5 1434.99,-240.33 1473.43,-161 1490.88,-122.03"/>
<polygon fill="green" stroke="green" stroke-width="0.12" points="1494.11,-123.38 1494.95,-112.81 1487.71,-120.55 1494.11,-123.38"/>
</g>
<!-- 710&#45;&gt;1324 -->
<g id="edge70" class="edge">
<title>710&#45;&gt;1324</title>
<path fill="none" stroke="green" stroke-width="1.56" stroke-dasharray="1,5" d="M671.01,-637.91C793.02,-631.11 1324.65,-595.43 1439,-485.47 1461.86,-463.49 1472.58,-428.63 1477.61,-401.8"/>
<polygon fill="green" stroke="green" stroke-width="1.56" points="1481.12,-402.03 1479.32,-391.58 1474.21,-400.87 1481.12,-402.03"/>
</g>
<!-- 710&#45;&gt;831 -->
<g id="edge58" class="edge">
<title>710&#45;&gt;831</title>
<path fill="none" stroke="green" stroke-width="0.62" d="M624.34,-628.09C594.36,-612.7 540.04,-584.83 505.83,-567.28"/>
<polygon fill="green" stroke="green" stroke-width="0.62" points="507.25,-564.07 496.75,-562.62 504.05,-570.3 507.25,-564.07"/>
</g>
<!-- 1483 -->
<g id="node21" class="node">
<title>1483</title>
<ellipse fill="white" stroke="black" cx="703" cy="-550.46" rx="28.98" ry="28.98"/>
<text text-anchor="middle" x="703" y="-548.26" font-family="Times,serif" font-size="9.00">1483</text>
</g>
<!-- 710&#45;&gt;1483 -->
<g id="edge76" class="edge">
<title>710&#45;&gt;1483</title>
<path fill="none" stroke="green" stroke-width="0.43" d="M659.22,-618.85C665.98,-608.44 674.37,-595.53 681.99,-583.8"/>
<polygon fill="green" stroke="green" stroke-width="0.43" points="685.12,-585.41 687.63,-575.12 679.25,-581.6 685.12,-585.41"/>
</g>
<!-- 710&#45;&gt;722 -->
<g id="edge63" class="edge">
<title>710&#45;&gt;722</title>
<path fill="none" stroke="green" stroke-width="1.28" stroke-dasharray="1,5" d="M645.16,-615.07C645.33,-590.09 648.58,-550.72 665,-521.47 675.88,-502.09 804.4,-409.79 817,-391.49 834.66,-365.84 845.72,-331.95 852.03,-307.12"/>
<polygon fill="green" stroke="green" stroke-width="1.28" points="855.51,-307.63 854.45,-297.08 848.7,-305.99 855.51,-307.63"/>
</g>
<!-- 711&#45;&gt;0 -->
<g id="edge16" class="edge">
<title>711&#45;&gt;0</title>
<path fill="none" stroke="red" stroke-width="0.37" d="M490.36,-171.36C524.56,-145.87 598.8,-94.15 670,-68.53 773.59,-31.25 905.92,-20.99 961.52,-18.24"/>
<polygon fill="red" stroke="red" stroke-width="0.37" points="961.76,-21.73 971.59,-17.78 961.44,-14.74 961.76,-21.73"/>
</g>
<!-- 711&#45;&gt;1 -->
<g id="edge17" class="edge">
<title>711&#45;&gt;1</title>
<path fill="none" stroke="red" stroke-width="0.17" d="M449.99,-173.38C444.17,-169.84 437.85,-166.01 432,-162.51 402.17,-144.67 367.53,-124.42 345.45,-111.56"/>
<polygon fill="red" stroke="red" stroke-width="0.17" points="347.21,-108.53 336.81,-106.53 343.69,-114.58 347.21,-108.53"/>
</g>
<!-- 711&#45;&gt;2 -->
<g id="edge18" class="edge">
<title>711&#45;&gt;2</title>
<path fill="none" stroke="red" stroke-width="0.34" stroke-dasharray="1,5" d="M491.19,-172.84C497.11,-169.22 503.69,-165.48 510,-162.51 564.85,-136.69 633.09,-115.78 669.42,-105.48"/>
<polygon fill="red" stroke="red" stroke-width="0.34" points="670.52,-108.8 679.21,-102.74 668.64,-102.06 670.52,-108.8"/>
</g>
<!-- 711&#45;&gt;3 -->
<g id="edge19" class="edge">
<title>711&#45;&gt;3</title>
<path fill="none" stroke="green" stroke-width="0.89" stroke-dasharray="1,5" d="M490.83,-171.95C496.74,-168.31 503.41,-164.79 510,-162.51 558.57,-145.71 917.95,-110.6 1018.77,-100.99"/>
<polygon fill="green" stroke="green" stroke-width="0.89" points="1019.11,-104.48 1028.73,-100.05 1018.45,-97.51 1019.11,-104.48"/>
</g>
<!-- 712&#45;&gt;0 -->
<g id="edge20" class="edge">
<title>712&#45;&gt;0</title>
<path fill="none" stroke="red" stroke-width="0.82" d="M1181.17,-164.97C1164.16,-135 1133,-82.45 1116,-68.53 1085.59,-43.62 1041.53,-29.57 1013.84,-22.7"/>
<polygon fill="red" stroke="red" stroke-width="0.82" points="1014.29,-19.21 1003.75,-20.34 1012.69,-26.03 1014.29,-19.21"/>
</g>
<!-- 712&#45;&gt;1 -->
<g id="edge21" class="edge">
<title>712&#45;&gt;1</title>
<path fill="none" stroke="green" stroke-width="0.21" d="M1168.36,-183.77C1043.15,-171.15 478.23,-114.17 349.27,-101.17"/>
<polygon fill="green" stroke="green" stroke-width="0.21" points="349.43,-97.67 339.12,-100.14 348.72,-104.63 349.43,-97.67"/>
</g>
<!-- 712&#45;&gt;2 -->
<g id="edge22" class="edge">
<title>712&#45;&gt;2</title>
<path fill="none" stroke="green" stroke-width="0.46" d="M1168.64,-181.97C1084.75,-167.19 808.15,-118.45 721.32,-103.16"/>
<polygon fill="green" stroke="green" stroke-width="0.46" points="721.71,-99.67 711.25,-101.38 720.49,-106.56 721.71,-99.67"/>
</g>
<!-- 712&#45;&gt;3 -->
<g id="edge23" class="edge">
<title>712&#45;&gt;3</title>
<path fill="none" stroke="green" stroke-width="1.19" stroke-dasharray="1,5" d="M1171.99,-173.38C1166.17,-169.84 1159.85,-166.01 1154,-162.51 1124.17,-144.67 1089.53,-124.42 1067.45,-111.56"/>
<polygon fill="green" stroke="green" stroke-width="1.19" points="1069.21,-108.53 1058.81,-106.53 1065.69,-114.58 1069.21,-108.53"/>
</g>
<!-- 712&#45;&gt;4 -->
<g id="edge24" class="edge">
<title>712&#45;&gt;4</title>
<path fill="none" stroke="red" stroke-width="0.3" d="M1211.76,-170.84C1216.22,-167.72 1221.12,-164.73 1226,-162.51 1270.96,-142.1 1415.46,-114.18 1475,-103.21"/>
<polygon fill="red" stroke="red" stroke-width="0.3" points="1475.87,-106.61 1485.08,-101.37 1474.61,-99.73 1475.87,-106.61"/>
</g>
<!-- 712&#45;&gt;1301 -->
<g id="edge72" class="edge">
<title>712&#45;&gt;1301</title>
<path fill="none" stroke="green" stroke-width="0.52" d="M1194.09,-162.28C1194.46,-154.33 1194.87,-145.28 1195.27,-136.54"/>
<polygon fill="green" stroke="green" stroke-width="0.52" points="1198.76,-136.66 1195.72,-126.51 1191.77,-136.34 1198.76,-136.66"/>
</g>
<!-- 713 -->
<g id="node17" class="node">
<title>713</title>
<ellipse fill="white" stroke="black" cx="357" cy="-272.76" rx="25" ry="25"/>
<text text-anchor="middle" x="357" y="-270.56" font-family="Times,serif" font-size="9.00">713</text>
</g>
<!-- 713&#45;&gt;0 -->
<g id="edge25" class="edge">
<title>713&#45;&gt;0</title>
<path fill="none" stroke="red" stroke-width="0.64" d="M341.43,-253.1C310.55,-213.79 248.63,-121.7 298,-68.53 343.87,-19.12 839.89,-16.94 961.3,-17.16"/>
<polygon fill="red" stroke="red" stroke-width="0.64" points="961.54,-20.66 971.55,-17.18 961.56,-13.66 961.54,-20.66"/>
</g>
<!-- 713&#45;&gt;1 -->
<g id="edge26" class="edge">
<title>713&#45;&gt;1</title>
<path fill="none" stroke="green" stroke-width="0.77" stroke-dasharray="1,5" d="M352.41,-248.39C346.04,-215.89 334.53,-157.26 327.96,-123.78"/>
<polygon fill="green" stroke="green" stroke-width="0.77" points="331.37,-123 326.01,-113.86 324.5,-124.34 331.37,-123"/>
</g>
<!-- 713&#45;&gt;2 -->
<g id="edge27" class="edge">
<title>713&#45;&gt;2</title>
<path fill="none" stroke="green" stroke-width="1.69" stroke-dasharray="1,5" d="M367.23,-249.7C380,-224.69 404.2,-184.51 437,-162.51 510.57,-113.15 618.89,-101.83 668.47,-99.26"/>
<polygon fill="green" stroke="green" stroke-width="1.69" points="668.83,-102.75 678.67,-98.82 668.52,-95.76 668.83,-102.75"/>
</g>
<!-- 713&#45;&gt;3 -->
<g id="edge28" class="edge">
<title>713&#45;&gt;3</title>
<path fill="none" stroke="green" stroke-width="0.1" stroke-dasharray="1,5" d="M381.08,-265.69C486.96,-239.03 910.64,-132.35 1019.43,-104.96"/>
<polygon fill="green" stroke="green" stroke-width="0.1" points="1020.39,-108.32 1029.23,-102.49 1018.68,-101.54 1020.39,-108.32"/>
</g>
<!-- 713&#45;&gt;711 -->
<g id="edge74" class="edge">
<title>713&#45;&gt;711</title>
<path fill="none" stroke="red" stroke-width="0.25" d="M376.6,-257.4C394.95,-243.96 422.56,-223.74 443.19,-208.63"/>
<polygon fill="red" stroke="red" stroke-width="0.25" points="445.28,-211.44 451.28,-202.7 441.14,-205.79 445.28,-211.44"/>
</g>
<!-- 1098&#45;&gt;2 -->
<g id="edge69" class="edge">
<title>1098&#45;&gt;2</title>
<path fill="none" stroke="red" stroke-width="0.83" d="M665.63,-427.35C666.32,-402.61 667.63,-365.63 670,-333.5 675.62,-257.1 686.35,-167.12 691.74,-124.03"/>
<polygon fill="red" stroke="red" stroke-width="0.83" points="695.24,-124.24 693.02,-113.88 688.29,-123.37 695.24,-124.24"/>
</g>
<!-- 1607 -->
<g id="node22" class="node">
<title>1607</title>
<ellipse fill="white" stroke="black" cx="779" cy="-362.5" rx="28.98" ry="28.98"/>
<text text-anchor="middle" x="779" y="-360.3" font-family="Times,serif" font-size="9.00">1607</text>
</g>
<!-- 1098&#45;&gt;1607 -->
<g id="edge84" class="edge">
<title>1098&#45;&gt;1607</title>
<path fill="none" stroke="green" stroke-width="0.3" d="M687.25,-437.53C704.83,-423.34 729.53,-403.41 748.88,-387.8"/>
<polygon fill="green" stroke="green" stroke-width="0.3" points="751.22,-390.41 756.81,-381.4 746.82,-384.96 751.22,-390.41"/>
</g>
<!-- 1098&#45;&gt;722 -->
<g id="edge62" class="edge">
<title>1098&#45;&gt;722</title>
<path fill="none" stroke="green" stroke-width="0.15" stroke-dasharray="1,5" d="M676.15,-429.26C688.67,-402.39 711.18,-360.79 741,-333.5 765.67,-310.92 800.47,-294.69 825.89,-284.9"/>
<polygon fill="green" stroke="green" stroke-width="0.15" points="827.31,-288.11 835.46,-281.34 824.87,-281.54 827.31,-288.11"/>
</g>
<!-- 715&#45;&gt;0 -->
<g id="edge29" class="edge">
<title>715&#45;&gt;0</title>
<path fill="none" stroke="green" stroke-width="1" d="M1105.88,-338.02C1113.33,-285.26 1124.39,-155.2 1070,-68.53 1056.91,-47.67 1031.91,-33.89 1012.94,-25.92"/>
<polygon fill="green" stroke="green" stroke-width="1" points="1013.99,-22.57 1003.4,-22.18 1011.43,-29.09 1013.99,-22.57"/>
</g>
<!-- 715&#45;&gt;2 -->
<g id="edge30" class="edge">
<title>715&#45;&gt;2</title>
<path fill="none" stroke="red" stroke-width="0.3" d="M1084.32,-344.63C1044.9,-307.72 945.72,-218.59 850,-162.51 806.89,-137.26 751.93,-117.11 720.38,-106.56"/>
<polygon fill="red" stroke="red" stroke-width="0.3" points="721.22,-103.16 710.62,-103.36 719.03,-109.81 721.22,-103.16"/>
</g>
<!-- 715&#45;&gt;3 -->
<g id="edge31" class="edge">
<title>715&#45;&gt;3</title>
<path fill="none" stroke="red" stroke-width="0.42" d="M1096.87,-338.1C1094.21,-325.98 1090.92,-310.95 1088,-297.5 1074.4,-234.95 1058.52,-161.31 1050.39,-123.58"/>
<polygon fill="red" stroke="red" stroke-width="0.42" points="1053.75,-122.54 1048.22,-113.5 1046.91,-124.01 1053.75,-122.54"/>
</g>
<!-- 715&#45;&gt;4 -->
<g id="edge32" class="edge">
<title>715&#45;&gt;4</title>
<path fill="none" stroke="red" stroke-width="0.16" stroke-dasharray="1,5" d="M1125.36,-353.96C1156.06,-343.55 1211.1,-323.12 1254,-297.5 1346.89,-242.04 1442.68,-154.51 1482.21,-116.8"/>
<polygon fill="red" stroke="red" stroke-width="0.16" points="1484.77,-119.19 1489.56,-109.74 1479.92,-114.14 1484.77,-119.19"/>
</g>
<!-- 715&#45;&gt;722 -->
<g id="edge65" class="edge">
<title>715&#45;&gt;722</title>
<path fill="none" stroke="red" stroke-width="0.38" d="M1078.7,-353.08C1035.25,-337.39 941.74,-303.63 891.88,-285.63"/>
<polygon fill="red" stroke="red" stroke-width="0.38" points="892.82,-282.25 882.23,-282.14 890.45,-288.83 892.82,-282.25"/>
</g>
<!-- 1524 -->
<g id="node26" class="node">
<title>1524</title>
<ellipse fill="white" stroke="black" cx="1311" cy="-97.52" rx="28.98" ry="28.98"/>
<text text-anchor="middle" x="1311" y="-95.32" font-family="Times,serif" font-size="9.00">1524</text>
</g>
<!-- 715&#45;&gt;1524 -->
<g id="edge86" class="edge">
<title>715&#45;&gt;1524</title>
<path fill="none" stroke="green" stroke-width="0.18" d="M1124.33,-351.27C1165.53,-331.11 1253.07,-282.03 1294,-212.01 1307.25,-189.34 1311.36,-159.92 1312.24,-136.72"/>
<polygon fill="green" stroke="green" stroke-width="0.18" points="1315.74,-136.61 1312.43,-126.55 1308.74,-136.48 1315.74,-136.61"/>
</g>
<!-- 716&#45;&gt;0 -->
<g id="edge33" class="edge">
<title>716&#45;&gt;0</title>
<path fill="none" stroke="green" stroke-width="0.21" stroke-dasharray="1,5" d="M1262,-162.39C1262.83,-135.74 1259.73,-93.14 1235,-68.53 1204.09,-37.76 1071.78,-23.84 1014.55,-19.17"/>
<polygon fill="green" stroke="green" stroke-width="0.21" points="1014.71,-15.67 1004.47,-18.38 1014.16,-22.65 1014.71,-15.67"/>
</g>
<!-- 716&#45;&gt;1 -->
<g id="edge34" class="edge">
<title>716&#45;&gt;1</title>
<path fill="none" stroke="red" stroke-width="0.29" d="M1241.49,-170.23C1237.01,-167.15 1232.05,-164.32 1227,-162.51 1110.24,-120.66 793.71,-135.5 670,-126.51 550.23,-117.81 407.34,-105.75 349.37,-100.79"/>
<polygon fill="red" stroke="red" stroke-width="0.29" points="349.52,-97.29 339.25,-99.92 348.92,-104.26 349.52,-97.29"/>
</g>
<!-- 716&#45;&gt;2 -->
<g id="edge35" class="edge">
<title>716&#45;&gt;2</title>
<path fill="none" stroke="red" stroke-width="0.83" d="M1241.41,-170.44C1236.94,-167.34 1232,-164.46 1227,-162.51 1179.43,-143.96 822.26,-110.17 721.43,-100.92"/>
<polygon fill="red" stroke="red" stroke-width="0.83" points="721.48,-97.41 711.2,-99.98 720.84,-104.38 721.48,-97.41"/>
</g>
<!-- 716&#45;&gt;3 -->
<g id="edge36" class="edge">
<title>716&#45;&gt;3</title>
<path fill="none" stroke="red" stroke-width="0.58" d="M1241.05,-171.23C1236.6,-168.09 1231.76,-164.99 1227,-162.51 1174.03,-134.87 1106.51,-114.68 1070.43,-104.97"/>
<polygon fill="red" stroke="red" stroke-width="0.58" points="1071.28,-101.58 1060.72,-102.41 1069.49,-108.35 1071.28,-101.58"/>
</g>
<!-- 716&#45;&gt;1301 -->
<g id="edge66" class="edge">
<title>716&#45;&gt;1301</title>
<path fill="none" stroke="red" stroke-width="0.39" d="M1246.02,-166.79C1238.24,-155.96 1228.38,-142.22 1219.54,-129.91"/>
<polygon fill="red" stroke="red" stroke-width="0.39" points="1222.3,-127.75 1213.62,-121.67 1216.61,-131.84 1222.3,-127.75"/>
</g>
<!-- 716&#45;&gt;1524 -->
<g id="edge78" class="edge">
<title>716&#45;&gt;1524</title>
<path fill="none" stroke="green" stroke-width="0.5" d="M1272.09,-165.47C1277.94,-155.39 1285.12,-143.04 1291.71,-131.71"/>
<polygon fill="green" stroke="green" stroke-width="0.5" points="1294.83,-133.3 1296.83,-122.9 1288.78,-129.78 1294.83,-133.3"/>
</g>
<!-- 1607&#45;&gt;722 -->
<g id="edge85" class="edge">
<title>1607&#45;&gt;722</title>
<path fill="none" stroke="green" stroke-width="0.15" d="M798.37,-340.26C809.62,-327.91 823.89,-312.27 835.75,-299.26"/>
<polygon fill="green" stroke="green" stroke-width="0.15" points="838.63,-301.3 842.78,-291.55 833.45,-296.58 838.63,-301.3"/>
</g>
<!-- 721&#45;&gt;0 -->
<g id="edge37" class="edge">
<title>721&#45;&gt;0</title>
<path fill="none" stroke="red" stroke-width="0.47" d="M393.13,-723.73C314.43,-719.2 76,-693.73 76,-551.46 76,-551.46 76,-551.46 76,-186.26 76,-96.53 155.58,-98.92 240,-68.53 376.89,-19.25 845.05,-16.94 961.57,-17.15"/>
<polygon fill="red" stroke="red" stroke-width="0.47" points="961.72,-20.65 971.73,-17.18 961.74,-13.65 961.72,-20.65"/>
</g>
<!-- 721&#45;&gt;1 -->
<g id="edge38" class="edge">
<title>721&#45;&gt;1</title>
<path fill="none" stroke="green" stroke-width="0.86" d="M393.45,-720.8C327.6,-708.81 152,-666.09 152,-551.46 152,-551.46 152,-551.46 152,-361.5 152,-266.01 173.73,-237.37 233,-162.51 251.1,-139.65 279.47,-121.36 299.51,-110.28"/>
<polygon fill="green" stroke="green" stroke-width="0.86" points="301.42,-113.23 308.6,-105.44 298.12,-107.06 301.42,-113.23"/>
</g>
<!-- 721&#45;&gt;2 -->
<g id="edge39" class="edge">
<title>721&#45;&gt;2</title>
<path fill="none" stroke="green" stroke-width="0.42" stroke-dasharray="1,5" d="M418.75,-700.89C420.38,-662.58 425.48,-585.12 441,-521.47 481.97,-353.49 475.28,-290.99 591,-162.51 613.37,-137.67 647.63,-119.16 670.66,-108.6"/>
<polygon fill="green" stroke="green" stroke-width="0.42" points="672.33,-111.68 680.06,-104.44 669.5,-105.28 672.33,-111.68"/>
</g>
<!-- 721&#45;&gt;4 -->
<g id="edge40" class="edge">
<title>721&#45;&gt;4</title>
<path fill="none" stroke="green" stroke-width="1.27" d="M442.93,-723.68C549.17,-718.72 973.54,-692.46 1299,-579.45 1380.56,-551.13 1408.19,-546.76 1469,-485.47 1567.92,-385.77 1527.02,-192.04 1508.37,-123.38"/>
<polygon fill="green" stroke="green" stroke-width="1.27" points="1511.66,-122.15 1505.59,-113.47 1504.92,-124.04 1511.66,-122.15"/>
</g>
<!-- 721&#45;&gt;710 -->
<g id="edge64" class="edge">
<title>721&#45;&gt;710</title>
<path fill="none" stroke="red" stroke-width="0.51" d="M441.12,-716.23C481.83,-701.32 566.42,-670.34 613.17,-653.22"/>
<polygon fill="red" stroke="red" stroke-width="0.51" points="614.64,-656.42 622.82,-649.69 612.23,-649.84 614.64,-656.42"/>
</g>
<!-- 721&#45;&gt;713 -->
<g id="edge73" class="edge">
<title>721&#45;&gt;713</title>
<path fill="none" stroke="red" stroke-width="0.49" d="M406.96,-703.36C386.47,-662.43 343.29,-569.51 328,-485.47 323.39,-460.12 325.6,-453.15 328,-427.49 331.93,-385.46 341.78,-337.79 348.91,-306.83"/>
<polygon fill="red" stroke="red" stroke-width="0.49" points="352.34,-307.54 351.21,-297 345.52,-305.94 352.34,-307.54"/>
</g>
<!-- 722&#45;&gt;0 -->
<g id="edge41" class="edge">
<title>722&#45;&gt;0</title>
<path fill="none" stroke="green" stroke-width="0.89" d="M870,-250.06C894.17,-202.38 951.72,-88.85 976.41,-40.12"/>
<polygon fill="green" stroke="green" stroke-width="0.89" points="979.63,-41.52 981.03,-31.01 973.39,-38.35 979.63,-41.52"/>
</g>
<!-- 722&#45;&gt;1 -->
<g id="edge42" class="edge">
<title>722&#45;&gt;1</title>
<path fill="none" stroke="green" stroke-width="0.39" stroke-dasharray="1,5" d="M834.1,-270.29C754.57,-265.29 507.79,-247.25 437,-212.01 393.65,-190.43 356.72,-146.01 337.41,-119.6"/>
<polygon fill="green" stroke="green" stroke-width="0.39" points="340.21,-117.5 331.55,-111.39 334.51,-121.56 340.21,-117.5"/>
</g>
<!-- 722&#45;&gt;2 -->
<g id="edge43" class="edge">
<title>722&#45;&gt;2</title>
<path fill="none" stroke="red" stroke-width="0.25" stroke-dasharray="1,5" d="M842.37,-254.19C811.31,-221.38 744.74,-151.06 712.81,-117.33"/>
<polygon fill="red" stroke="red" stroke-width="0.25" points="715.25,-114.81 705.83,-109.96 710.16,-119.63 715.25,-114.81"/>
</g>
<!-- 722&#45;&gt;3 -->
<g id="edge44" class="edge">
<title>722&#45;&gt;3</title>
<path fill="none" stroke="green" stroke-width="0.55" d="M876.83,-255.15C912,-222.39 989.99,-149.75 1026.05,-116.17"/>
<polygon fill="green" stroke="green" stroke-width="0.55" points="1028.54,-118.63 1033.47,-109.26 1023.77,-113.51 1028.54,-118.63"/>
</g>
<!-- 722&#45;&gt;4 -->
<g id="edge45" class="edge">
<title>722&#45;&gt;4</title>
<path fill="none" stroke="red" stroke-width="0.47" d="M883.88,-271.86C951.76,-271.39 1145.01,-265.13 1294,-212.01 1333.74,-197.84 1338.16,-183.08 1375,-162.51 1409.99,-142.98 1451.61,-122.32 1477.17,-109.93"/>
<polygon fill="red" stroke="red" stroke-width="0.47" points="1478.96,-112.95 1486.45,-105.45 1475.92,-106.64 1478.96,-112.95"/>
</g>
<!-- 722&#45;&gt;712 -->
<g id="edge59" class="edge">
<title>722&#45;&gt;712</title>
<path fill="none" stroke="red" stroke-width="0.39" d="M883.02,-265.75C941.52,-251.13 1091.5,-213.63 1159.08,-196.74"/>
<polygon fill="red" stroke="red" stroke-width="0.39" points="1160.34,-200.03 1169.2,-194.21 1158.65,-193.24 1160.34,-200.03"/>
</g>
<!-- 997 -->
<g id="node25" class="node">
<title>997</title>
<ellipse fill="white" stroke="black" cx="1630" cy="-187.26" rx="25" ry="25"/>
<text text-anchor="middle" x="1630" y="-185.06" font-family="Times,serif" font-size="9.00">997</text>
</g>
<!-- 997&#45;&gt;4 -->
<g id="edge60" class="edge">
<title>997&#45;&gt;4</title>
<path fill="none" stroke="red" stroke-width="0.12" stroke-dasharray="1,5" d="M1609.84,-172.55C1586.22,-156.48 1547.21,-129.95 1522.87,-113.39"/>
<polygon fill="red" stroke="red" stroke-width="0.12" points="1524.56,-110.31 1514.32,-107.58 1520.62,-116.1 1524.56,-110.31"/>
</g>
<!-- 1524&#45;&gt;0 -->
<g id="edge79" class="edge">
<title>1524&#45;&gt;0</title>
<path fill="none" stroke="green" stroke-width="0.19" d="M1288.26,-79.34C1281.97,-75.26 1274.95,-71.3 1268,-68.53 1179.46,-33.26 1065.42,-22.04 1014.55,-18.64"/>
<polygon fill="green" stroke="green" stroke-width="0.19" points="1014.6,-15.14 1004.4,-18.02 1014.17,-22.13 1014.6,-15.14"/>
</g>
</g>
</svg>
