<?xml version="1.0" encoding="utf-8" standalone="no"?>
<!DOCTYPE svg PUBLIC "-//W3C//DTD SVG 1.1//EN"
  "http://www.w3.org/Graphics/SVG/1.1/DTD/svg11.dtd">
<svg xmlns:xlink="http://www.w3.org/1999/xlink" width="460.8pt" height="345.6pt" viewBox="0 0 460.8 345.6" xmlns="http://www.w3.org/2000/svg" version="1.1">
 <metadata>
  <rdf:RDF xmlns:dc="http://purl.org/dc/elements/1.1/" xmlns:cc="http://creativecommons.org/ns#" xmlns:rdf="http://www.w3.org/1999/02/22-rdf-syntax-ns#">
   <cc:Work>
    <dc:type rdf:resource="http://purl.org/dc/dcmitype/StillImage"/>
    <dc:date>2023-06-29T16:05:20.414864</dc:date>
    <dc:format>image/svg+xml</dc:format>
    <dc:creator>
     <cc:Agent>
      <dc:title>Matplotlib v3.7.1, https://matplotlib.org/</dc:title>
     </cc:Agent>
    </dc:creator>
   </cc:Work>
  </rdf:RDF>
 </metadata>
 <defs>
  <style type="text/css">*{stroke-linejoin: round; stroke-linecap: butt}</style>
 </defs>
 <g id="figure_1">
  <g id="patch_1">
   <path d="M 0 345.6 
L 460.8 345.6 
L 460.8 0 
L 0 0 
z
" style="fill: #ffffff"/>
  </g>
  <g id="axes_1">
   <g id="patch_2">
    <path d="M 57.6 307.584 
L 414.72 307.584 
L 414.72 41.472 
L 57.6 41.472 
z
" style="fill: #ffffff"/>
   </g>
   <g id="matplotlib.axis_1">
    <g id="xtick_1">
     <g id="line2d_1">
      <path d="M 73.832727 307.584 
L 73.832727 41.472 
" clip-path="url(#p74eb21455c)" style="fill: none; stroke: #b0b0b0; stroke-width: 0.8; stroke-linecap: square"/>
     </g>
     <g id="line2d_2">
      <defs>
       <path id="mac094302e5" d="M 0 0 
L 0 3.5 
" style="stroke: #000000; stroke-width: 0.8"/>
      </defs>
      <g>
       <use xlink:href="#mac094302e5" x="73.832727" y="307.584" style="stroke: #000000; stroke-width: 0.8"/>
      </g>
     </g>
     <g id="text_1">
      <!-- 0 -->
      <g transform="translate(70.651477 322.182437) scale(0.1 -0.1)">
       <defs>
        <path id="DejaVuSans-30" d="M 2034 4250 
Q 1547 4250 1301 3770 
Q 1056 3291 1056 2328 
Q 1056 1369 1301 889 
Q 1547 409 2034 409 
Q 2525 409 2770 889 
Q 3016 1369 3016 2328 
Q 3016 3291 2770 3770 
Q 2525 4250 2034 4250 
z
M 2034 4750 
Q 2819 4750 3233 4129 
Q 3647 3509 3647 2328 
Q 3647 1150 3233 529 
Q 2819 -91 2034 -91 
Q 1250 -91 836 529 
Q 422 1150 422 2328 
Q 422 3509 836 4129 
Q 1250 4750 2034 4750 
z
" transform="scale(0.015625)"/>
       </defs>
       <use xlink:href="#DejaVuSans-30"/>
      </g>
     </g>
    </g>
    <g id="xtick_2">
     <g id="line2d_3">
      <path d="M 117.410519 307.584 
L 117.410519 41.472 
" clip-path="url(#p74eb21455c)" style="fill: none; stroke: #b0b0b0; stroke-width: 0.8; stroke-linecap: square"/>
     </g>
     <g id="line2d_4">
      <g>
       <use xlink:href="#mac094302e5" x="117.410519" y="307.584" style="stroke: #000000; stroke-width: 0.8"/>
      </g>
     </g>
     <g id="text_2">
      <!-- 20 -->
      <g transform="translate(111.048019 322.182437) scale(0.1 -0.1)">
       <defs>
        <path id="DejaVuSans-32" d="M 1228 531 
L 3431 531 
L 3431 0 
L 469 0 
L 469 531 
Q 828 903 1448 1529 
Q 2069 2156 2228 2338 
Q 2531 2678 2651 2914 
Q 2772 3150 2772 3378 
Q 2772 3750 2511 3984 
Q 2250 4219 1831 4219 
Q 1534 4219 1204 4116 
Q 875 4013 500 3803 
L 500 4441 
Q 881 4594 1212 4672 
Q 1544 4750 1819 4750 
Q 2544 4750 2975 4387 
Q 3406 4025 3406 3419 
Q 3406 3131 3298 2873 
Q 3191 2616 2906 2266 
Q 2828 2175 2409 1742 
Q 1991 1309 1228 531 
z
" transform="scale(0.015625)"/>
       </defs>
       <use xlink:href="#DejaVuSans-32"/>
       <use xlink:href="#DejaVuSans-30" x="63.623047"/>
      </g>
     </g>
    </g>
    <g id="xtick_3">
     <g id="line2d_5">
      <path d="M 160.98831 307.584 
L 160.98831 41.472 
" clip-path="url(#p74eb21455c)" style="fill: none; stroke: #b0b0b0; stroke-width: 0.8; stroke-linecap: square"/>
     </g>
     <g id="line2d_6">
      <g>
       <use xlink:href="#mac094302e5" x="160.98831" y="307.584" style="stroke: #000000; stroke-width: 0.8"/>
      </g>
     </g>
     <g id="text_3">
      <!-- 40 -->
      <g transform="translate(154.62581 322.182437) scale(0.1 -0.1)">
       <defs>
        <path id="DejaVuSans-34" d="M 2419 4116 
L 825 1625 
L 2419 1625 
L 2419 4116 
z
M 2253 4666 
L 3047 4666 
L 3047 1625 
L 3713 1625 
L 3713 1100 
L 3047 1100 
L 3047 0 
L 2419 0 
L 2419 1100 
L 313 1100 
L 313 1709 
L 2253 4666 
z
" transform="scale(0.015625)"/>
       </defs>
       <use xlink:href="#DejaVuSans-34"/>
       <use xlink:href="#DejaVuSans-30" x="63.623047"/>
      </g>
     </g>
    </g>
    <g id="xtick_4">
     <g id="line2d_7">
      <path d="M 204.566101 307.584 
L 204.566101 41.472 
" clip-path="url(#p74eb21455c)" style="fill: none; stroke: #b0b0b0; stroke-width: 0.8; stroke-linecap: square"/>
     </g>
     <g id="line2d_8">
      <g>
       <use xlink:href="#mac094302e5" x="204.566101" y="307.584" style="stroke: #000000; stroke-width: 0.8"/>
      </g>
     </g>
     <g id="text_4">
      <!-- 60 -->
      <g transform="translate(198.203601 322.182437) scale(0.1 -0.1)">
       <defs>
        <path id="DejaVuSans-36" d="M 2113 2584 
Q 1688 2584 1439 2293 
Q 1191 2003 1191 1497 
Q 1191 994 1439 701 
Q 1688 409 2113 409 
Q 2538 409 2786 701 
Q 3034 994 3034 1497 
Q 3034 2003 2786 2293 
Q 2538 2584 2113 2584 
z
M 3366 4563 
L 3366 3988 
Q 3128 4100 2886 4159 
Q 2644 4219 2406 4219 
Q 1781 4219 1451 3797 
Q 1122 3375 1075 2522 
Q 1259 2794 1537 2939 
Q 1816 3084 2150 3084 
Q 2853 3084 3261 2657 
Q 3669 2231 3669 1497 
Q 3669 778 3244 343 
Q 2819 -91 2113 -91 
Q 1303 -91 875 529 
Q 447 1150 447 2328 
Q 447 3434 972 4092 
Q 1497 4750 2381 4750 
Q 2619 4750 2861 4703 
Q 3103 4656 3366 4563 
z
" transform="scale(0.015625)"/>
       </defs>
       <use xlink:href="#DejaVuSans-36"/>
       <use xlink:href="#DejaVuSans-30" x="63.623047"/>
      </g>
     </g>
    </g>
    <g id="xtick_5">
     <g id="line2d_9">
      <path d="M 248.143893 307.584 
L 248.143893 41.472 
" clip-path="url(#p74eb21455c)" style="fill: none; stroke: #b0b0b0; stroke-width: 0.8; stroke-linecap: square"/>
     </g>
     <g id="line2d_10">
      <g>
       <use xlink:href="#mac094302e5" x="248.143893" y="307.584" style="stroke: #000000; stroke-width: 0.8"/>
      </g>
     </g>
     <g id="text_5">
      <!-- 80 -->
      <g transform="translate(241.781393 322.182437) scale(0.1 -0.1)">
       <defs>
        <path id="DejaVuSans-38" d="M 2034 2216 
Q 1584 2216 1326 1975 
Q 1069 1734 1069 1313 
Q 1069 891 1326 650 
Q 1584 409 2034 409 
Q 2484 409 2743 651 
Q 3003 894 3003 1313 
Q 3003 1734 2745 1975 
Q 2488 2216 2034 2216 
z
M 1403 2484 
Q 997 2584 770 2862 
Q 544 3141 544 3541 
Q 544 4100 942 4425 
Q 1341 4750 2034 4750 
Q 2731 4750 3128 4425 
Q 3525 4100 3525 3541 
Q 3525 3141 3298 2862 
Q 3072 2584 2669 2484 
Q 3125 2378 3379 2068 
Q 3634 1759 3634 1313 
Q 3634 634 3220 271 
Q 2806 -91 2034 -91 
Q 1263 -91 848 271 
Q 434 634 434 1313 
Q 434 1759 690 2068 
Q 947 2378 1403 2484 
z
M 1172 3481 
Q 1172 3119 1398 2916 
Q 1625 2713 2034 2713 
Q 2441 2713 2670 2916 
Q 2900 3119 2900 3481 
Q 2900 3844 2670 4047 
Q 2441 4250 2034 4250 
Q 1625 4250 1398 4047 
Q 1172 3844 1172 3481 
z
" transform="scale(0.015625)"/>
       </defs>
       <use xlink:href="#DejaVuSans-38"/>
       <use xlink:href="#DejaVuSans-30" x="63.623047"/>
      </g>
     </g>
    </g>
    <g id="xtick_6">
     <g id="line2d_11">
      <path d="M 291.721684 307.584 
L 291.721684 41.472 
" clip-path="url(#p74eb21455c)" style="fill: none; stroke: #b0b0b0; stroke-width: 0.8; stroke-linecap: square"/>
     </g>
     <g id="line2d_12">
      <g>
       <use xlink:href="#mac094302e5" x="291.721684" y="307.584" style="stroke: #000000; stroke-width: 0.8"/>
      </g>
     </g>
     <g id="text_6">
      <!-- 100 -->
      <g transform="translate(282.177934 322.182437) scale(0.1 -0.1)">
       <defs>
        <path id="DejaVuSans-31" d="M 794 531 
L 1825 531 
L 1825 4091 
L 703 3866 
L 703 4441 
L 1819 4666 
L 2450 4666 
L 2450 531 
L 3481 531 
L 3481 0 
L 794 0 
L 794 531 
z
" transform="scale(0.015625)"/>
       </defs>
       <use xlink:href="#DejaVuSans-31"/>
       <use xlink:href="#DejaVuSans-30" x="63.623047"/>
       <use xlink:href="#DejaVuSans-30" x="127.246094"/>
      </g>
     </g>
    </g>
    <g id="xtick_7">
     <g id="line2d_13">
      <path d="M 335.299475 307.584 
L 335.299475 41.472 
" clip-path="url(#p74eb21455c)" style="fill: none; stroke: #b0b0b0; stroke-width: 0.8; stroke-linecap: square"/>
     </g>
     <g id="line2d_14">
      <g>
       <use xlink:href="#mac094302e5" x="335.299475" y="307.584" style="stroke: #000000; stroke-width: 0.8"/>
      </g>
     </g>
     <g id="text_7">
      <!-- 120 -->
      <g transform="translate(325.755725 322.182437) scale(0.1 -0.1)">
       <use xlink:href="#DejaVuSans-31"/>
       <use xlink:href="#DejaVuSans-32" x="63.623047"/>
       <use xlink:href="#DejaVuSans-30" x="127.246094"/>
      </g>
     </g>
    </g>
    <g id="xtick_8">
     <g id="line2d_15">
      <path d="M 378.877267 307.584 
L 378.877267 41.472 
" clip-path="url(#p74eb21455c)" style="fill: none; stroke: #b0b0b0; stroke-width: 0.8; stroke-linecap: square"/>
     </g>
     <g id="line2d_16">
      <g>
       <use xlink:href="#mac094302e5" x="378.877267" y="307.584" style="stroke: #000000; stroke-width: 0.8"/>
      </g>
     </g>
     <g id="text_8">
      <!-- 140 -->
      <g transform="translate(369.333517 322.182437) scale(0.1 -0.1)">
       <use xlink:href="#DejaVuSans-31"/>
       <use xlink:href="#DejaVuSans-34" x="63.623047"/>
       <use xlink:href="#DejaVuSans-30" x="127.246094"/>
      </g>
     </g>
    </g>
   </g>
   <g id="matplotlib.axis_2">
    <g id="ytick_1">
     <g id="line2d_17">
      <path d="M 57.6 301.26409 
L 414.72 301.26409 
" clip-path="url(#p74eb21455c)" style="fill: none; stroke: #b0b0b0; stroke-width: 0.8; stroke-linecap: square"/>
     </g>
     <g id="line2d_18">
      <defs>
       <path id="m08a3eb35f9" d="M 0 0 
L -3.5 0 
" style="stroke: #000000; stroke-width: 0.8"/>
      </defs>
      <g>
       <use xlink:href="#m08a3eb35f9" x="57.6" y="301.26409" style="stroke: #000000; stroke-width: 0.8"/>
      </g>
     </g>
     <g id="text_9">
      <!-- 0 -->
      <g transform="translate(44.2375 305.063309) scale(0.1 -0.1)">
       <use xlink:href="#DejaVuSans-30"/>
      </g>
     </g>
    </g>
    <g id="ytick_2">
     <g id="line2d_19">
      <path d="M 57.6 270.302079 
L 414.72 270.302079 
" clip-path="url(#p74eb21455c)" style="fill: none; stroke: #b0b0b0; stroke-width: 0.8; stroke-linecap: square"/>
     </g>
     <g id="line2d_20">
      <g>
       <use xlink:href="#m08a3eb35f9" x="57.6" y="270.302079" style="stroke: #000000; stroke-width: 0.8"/>
      </g>
     </g>
     <g id="text_10">
      <!-- 5 -->
      <g transform="translate(44.2375 274.101297) scale(0.1 -0.1)">
       <defs>
        <path id="DejaVuSans-35" d="M 691 4666 
L 3169 4666 
L 3169 4134 
L 1269 4134 
L 1269 2991 
Q 1406 3038 1543 3061 
Q 1681 3084 1819 3084 
Q 2600 3084 3056 2656 
Q 3513 2228 3513 1497 
Q 3513 744 3044 326 
Q 2575 -91 1722 -91 
Q 1428 -91 1123 -41 
Q 819 9 494 109 
L 494 744 
Q 775 591 1075 516 
Q 1375 441 1709 441 
Q 2250 441 2565 725 
Q 2881 1009 2881 1497 
Q 2881 1984 2565 2268 
Q 2250 2553 1709 2553 
Q 1456 2553 1204 2497 
Q 953 2441 691 2322 
L 691 4666 
z
" transform="scale(0.015625)"/>
       </defs>
       <use xlink:href="#DejaVuSans-35"/>
      </g>
     </g>
    </g>
    <g id="ytick_3">
     <g id="line2d_21">
      <path d="M 57.6 239.340067 
L 414.72 239.340067 
" clip-path="url(#p74eb21455c)" style="fill: none; stroke: #b0b0b0; stroke-width: 0.8; stroke-linecap: square"/>
     </g>
     <g id="line2d_22">
      <g>
       <use xlink:href="#m08a3eb35f9" x="57.6" y="239.340067" style="stroke: #000000; stroke-width: 0.8"/>
      </g>
     </g>
     <g id="text_11">
      <!-- 10 -->
      <g transform="translate(37.875 243.139286) scale(0.1 -0.1)">
       <use xlink:href="#DejaVuSans-31"/>
       <use xlink:href="#DejaVuSans-30" x="63.623047"/>
      </g>
     </g>
    </g>
    <g id="ytick_4">
     <g id="line2d_23">
      <path d="M 57.6 208.378056 
L 414.72 208.378056 
" clip-path="url(#p74eb21455c)" style="fill: none; stroke: #b0b0b0; stroke-width: 0.8; stroke-linecap: square"/>
     </g>
     <g id="line2d_24">
      <g>
       <use xlink:href="#m08a3eb35f9" x="57.6" y="208.378056" style="stroke: #000000; stroke-width: 0.8"/>
      </g>
     </g>
     <g id="text_12">
      <!-- 15 -->
      <g transform="translate(37.875 212.177275) scale(0.1 -0.1)">
       <use xlink:href="#DejaVuSans-31"/>
       <use xlink:href="#DejaVuSans-35" x="63.623047"/>
      </g>
     </g>
    </g>
    <g id="ytick_5">
     <g id="line2d_25">
      <path d="M 57.6 177.416045 
L 414.72 177.416045 
" clip-path="url(#p74eb21455c)" style="fill: none; stroke: #b0b0b0; stroke-width: 0.8; stroke-linecap: square"/>
     </g>
     <g id="line2d_26">
      <g>
       <use xlink:href="#m08a3eb35f9" x="57.6" y="177.416045" style="stroke: #000000; stroke-width: 0.8"/>
      </g>
     </g>
     <g id="text_13">
      <!-- 20 -->
      <g transform="translate(37.875 181.215264) scale(0.1 -0.1)">
       <use xlink:href="#DejaVuSans-32"/>
       <use xlink:href="#DejaVuSans-30" x="63.623047"/>
      </g>
     </g>
    </g>
    <g id="ytick_6">
     <g id="line2d_27">
      <path d="M 57.6 146.454034 
L 414.72 146.454034 
" clip-path="url(#p74eb21455c)" style="fill: none; stroke: #b0b0b0; stroke-width: 0.8; stroke-linecap: square"/>
     </g>
     <g id="line2d_28">
      <g>
       <use xlink:href="#m08a3eb35f9" x="57.6" y="146.454034" style="stroke: #000000; stroke-width: 0.8"/>
      </g>
     </g>
     <g id="text_14">
      <!-- 25 -->
      <g transform="translate(37.875 150.253252) scale(0.1 -0.1)">
       <use xlink:href="#DejaVuSans-32"/>
       <use xlink:href="#DejaVuSans-35" x="63.623047"/>
      </g>
     </g>
    </g>
    <g id="ytick_7">
     <g id="line2d_29">
      <path d="M 57.6 115.492022 
L 414.72 115.492022 
" clip-path="url(#p74eb21455c)" style="fill: none; stroke: #b0b0b0; stroke-width: 0.8; stroke-linecap: square"/>
     </g>
     <g id="line2d_30">
      <g>
       <use xlink:href="#m08a3eb35f9" x="57.6" y="115.492022" style="stroke: #000000; stroke-width: 0.8"/>
      </g>
     </g>
     <g id="text_15">
      <!-- 30 -->
      <g transform="translate(37.875 119.291241) scale(0.1 -0.1)">
       <defs>
        <path id="DejaVuSans-33" d="M 2597 2516 
Q 3050 2419 3304 2112 
Q 3559 1806 3559 1356 
Q 3559 666 3084 287 
Q 2609 -91 1734 -91 
Q 1441 -91 1130 -33 
Q 819 25 488 141 
L 488 750 
Q 750 597 1062 519 
Q 1375 441 1716 441 
Q 2309 441 2620 675 
Q 2931 909 2931 1356 
Q 2931 1769 2642 2001 
Q 2353 2234 1838 2234 
L 1294 2234 
L 1294 2753 
L 1863 2753 
Q 2328 2753 2575 2939 
Q 2822 3125 2822 3475 
Q 2822 3834 2567 4026 
Q 2313 4219 1838 4219 
Q 1578 4219 1281 4162 
Q 984 4106 628 3988 
L 628 4550 
Q 988 4650 1302 4700 
Q 1616 4750 1894 4750 
Q 2613 4750 3031 4423 
Q 3450 4097 3450 3541 
Q 3450 3153 3228 2886 
Q 3006 2619 2597 2516 
z
" transform="scale(0.015625)"/>
       </defs>
       <use xlink:href="#DejaVuSans-33"/>
       <use xlink:href="#DejaVuSans-30" x="63.623047"/>
      </g>
     </g>
    </g>
    <g id="ytick_8">
     <g id="line2d_31">
      <path d="M 57.6 84.530011 
L 414.72 84.530011 
" clip-path="url(#p74eb21455c)" style="fill: none; stroke: #b0b0b0; stroke-width: 0.8; stroke-linecap: square"/>
     </g>
     <g id="line2d_32">
      <g>
       <use xlink:href="#m08a3eb35f9" x="57.6" y="84.530011" style="stroke: #000000; stroke-width: 0.8"/>
      </g>
     </g>
     <g id="text_16">
      <!-- 35 -->
      <g transform="translate(37.875 88.32923) scale(0.1 -0.1)">
       <use xlink:href="#DejaVuSans-33"/>
       <use xlink:href="#DejaVuSans-35" x="63.623047"/>
      </g>
     </g>
    </g>
    <g id="ytick_9">
     <g id="line2d_33">
      <path d="M 57.6 53.568 
L 414.72 53.568 
" clip-path="url(#p74eb21455c)" style="fill: none; stroke: #b0b0b0; stroke-width: 0.8; stroke-linecap: square"/>
     </g>
     <g id="line2d_34">
      <g>
       <use xlink:href="#m08a3eb35f9" x="57.6" y="53.568" style="stroke: #000000; stroke-width: 0.8"/>
      </g>
     </g>
     <g id="text_17">
      <!-- 40 -->
      <g transform="translate(37.875 57.367219) scale(0.1 -0.1)">
       <use xlink:href="#DejaVuSans-34"/>
       <use xlink:href="#DejaVuSans-30" x="63.623047"/>
      </g>
     </g>
    </g>
   </g>
   <g id="line2d_35">
    <path d="M 73.832727 262.599464 
L 76.011617 239.340063 
L 78.190506 238.056634 
L 80.369396 254.654908 
L 82.548286 227.569457 
L 84.727175 253.385461 
L 86.906065 289.974492 
L 89.084954 281.403864 
L 91.263844 276.494481 
L 93.442733 275.815718 
L 95.621623 279.283516 
L 97.800513 254.211115 
L 99.979402 221.499063 
L 102.158292 286.151759 
L 104.337181 195.051007 
L 106.516071 177.27394 
L 108.69496 215.305341 
L 110.87385 265.91136 
L 113.052739 289.044491 
L 115.231629 230.925917 
L 117.410519 194.753922 
L 119.589408 222.171517 
L 121.768298 289.870145 
L 123.947187 295.488 
L 126.126077 259.876365 
L 128.304966 206.204088 
L 130.483856 290.127048 
L 132.662746 123.323382 
L 134.841635 235.539775 
L 137.020525 239.48194 
L 139.199414 247.379033 
L 141.378304 265.113162 
L 143.557193 286.402324 
L 145.736083 242.407674 
L 147.914973 289.704939 
L 150.093862 254.201977 
L 152.272752 183.21213 
L 154.451641 173.052808 
L 156.630531 246.532804 
L 158.80942 266.595919 
L 160.98831 260.531844 
L 163.1672 286.144048 
L 165.346089 278.685031 
L 167.524979 132.399578 
L 169.703868 181.867627 
L 171.882758 129.229632 
L 174.061647 122.815341 
L 176.240537 206.637236 
L 178.419426 97.336924 
L 180.598316 259.610403 
L 182.777206 243.696546 
L 184.956095 251.607455 
L 187.134985 255.185287 
L 189.313874 209.925576 
L 191.492764 294.530284 
L 193.671653 259.155755 
L 195.850543 242.505677 
L 198.029433 234.556321 
L 200.208322 121.524453 
L 202.387212 278.315819 
L 204.566101 255.924425 
L 206.744991 220.781424 
L 208.92388 243.181918 
L 211.10277 291.238748 
L 213.28166 199.27371 
L 215.460549 222.684889 
L 217.639439 280.904378 
L 219.818328 130.912722 
L 221.997218 281.066792 
L 224.176107 120.715259 
L 226.354997 245.532611 
L 228.533887 119.450115 
L 230.712776 245.100599 
L 232.891666 149.314765 
L 235.070555 275.61881 
L 237.249445 263.704261 
L 239.428334 276.373752 
L 241.607224 271.71071 
L 243.786113 288.769273 
L 245.965003 256.353577 
L 248.143893 279.960964 
L 250.322782 209.084657 
L 252.501672 293.998413 
L 254.680561 130.828488 
L 256.859451 272.531419 
L 259.03834 247.595754 
L 261.21723 224.65776 
L 263.39612 258.930001 
L 265.575009 110.10778 
L 267.753899 248.431468 
L 269.932788 276.228474 
L 272.111678 286.284907 
L 274.290567 217.460246 
L 276.469457 274.60826 
L 278.648347 166.603584 
L 280.827236 253.798288 
L 283.006126 291.238748 
L 285.185015 194.673924 
L 287.363905 142.771158 
L 289.542794 288.287811 
L 291.721684 260.572092 
L 293.900574 177.999047 
L 296.079463 276.039316 
L 298.258353 266.346938 
L 300.437242 224.947249 
L 302.616132 272.236149 
L 304.795021 270.617517 
L 306.973911 290.426854 
L 309.1528 231.354253 
L 311.33169 226.573652 
L 313.51058 228.659184 
L 315.689469 290.004809 
L 317.868359 229.554208 
L 320.047248 165.252638 
L 322.226138 270.884936 
L 324.405027 224.316554 
L 326.583917 273.349667 
L 328.762807 236.193626 
L 330.941696 226.454331 
L 333.120586 115.136385 
L 335.299475 254.125879 
L 337.478365 214.68972 
L 339.657254 194.105253 
L 341.836144 284.734397 
L 344.015034 196.033501 
L 346.193923 214.749915 
L 348.372813 199.03759 
L 350.551702 99.853111 
L 352.730592 225.826795 
L 354.909481 290.539804 
L 357.088371 280.372246 
L 359.267261 121.101422 
L 361.44615 127.627688 
L 363.62504 262.608398 
L 365.803929 135.720536 
L 367.982819 133.082682 
L 370.161708 141.794046 
L 372.340598 118.486853 
L 374.519487 259.856567 
L 376.698377 213.651704 
L 378.877267 102.745216 
L 381.056156 278.315819 
L 383.235046 270.855681 
L 385.413935 288.631664 
L 387.592825 116.019199 
L 389.771714 266.214034 
L 391.950604 291.218637 
L 394.129494 114.252192 
L 396.308383 286.283094 
L 398.487273 120.287507 
L 398.487273 120.287507 
" clip-path="url(#p74eb21455c)" style="fill: none; stroke: #008000; stroke-width: 1.5; stroke-linecap: square"/>
   </g>
   <g id="line2d_36">
    <path d="M 73.832727 251.724872 
L 76.011617 214.570458 
L 78.190506 226.955263 
L 80.369396 245.53247 
L 82.548286 214.570458 
L 84.727175 239.340067 
L 86.906065 282.686883 
L 89.084954 270.302079 
L 91.263844 264.109676 
L 93.442733 264.109676 
L 95.621623 270.302079 
L 97.800513 239.340067 
L 99.979402 195.993252 
L 102.158292 276.494481 
L 104.337181 158.838838 
L 106.516071 171.223643 
L 108.69496 208.378056 
L 110.87385 251.724872 
L 113.052739 282.686883 
L 115.231629 195.993252 
L 117.410519 146.454034 
L 121.768298 282.686883 
L 123.947187 288.879285 
L 126.126077 251.724872 
L 128.304966 177.416045 
L 130.483856 282.686883 
L 132.662746 53.568 
L 134.841635 226.955263 
L 137.020525 220.762861 
L 139.199414 226.955263 
L 141.378304 257.917274 
L 143.557193 276.494481 
L 145.736083 233.147665 
L 147.914973 282.686883 
L 150.093862 239.340067 
L 152.272752 140.261631 
L 154.451641 165.03124 
L 156.630531 226.955263 
L 158.80942 251.724872 
L 160.98831 245.53247 
L 163.1672 276.494481 
L 165.346089 270.302079 
L 167.524979 53.568 
L 169.703868 146.454034 
L 171.882758 53.568 
L 174.061647 53.568 
L 176.240537 177.416045 
L 178.419426 53.568 
L 180.598316 251.724872 
L 182.777206 233.147665 
L 184.956095 233.147665 
L 187.134985 239.340067 
L 189.313874 189.800849 
L 191.492764 288.879285 
L 193.671653 245.53247 
L 195.850543 233.147665 
L 198.029433 226.955263 
L 200.208322 53.568 
L 202.387212 270.302079 
L 204.566101 239.340067 
L 206.744991 195.993252 
L 208.92388 233.147665 
L 211.10277 282.686883 
L 213.28166 177.416045 
L 215.460549 208.378056 
L 217.639439 270.302079 
L 219.818328 53.568 
L 221.997218 270.302079 
L 224.176107 53.568 
L 226.354997 233.147665 
L 228.533887 53.568 
L 230.712776 239.340067 
L 232.891666 84.530011 
L 235.070555 270.302079 
L 237.249445 251.724872 
L 239.428334 264.109676 
L 241.607224 264.109676 
L 243.786113 282.686883 
L 245.965003 251.724872 
L 248.143893 270.302079 
L 250.322782 183.608447 
L 252.501672 288.879285 
L 254.680561 72.145207 
L 256.859451 264.109676 
L 259.03834 226.955263 
L 261.21723 208.378056 
L 263.39612 251.724872 
L 265.575009 53.568 
L 267.753899 233.147665 
L 269.932788 264.109676 
L 272.111678 276.494481 
L 274.290567 195.993252 
L 276.469457 264.109676 
L 278.648347 134.069229 
L 280.827236 239.340067 
L 283.006126 282.686883 
L 285.185015 183.608447 
L 287.363905 78.337609 
L 289.542794 282.686883 
L 291.721684 251.724872 
L 293.900574 158.838838 
L 296.079463 270.302079 
L 298.258353 251.724872 
L 300.437242 214.570458 
L 302.616132 257.917274 
L 304.795021 264.109676 
L 306.973911 282.686883 
L 309.1528 220.762861 
L 311.33169 202.185654 
L 313.51058 208.378056 
L 315.689469 282.686883 
L 317.868359 202.185654 
L 320.047248 127.876827 
L 322.226138 264.109676 
L 324.405027 208.378056 
L 326.583917 264.109676 
L 328.762807 214.570458 
L 330.941696 214.570458 
L 333.120586 53.568 
L 335.299475 239.340067 
L 337.478365 195.993252 
L 339.657254 171.223643 
L 341.836144 276.494481 
L 344.015034 183.608447 
L 346.193923 202.185654 
L 348.372813 177.416045 
L 350.551702 53.568 
L 352.730592 208.378056 
L 354.909481 282.686883 
L 357.088371 270.302079 
L 359.267261 53.568 
L 361.44615 53.568 
L 363.62504 251.724872 
L 365.803929 96.914816 
L 367.982819 53.568 
L 370.161708 90.722413 
L 372.340598 53.568 
L 374.519487 245.53247 
L 376.698377 189.800849 
L 378.877267 53.568 
L 381.056156 270.302079 
L 383.235046 264.109676 
L 385.413935 282.686883 
L 387.592825 53.568 
L 389.771714 257.917274 
L 391.950604 282.686883 
L 394.129494 53.568 
L 396.308383 276.494481 
L 398.487273 53.568 
L 398.487273 53.568 
" clip-path="url(#p74eb21455c)" style="fill: none; stroke: #0000ff; stroke-width: 1.5; stroke-linecap: square"/>
   </g>
   <g id="patch_3">
    <path d="M 57.6 307.584 
L 57.6 41.472 
" style="fill: none; stroke: #000000; stroke-width: 0.8; stroke-linejoin: miter; stroke-linecap: square"/>
   </g>
   <g id="patch_4">
    <path d="M 414.72 307.584 
L 414.72 41.472 
" style="fill: none; stroke: #000000; stroke-width: 0.8; stroke-linejoin: miter; stroke-linecap: square"/>
   </g>
   <g id="patch_5">
    <path d="M 57.6 307.584 
L 414.72 307.584 
" style="fill: none; stroke: #000000; stroke-width: 0.8; stroke-linejoin: miter; stroke-linecap: square"/>
   </g>
   <g id="patch_6">
    <path d="M 57.6 41.472 
L 414.72 41.472 
" style="fill: none; stroke: #000000; stroke-width: 0.8; stroke-linejoin: miter; stroke-linecap: square"/>
   </g>
   <g id="legend_1">
    <g id="patch_7">
     <path d="M 64.6 78.82825 
L 128.475 78.82825 
Q 130.475 78.82825 130.475 76.82825 
L 130.475 48.472 
Q 130.475 46.472 128.475 46.472 
L 64.6 46.472 
Q 62.6 46.472 62.6 48.472 
L 62.6 76.82825 
Q 62.6 78.82825 64.6 78.82825 
z
" style="fill: #ffffff; opacity: 0.8; stroke: #cccccc; stroke-linejoin: miter"/>
    </g>
    <g id="line2d_37">
     <path d="M 66.6 54.570437 
L 76.6 54.570437 
L 86.6 54.570437 
" style="fill: none; stroke: #008000; stroke-width: 1.5; stroke-linecap: square"/>
    </g>
    <g id="text_18">
     <!-- score -->
     <g transform="translate(94.6 58.070437) scale(0.1 -0.1)">
      <defs>
       <path id="DejaVuSans-73" d="M 2834 3397 
L 2834 2853 
Q 2591 2978 2328 3040 
Q 2066 3103 1784 3103 
Q 1356 3103 1142 2972 
Q 928 2841 928 2578 
Q 928 2378 1081 2264 
Q 1234 2150 1697 2047 
L 1894 2003 
Q 2506 1872 2764 1633 
Q 3022 1394 3022 966 
Q 3022 478 2636 193 
Q 2250 -91 1575 -91 
Q 1294 -91 989 -36 
Q 684 19 347 128 
L 347 722 
Q 666 556 975 473 
Q 1284 391 1588 391 
Q 1994 391 2212 530 
Q 2431 669 2431 922 
Q 2431 1156 2273 1281 
Q 2116 1406 1581 1522 
L 1381 1569 
Q 847 1681 609 1914 
Q 372 2147 372 2553 
Q 372 3047 722 3315 
Q 1072 3584 1716 3584 
Q 2034 3584 2315 3537 
Q 2597 3491 2834 3397 
z
" transform="scale(0.015625)"/>
       <path id="DejaVuSans-63" d="M 3122 3366 
L 3122 2828 
Q 2878 2963 2633 3030 
Q 2388 3097 2138 3097 
Q 1578 3097 1268 2742 
Q 959 2388 959 1747 
Q 959 1106 1268 751 
Q 1578 397 2138 397 
Q 2388 397 2633 464 
Q 2878 531 3122 666 
L 3122 134 
Q 2881 22 2623 -34 
Q 2366 -91 2075 -91 
Q 1284 -91 818 406 
Q 353 903 353 1747 
Q 353 2603 823 3093 
Q 1294 3584 2113 3584 
Q 2378 3584 2631 3529 
Q 2884 3475 3122 3366 
z
" transform="scale(0.015625)"/>
       <path id="DejaVuSans-6f" d="M 1959 3097 
Q 1497 3097 1228 2736 
Q 959 2375 959 1747 
Q 959 1119 1226 758 
Q 1494 397 1959 397 
Q 2419 397 2687 759 
Q 2956 1122 2956 1747 
Q 2956 2369 2687 2733 
Q 2419 3097 1959 3097 
z
M 1959 3584 
Q 2709 3584 3137 3096 
Q 3566 2609 3566 1747 
Q 3566 888 3137 398 
Q 2709 -91 1959 -91 
Q 1206 -91 779 398 
Q 353 888 353 1747 
Q 353 2609 779 3096 
Q 1206 3584 1959 3584 
z
" transform="scale(0.015625)"/>
       <path id="DejaVuSans-72" d="M 2631 2963 
Q 2534 3019 2420 3045 
Q 2306 3072 2169 3072 
Q 1681 3072 1420 2755 
Q 1159 2438 1159 1844 
L 1159 0 
L 581 0 
L 581 3500 
L 1159 3500 
L 1159 2956 
Q 1341 3275 1631 3429 
Q 1922 3584 2338 3584 
Q 2397 3584 2469 3576 
Q 2541 3569 2628 3553 
L 2631 2963 
z
" transform="scale(0.015625)"/>
       <path id="DejaVuSans-65" d="M 3597 1894 
L 3597 1613 
L 953 1613 
Q 991 1019 1311 708 
Q 1631 397 2203 397 
Q 2534 397 2845 478 
Q 3156 559 3463 722 
L 3463 178 
Q 3153 47 2828 -22 
Q 2503 -91 2169 -91 
Q 1331 -91 842 396 
Q 353 884 353 1716 
Q 353 2575 817 3079 
Q 1281 3584 2069 3584 
Q 2775 3584 3186 3129 
Q 3597 2675 3597 1894 
z
M 3022 2063 
Q 3016 2534 2758 2815 
Q 2500 3097 2075 3097 
Q 1594 3097 1305 2825 
Q 1016 2553 972 2059 
L 3022 2063 
z
" transform="scale(0.015625)"/>
      </defs>
      <use xlink:href="#DejaVuSans-73"/>
      <use xlink:href="#DejaVuSans-63" x="52.099609"/>
      <use xlink:href="#DejaVuSans-6f" x="107.080078"/>
      <use xlink:href="#DejaVuSans-72" x="168.261719"/>
      <use xlink:href="#DejaVuSans-65" x="207.125"/>
     </g>
    </g>
    <g id="line2d_38">
     <path d="M 66.6 69.248562 
L 76.6 69.248562 
L 86.6 69.248562 
" style="fill: none; stroke: #0000ff; stroke-width: 1.5; stroke-linecap: square"/>
    </g>
    <g id="text_19">
     <!-- length -->
     <g transform="translate(94.6 72.748562) scale(0.1 -0.1)">
      <defs>
       <path id="DejaVuSans-6c" d="M 603 4863 
L 1178 4863 
L 1178 0 
L 603 0 
L 603 4863 
z
" transform="scale(0.015625)"/>
       <path id="DejaVuSans-6e" d="M 3513 2113 
L 3513 0 
L 2938 0 
L 2938 2094 
Q 2938 2591 2744 2837 
Q 2550 3084 2163 3084 
Q 1697 3084 1428 2787 
Q 1159 2491 1159 1978 
L 1159 0 
L 581 0 
L 581 3500 
L 1159 3500 
L 1159 2956 
Q 1366 3272 1645 3428 
Q 1925 3584 2291 3584 
Q 2894 3584 3203 3211 
Q 3513 2838 3513 2113 
z
" transform="scale(0.015625)"/>
       <path id="DejaVuSans-67" d="M 2906 1791 
Q 2906 2416 2648 2759 
Q 2391 3103 1925 3103 
Q 1463 3103 1205 2759 
Q 947 2416 947 1791 
Q 947 1169 1205 825 
Q 1463 481 1925 481 
Q 2391 481 2648 825 
Q 2906 1169 2906 1791 
z
M 3481 434 
Q 3481 -459 3084 -895 
Q 2688 -1331 1869 -1331 
Q 1566 -1331 1297 -1286 
Q 1028 -1241 775 -1147 
L 775 -588 
Q 1028 -725 1275 -790 
Q 1522 -856 1778 -856 
Q 2344 -856 2625 -561 
Q 2906 -266 2906 331 
L 2906 616 
Q 2728 306 2450 153 
Q 2172 0 1784 0 
Q 1141 0 747 490 
Q 353 981 353 1791 
Q 353 2603 747 3093 
Q 1141 3584 1784 3584 
Q 2172 3584 2450 3431 
Q 2728 3278 2906 2969 
L 2906 3500 
L 3481 3500 
L 3481 434 
z
" transform="scale(0.015625)"/>
       <path id="DejaVuSans-74" d="M 1172 4494 
L 1172 3500 
L 2356 3500 
L 2356 3053 
L 1172 3053 
L 1172 1153 
Q 1172 725 1289 603 
Q 1406 481 1766 481 
L 2356 481 
L 2356 0 
L 1766 0 
Q 1100 0 847 248 
Q 594 497 594 1153 
L 594 3053 
L 172 3053 
L 172 3500 
L 594 3500 
L 594 4494 
L 1172 4494 
z
" transform="scale(0.015625)"/>
       <path id="DejaVuSans-68" d="M 3513 2113 
L 3513 0 
L 2938 0 
L 2938 2094 
Q 2938 2591 2744 2837 
Q 2550 3084 2163 3084 
Q 1697 3084 1428 2787 
Q 1159 2491 1159 1978 
L 1159 0 
L 581 0 
L 581 4863 
L 1159 4863 
L 1159 2956 
Q 1366 3272 1645 3428 
Q 1925 3584 2291 3584 
Q 2894 3584 3203 3211 
Q 3513 2838 3513 2113 
z
" transform="scale(0.015625)"/>
      </defs>
      <use xlink:href="#DejaVuSans-6c"/>
      <use xlink:href="#DejaVuSans-65" x="27.783203"/>
      <use xlink:href="#DejaVuSans-6e" x="89.306641"/>
      <use xlink:href="#DejaVuSans-67" x="152.685547"/>
      <use xlink:href="#DejaVuSans-74" x="216.162109"/>
      <use xlink:href="#DejaVuSans-68" x="255.371094"/>
     </g>
    </g>
   </g>
  </g>
 </g>
 <defs>
  <clipPath id="p74eb21455c">
   <rect x="57.6" y="41.472" width="357.12" height="266.112"/>
  </clipPath>
 </defs>
</svg>
