<?xml version="1.0" encoding="UTF-8" standalone="no"?>
<!DOCTYPE svg PUBLIC "-//W3C//DTD SVG 1.1//EN"
 "http://www.w3.org/Graphics/SVG/1.1/DTD/svg11.dtd">
<!-- Generated by graphviz version 2.43.0 (0)
 -->
<!-- Title: %3 Pages: 1 -->
<svg width="926pt" height="254pt"
 viewBox="0.00 0.00 925.98 253.95" xmlns="http://www.w3.org/2000/svg" xmlns:xlink="http://www.w3.org/1999/xlink">
<g id="graph0" class="graph" transform="scale(1 1) rotate(0) translate(4 249.95)">
<title>%3</title>
<polygon fill="white" stroke="transparent" points="-4,4 -4,-249.95 921.98,-249.95 921.98,4 -4,4"/>
<!-- &#45;1 -->
<g id="node1" class="node">
<title>&#45;1</title>
<polygon fill="lightgray" stroke="black" points="92.99,-225.96 66.99,-225.96 66.99,-207.96 92.99,-207.96 92.99,-225.96"/>
<text text-anchor="middle" x="79.99" y="-214.76" font-family="Times,serif" font-size="9.00">&#45;1</text>
</g>
<!-- 4 -->
<g id="node8" class="node">
<title>4</title>
<ellipse fill="lightblue" stroke="black" cx="79.99" cy="-122.97" rx="16.03" ry="16.03"/>
<text text-anchor="middle" x="79.99" y="-120.77" font-family="Times,serif" font-size="9.00">4</text>
</g>
<!-- &#45;1&#45;&gt;4 -->
<g id="edge1" class="edge">
<title>&#45;1&#45;&gt;4</title>
<path fill="none" stroke="green" stroke-width="1.61" d="M79.99,-207.79C79.99,-194.88 79.99,-169.21 79.99,-149.67"/>
<polygon fill="green" stroke="green" stroke-width="1.61" points="83.49,-149.55 79.99,-139.55 76.49,-149.56 83.49,-149.55"/>
</g>
<!-- &#45;2 -->
<g id="node2" class="node">
<title>&#45;2</title>
<polygon fill="lightgray" stroke="black" points="45.99,-225.96 19.99,-225.96 19.99,-207.96 45.99,-207.96 45.99,-225.96"/>
<text text-anchor="middle" x="32.99" y="-214.76" font-family="Times,serif" font-size="9.00">&#45;2</text>
</g>
<!-- 3 -->
<g id="node7" class="node">
<title>3</title>
<ellipse fill="lightblue" stroke="black" cx="28.99" cy="-122.97" rx="16.03" ry="16.03"/>
<text text-anchor="middle" x="28.99" y="-120.77" font-family="Times,serif" font-size="9.00">3</text>
</g>
<!-- &#45;2&#45;&gt;3 -->
<g id="edge2" class="edge">
<title>&#45;2&#45;&gt;3</title>
<path fill="none" stroke="red" stroke-width="1.79" d="M32.64,-207.79C32.07,-194.88 30.96,-169.21 30.11,-149.67"/>
<polygon fill="red" stroke="red" stroke-width="1.79" points="33.6,-149.39 29.67,-139.55 26.61,-149.7 33.6,-149.39"/>
</g>
<!-- 5297 -->
<g id="node15" class="node">
<title>5297</title>
<ellipse fill="white" stroke="black" cx="142.99" cy="-122.97" rx="28.98" ry="28.98"/>
<text text-anchor="middle" x="142.99" y="-120.77" font-family="Times,serif" font-size="9.00">5297</text>
</g>
<!-- &#45;2&#45;&gt;5297 -->
<g id="edge6" class="edge">
<title>&#45;2&#45;&gt;5297</title>
<path fill="none" stroke="green" stroke-width="0.25" d="M39.6,-207.73C44.43,-201.93 51.28,-194.14 57.99,-187.97 62.93,-183.42 89.69,-163.39 111.88,-146.93"/>
<polygon fill="green" stroke="green" stroke-width="0.25" points="114.15,-149.61 120.11,-140.84 109.99,-143.98 114.15,-149.61"/>
</g>
<!-- &#45;3 -->
<g id="node3" class="node">
<title>&#45;3</title>
<polygon fill="lightgray" stroke="black" points="367.99,-225.96 341.99,-225.96 341.99,-207.96 367.99,-207.96 367.99,-225.96"/>
<text text-anchor="middle" x="354.99" y="-214.76" font-family="Times,serif" font-size="9.00">&#45;3</text>
</g>
<!-- 0 -->
<g id="node4" class="node">
<title>0</title>
<ellipse fill="lightblue" stroke="black" cx="401.99" cy="-216.96" rx="16.03" ry="16.03"/>
<text text-anchor="middle" x="401.99" y="-214.76" font-family="Times,serif" font-size="9.00">0</text>
</g>
<!-- 1 -->
<g id="node5" class="node">
<title>1</title>
<ellipse fill="lightblue" stroke="black" cx="660.99" cy="-122.97" rx="16.03" ry="16.03"/>
<text text-anchor="middle" x="660.99" y="-120.77" font-family="Times,serif" font-size="9.00">1</text>
</g>
<!-- 4960 -->
<g id="node20" class="node">
<title>4960</title>
<ellipse fill="white" stroke="black" cx="660.99" cy="-28.99" rx="28.98" ry="28.98"/>
<text text-anchor="middle" x="660.99" y="-26.79" font-family="Times,serif" font-size="9.00">4960</text>
</g>
<!-- 1&#45;&gt;4960 -->
<g id="edge11" class="edge">
<title>1&#45;&gt;4960</title>
<path fill="none" stroke="green" stroke-width="0.21" d="M660.99,-106.37C660.99,-96.02 660.99,-81.94 660.99,-68.7"/>
<polygon fill="green" stroke="green" stroke-width="0.21" points="664.49,-68.34 660.99,-58.34 657.49,-68.34 664.49,-68.34"/>
</g>
<!-- 2 -->
<g id="node6" class="node">
<title>2</title>
<ellipse fill="lightblue" stroke="black" cx="597.99" cy="-28.99" rx="16.03" ry="16.03"/>
<text text-anchor="middle" x="597.99" y="-26.79" font-family="Times,serif" font-size="9.00">2</text>
</g>
<!-- 4862 -->
<g id="node26" class="node">
<title>4862</title>
<ellipse fill="white" stroke="black" cx="28.99" cy="-28.99" rx="28.98" ry="28.98"/>
<text text-anchor="middle" x="28.99" y="-26.79" font-family="Times,serif" font-size="9.00">4862</text>
</g>
<!-- 3&#45;&gt;4862 -->
<g id="edge19" class="edge">
<title>3&#45;&gt;4862</title>
<path fill="none" stroke="green" stroke-width="0.51" d="M28.99,-106.37C28.99,-96.02 28.99,-81.94 28.99,-68.7"/>
<polygon fill="green" stroke="green" stroke-width="0.51" points="32.49,-68.34 28.99,-58.34 25.49,-68.34 32.49,-68.34"/>
</g>
<!-- 5167 -->
<g id="node13" class="node">
<title>5167</title>
<ellipse fill="white" stroke="black" cx="114.99" cy="-28.99" rx="28.98" ry="28.98"/>
<text text-anchor="middle" x="114.99" y="-26.79" font-family="Times,serif" font-size="9.00">5167</text>
</g>
<!-- 4&#45;&gt;5167 -->
<g id="edge9" class="edge">
<title>4&#45;&gt;5167</title>
<path fill="none" stroke="red" stroke-width="0.39" stroke-dasharray="1,5" d="M85.46,-107.6C89.68,-96.52 95.7,-80.68 101.21,-66.21"/>
<polygon fill="red" stroke="red" stroke-width="0.39" points="104.63,-67.06 104.91,-56.47 98.09,-64.57 104.63,-67.06"/>
</g>
<!-- 5404 -->
<g id="node9" class="node">
<title>5404</title>
<ellipse fill="white" stroke="black" cx="736.99" cy="-216.96" rx="28.98" ry="28.98"/>
<text text-anchor="middle" x="736.99" y="-214.76" font-family="Times,serif" font-size="9.00">5404</text>
</g>
<!-- 4904 -->
<g id="node10" class="node">
<title>4904</title>
<ellipse fill="white" stroke="black" cx="294.99" cy="-122.97" rx="28.98" ry="28.98"/>
<text text-anchor="middle" x="294.99" y="-120.77" font-family="Times,serif" font-size="9.00">4904</text>
</g>
<!-- 5034 -->
<g id="node11" class="node">
<title>5034</title>
<ellipse fill="white" stroke="black" cx="492.99" cy="-28.99" rx="28.98" ry="28.98"/>
<text text-anchor="middle" x="492.99" y="-26.79" font-family="Times,serif" font-size="9.00">5034</text>
</g>
<!-- 5292 -->
<g id="node12" class="node">
<title>5292</title>
<ellipse fill="white" stroke="black" cx="180.99" cy="-216.96" rx="28.98" ry="28.98"/>
<text text-anchor="middle" x="180.99" y="-214.76" font-family="Times,serif" font-size="9.00">5292</text>
</g>
<!-- 5292&#45;&gt;4904 -->
<g id="edge5" class="edge">
<title>5292&#45;&gt;4904</title>
<path fill="none" stroke="green" stroke-width="1.06" stroke-dasharray="1,5" d="M203.24,-198C220.82,-183.82 245.52,-163.89 264.87,-148.28"/>
<polygon fill="green" stroke="green" stroke-width="1.06" points="267.21,-150.89 272.8,-141.88 262.82,-145.44 267.21,-150.89"/>
</g>
<!-- 5292&#45;&gt;5297 -->
<g id="edge16" class="edge">
<title>5292&#45;&gt;5297</title>
<path fill="none" stroke="red" stroke-width="0.39" d="M170.2,-189.84C166.31,-180.43 161.85,-169.63 157.68,-159.54"/>
<polygon fill="red" stroke="red" stroke-width="0.39" points="160.86,-158.06 153.81,-150.15 154.39,-160.73 160.86,-158.06"/>
</g>
<!-- 5423 -->
<g id="node14" class="node">
<title>5423</title>
<ellipse fill="white" stroke="black" cx="597.99" cy="-122.97" rx="28.98" ry="28.98"/>
<text text-anchor="middle" x="597.99" y="-120.77" font-family="Times,serif" font-size="9.00">5423</text>
</g>
<!-- 5423&#45;&gt;2 -->
<g id="edge21" class="edge">
<title>5423&#45;&gt;2</title>
<path fill="none" stroke="green" stroke-width="0.24" d="M597.99,-93.88C597.99,-81.66 597.99,-67.45 597.99,-55.54"/>
<polygon fill="green" stroke="green" stroke-width="0.24" points="601.49,-55.36 597.99,-45.36 594.49,-55.36 601.49,-55.36"/>
</g>
<!-- 5423&#45;&gt;5034 -->
<g id="edge18" class="edge">
<title>5423&#45;&gt;5034</title>
<path fill="none" stroke="green" stroke-width="0.43" d="M576.49,-103.14C560.78,-89.37 539.29,-70.55 522.05,-55.45"/>
<polygon fill="green" stroke="green" stroke-width="0.43" points="524.29,-52.76 514.46,-48.8 519.68,-58.02 524.29,-52.76"/>
</g>
<!-- 5423&#45;&gt;4960 -->
<g id="edge8" class="edge">
<title>5423&#45;&gt;4960</title>
<path fill="none" stroke="green" stroke-width="0.18" d="M614.22,-98.29C621.84,-87.15 631.05,-73.71 639.27,-61.71"/>
<polygon fill="green" stroke="green" stroke-width="0.18" points="642.28,-63.51 645.04,-53.28 636.5,-59.55 642.28,-63.51"/>
</g>
<!-- 5297&#45;&gt;5167 -->
<g id="edge12" class="edge">
<title>5297&#45;&gt;5167</title>
<path fill="none" stroke="red" stroke-width="0.17" d="M134.74,-94.87C132.04,-85.98 128.98,-75.96 126.1,-66.49"/>
<polygon fill="red" stroke="red" stroke-width="0.17" points="129.44,-65.45 123.18,-56.9 122.75,-67.48 129.44,-65.45"/>
</g>
<!-- 5073 -->
<g id="node19" class="node">
<title>5073</title>
<ellipse fill="white" stroke="black" cx="199.99" cy="-28.99" rx="28.98" ry="28.98"/>
<text text-anchor="middle" x="199.99" y="-26.79" font-family="Times,serif" font-size="9.00">5073</text>
</g>
<!-- 5297&#45;&gt;5073 -->
<g id="edge17" class="edge">
<title>5297&#45;&gt;5073</title>
<path fill="none" stroke="red" stroke-width="0.2" d="M157.97,-97.81C164.64,-87.03 172.61,-74.18 179.8,-62.57"/>
<polygon fill="red" stroke="red" stroke-width="0.2" points="182.82,-64.34 185.12,-54 176.87,-60.65 182.82,-64.34"/>
</g>
<!-- 5561 -->
<g id="node16" class="node">
<title>5561</title>
<ellipse fill="white" stroke="black" cx="464.99" cy="-216.96" rx="28.98" ry="28.98"/>
<text text-anchor="middle" x="464.99" y="-214.76" font-family="Times,serif" font-size="9.00">5561</text>
</g>
<!-- 5561&#45;&gt;5034 -->
<g id="edge13" class="edge">
<title>5561&#45;&gt;5034</title>
<path fill="none" stroke="green" stroke-width="0.99" stroke-dasharray="1,5" d="M469.18,-188.12C474,-156.12 481.93,-103.43 487.31,-67.75"/>
<polygon fill="green" stroke="green" stroke-width="0.99" points="490.79,-68.13 488.82,-57.72 483.87,-67.09 490.79,-68.13"/>
</g>
<!-- 5573 -->
<g id="node18" class="node">
<title>5573</title>
<ellipse fill="white" stroke="black" cx="521.99" cy="-122.97" rx="28.98" ry="28.98"/>
<text text-anchor="middle" x="521.99" y="-120.77" font-family="Times,serif" font-size="9.00">5573</text>
</g>
<!-- 5561&#45;&gt;5573 -->
<g id="edge14" class="edge">
<title>5561&#45;&gt;5573</title>
<path fill="none" stroke="green" stroke-width="0.15" d="M479.97,-191.79C486.64,-181.02 494.61,-168.16 501.8,-156.56"/>
<polygon fill="green" stroke="green" stroke-width="0.15" points="504.82,-158.32 507.12,-147.98 498.87,-154.64 504.82,-158.32"/>
</g>
<!-- 5354 -->
<g id="node23" class="node">
<title>5354</title>
<ellipse fill="white" stroke="black" cx="407.99" cy="-122.97" rx="28.98" ry="28.98"/>
<text text-anchor="middle" x="407.99" y="-120.77" font-family="Times,serif" font-size="9.00">5354</text>
</g>
<!-- 5561&#45;&gt;5354 -->
<g id="edge20" class="edge">
<title>5561&#45;&gt;5354</title>
<path fill="none" stroke="green" stroke-width="0.15" d="M450.02,-191.79C443.34,-181.02 435.37,-168.16 428.18,-156.56"/>
<polygon fill="green" stroke="green" stroke-width="0.15" points="431.11,-154.64 422.87,-147.98 425.16,-158.32 431.11,-154.64"/>
</g>
<!-- 5054 -->
<g id="node17" class="node">
<title>5054</title>
<ellipse fill="white" stroke="black" cx="218.99" cy="-122.97" rx="28.98" ry="28.98"/>
<text text-anchor="middle" x="218.99" y="-120.77" font-family="Times,serif" font-size="9.00">5054</text>
</g>
<!-- 5054&#45;&gt;5073 -->
<g id="edge3" class="edge">
<title>5054&#45;&gt;5073</title>
<path fill="none" stroke="red" stroke-width="0.27" d="M213.29,-94.38C211.54,-85.92 209.59,-76.47 207.73,-67.46"/>
<polygon fill="red" stroke="red" stroke-width="0.27" points="211.14,-66.65 205.69,-57.57 204.28,-68.07 211.14,-66.65"/>
</g>
<!-- 5573&#45;&gt;5034 -->
<g id="edge15" class="edge">
<title>5573&#45;&gt;5034</title>
<path fill="none" stroke="green" stroke-width="0.11" d="M513.45,-94.87C510.64,-85.98 507.48,-75.96 504.5,-66.49"/>
<polygon fill="green" stroke="green" stroke-width="0.11" points="507.82,-65.38 501.47,-56.9 501.14,-67.49 507.82,-65.38"/>
</g>
<!-- 5477 -->
<g id="node21" class="node">
<title>5477</title>
<ellipse fill="white" stroke="black" cx="660.99" cy="-216.96" rx="28.98" ry="28.98"/>
<text text-anchor="middle" x="660.99" y="-214.76" font-family="Times,serif" font-size="9.00">5477</text>
</g>
<!-- 5477&#45;&gt;1 -->
<g id="edge10" class="edge">
<title>5477&#45;&gt;1</title>
<path fill="none" stroke="red" stroke-width="0.29" d="M660.99,-187.86C660.99,-175.64 660.99,-161.43 660.99,-149.52"/>
<polygon fill="red" stroke="red" stroke-width="0.29" points="664.49,-149.35 660.99,-139.35 657.49,-149.35 664.49,-149.35"/>
</g>
<!-- 4711 -->
<g id="node22" class="node">
<title>4711</title>
<ellipse fill="white" stroke="black" cx="812.99" cy="-216.96" rx="28.98" ry="28.98"/>
<text text-anchor="middle" x="812.99" y="-214.76" font-family="Times,serif" font-size="9.00">4711</text>
</g>
<!-- 5354&#45;&gt;5034 -->
<g id="edge7" class="edge">
<title>5354&#45;&gt;5034</title>
<path fill="none" stroke="green" stroke-width="0.15" stroke-dasharray="1,5" d="M427.28,-101.1C439.02,-88.4 454.16,-72.01 466.95,-58.17"/>
<polygon fill="green" stroke="green" stroke-width="0.15" points="469.56,-60.5 473.78,-50.78 464.42,-55.75 469.56,-60.5"/>
</g>
<!-- 5103 -->
<g id="node24" class="node">
<title>5103</title>
<ellipse fill="white" stroke="black" cx="294.99" cy="-216.96" rx="28.98" ry="28.98"/>
<text text-anchor="middle" x="294.99" y="-214.76" font-family="Times,serif" font-size="9.00">5103</text>
</g>
<!-- 5103&#45;&gt;4904 -->
<g id="edge4" class="edge">
<title>5103&#45;&gt;4904</title>
<path fill="none" stroke="green" stroke-width="0.12" d="M294.99,-187.86C294.99,-179.82 294.99,-170.92 294.99,-162.38"/>
<polygon fill="green" stroke="green" stroke-width="0.12" points="298.49,-162.22 294.99,-152.22 291.49,-162.22 298.49,-162.22"/>
</g>
<!-- 4093 -->
<g id="node25" class="node">
<title>4093</title>
<ellipse fill="white" stroke="black" cx="888.99" cy="-216.96" rx="28.98" ry="28.98"/>
<text text-anchor="middle" x="888.99" y="-214.76" font-family="Times,serif" font-size="9.00">4093</text>
</g>
</g>
</svg>
