<?xml version="1.0" encoding="UTF-8" standalone="no"?>
<!DOCTYPE svg PUBLIC "-//W3C//DTD SVG 1.1//EN"
 "http://www.w3.org/Graphics/SVG/1.1/DTD/svg11.dtd">
<!-- Generated by graphviz version 2.43.0 (0)
 -->
<!-- Title: %3 Pages: 1 -->
<svg width="868pt" height="630pt"
 viewBox="0.00 0.00 867.89 629.88" xmlns="http://www.w3.org/2000/svg" xmlns:xlink="http://www.w3.org/1999/xlink">
<g id="graph0" class="graph" transform="scale(1 1) rotate(0) translate(4 625.88)">
<title>%3</title>
<polygon fill="white" stroke="transparent" points="-4,4 -4,-625.88 863.89,-625.88 863.89,4 -4,4"/>
<!-- &#45;1 -->
<g id="node1" class="node">
<title>&#45;1</title>
<polygon fill="lightgray" stroke="black" points="450,-601.89 424,-601.89 424,-583.89 450,-583.89 450,-601.89"/>
<text text-anchor="middle" x="437" y="-590.69" font-family="Times,serif" font-size="9.00">&#45;1</text>
</g>
<!-- 1052 -->
<g id="node10" class="node">
<title>1052</title>
<ellipse fill="white" stroke="black" cx="304" cy="-122.97" rx="28.98" ry="28.98"/>
<text text-anchor="middle" x="304" y="-120.77" font-family="Times,serif" font-size="9.00">1052</text>
</g>
<!-- &#45;1&#45;&gt;1052 -->
<g id="edge1" class="edge">
<title>&#45;1&#45;&gt;1052</title>
<path fill="none" stroke="green" stroke-width="0.44" d="M425.2,-583.77C392.65,-560.33 304,-488.88 304,-405.92 304,-405.92 304,-405.92 304,-309.94 304,-258.74 304,-199.61 304,-162.02"/>
<polygon fill="green" stroke="green" stroke-width="0.44" points="307.5,-162.01 304,-152.01 300.5,-162.01 307.5,-162.01"/>
</g>
<!-- 1056 -->
<g id="node14" class="node">
<title>1056</title>
<ellipse fill="white" stroke="black" cx="399" cy="-216.96" rx="28.98" ry="28.98"/>
<text text-anchor="middle" x="399" y="-214.76" font-family="Times,serif" font-size="9.00">1056</text>
</g>
<!-- &#45;1&#45;&gt;1056 -->
<g id="edge2" class="edge">
<title>&#45;1&#45;&gt;1056</title>
<path fill="none" stroke="green" stroke-width="0.16" stroke-dasharray="1,5" d="M430.26,-583.86C421.08,-572.35 405.09,-550.07 399,-527.9 372.86,-432.69 384.19,-314.74 392.71,-255.56"/>
<polygon fill="green" stroke="green" stroke-width="0.16" points="396.19,-255.96 394.2,-245.55 389.26,-254.92 396.19,-255.96"/>
</g>
<!-- 1058 -->
<g id="node15" class="node">
<title>1058</title>
<ellipse fill="white" stroke="black" cx="494" cy="-404.92" rx="28.98" ry="28.98"/>
<text text-anchor="middle" x="494" y="-402.72" font-family="Times,serif" font-size="9.00">1058</text>
</g>
<!-- &#45;1&#45;&gt;1058 -->
<g id="edge3" class="edge">
<title>&#45;1&#45;&gt;1058</title>
<path fill="none" stroke="green" stroke-width="0.46" stroke-dasharray="1,5" d="M443.27,-583.71C451.89,-572.02 467.22,-549.54 475,-527.9 484.71,-500.9 489.46,-468.78 491.78,-444.28"/>
<polygon fill="green" stroke="green" stroke-width="0.46" points="495.27,-444.55 492.64,-434.28 488.3,-443.95 495.27,-444.55"/>
</g>
<!-- 3551 -->
<g id="node20" class="node">
<title>3551</title>
<ellipse fill="white" stroke="black" cx="503" cy="-310.94" rx="28.98" ry="28.98"/>
<text text-anchor="middle" x="503" y="-308.74" font-family="Times,serif" font-size="9.00">3551</text>
</g>
<!-- &#45;1&#45;&gt;3551 -->
<g id="edge31" class="edge">
<title>&#45;1&#45;&gt;3551</title>
<path fill="none" stroke="red" stroke-width="0.81" d="M442.92,-583.84C447.22,-578.13 453.26,-570.37 459,-563.9 474.02,-546.97 482.6,-546.82 495,-527.9 519.61,-490.35 523.63,-478.02 532,-433.91 536.8,-408.6 537.44,-401.12 532,-375.93 529.8,-365.74 525.83,-355.22 521.53,-345.72"/>
<polygon fill="red" stroke="red" stroke-width="0.81" points="524.64,-344.12 517.16,-336.62 518.33,-347.15 524.64,-344.12"/>
</g>
<!-- 4578 -->
<g id="node21" class="node">
<title>4578</title>
<ellipse fill="white" stroke="black" cx="437" cy="-498.91" rx="28.98" ry="28.98"/>
<text text-anchor="middle" x="437" y="-496.71" font-family="Times,serif" font-size="9.00">4578</text>
</g>
<!-- &#45;1&#45;&gt;4578 -->
<g id="edge28" class="edge">
<title>&#45;1&#45;&gt;4578</title>
<path fill="none" stroke="red" stroke-width="0.17" d="M437,-583.73C437,-573.46 437,-555.12 437,-538.21"/>
<polygon fill="red" stroke="red" stroke-width="0.17" points="440.5,-537.95 437,-527.95 433.5,-537.95 440.5,-537.95"/>
</g>
<!-- &#45;2 -->
<g id="node2" class="node">
<title>&#45;2</title>
<polygon fill="lightgray" stroke="black" points="448,-319.94 422,-319.94 422,-301.94 448,-301.94 448,-319.94"/>
<text text-anchor="middle" x="435" y="-308.74" font-family="Times,serif" font-size="9.00">&#45;2</text>
</g>
<!-- &#45;2&#45;&gt;1052 -->
<g id="edge4" class="edge">
<title>&#45;2&#45;&gt;1052</title>
<path fill="none" stroke="green" stroke-width="0.43" stroke-dasharray="1,5" d="M422.85,-301.89C406.93,-290.85 378.93,-269.66 361,-245.95 341.33,-219.94 326.18,-186.07 316.45,-160.61"/>
<polygon fill="green" stroke="green" stroke-width="0.43" points="319.63,-159.12 312.87,-150.96 313.07,-161.56 319.63,-159.12"/>
</g>
<!-- 1053 -->
<g id="node11" class="node">
<title>1053</title>
<ellipse fill="white" stroke="black" cx="684" cy="-122.97" rx="28.98" ry="28.98"/>
<text text-anchor="middle" x="684" y="-120.77" font-family="Times,serif" font-size="9.00">1053</text>
</g>
<!-- &#45;2&#45;&gt;1053 -->
<g id="edge5" class="edge">
<title>&#45;2&#45;&gt;1053</title>
<path fill="none" stroke="green" stroke-width="1.19" d="M443.2,-301.86C449.11,-296.14 457.37,-288.37 465,-281.95 528.08,-228.85 607.86,-174.15 651.61,-145.11"/>
<polygon fill="green" stroke="green" stroke-width="1.19" points="653.71,-147.91 660.13,-139.48 649.85,-142.07 653.71,-147.91"/>
</g>
<!-- 1055 -->
<g id="node13" class="node">
<title>1055</title>
<ellipse fill="white" stroke="black" cx="599" cy="-122.97" rx="28.98" ry="28.98"/>
<text text-anchor="middle" x="599" y="-120.77" font-family="Times,serif" font-size="9.00">1055</text>
</g>
<!-- &#45;2&#45;&gt;1055 -->
<g id="edge6" class="edge">
<title>&#45;2&#45;&gt;1055</title>
<path fill="none" stroke="green" stroke-width="0.18" d="M435.99,-301.81C438.95,-280.66 449.5,-223.06 480,-187.97 501.76,-162.92 535.8,-146.02 561.91,-135.91"/>
<polygon fill="green" stroke="green" stroke-width="0.18" points="563.32,-139.11 571.48,-132.36 560.89,-132.55 563.32,-139.11"/>
</g>
<!-- &#45;2&#45;&gt;1056 -->
<g id="edge7" class="edge">
<title>&#45;2&#45;&gt;1056</title>
<path fill="none" stroke="green" stroke-width="0.14" d="M431.81,-301.78C427.59,-291.02 419.92,-271.4 413.05,-253.85"/>
<polygon fill="green" stroke="green" stroke-width="0.14" points="416.24,-252.41 409.34,-244.38 409.72,-254.96 416.24,-252.41"/>
</g>
<!-- &#45;3 -->
<g id="node3" class="node">
<title>&#45;3</title>
<polygon fill="lightgray" stroke="black" points="583,-319.94 557,-319.94 557,-301.94 583,-301.94 583,-319.94"/>
<text text-anchor="middle" x="570" y="-308.74" font-family="Times,serif" font-size="9.00">&#45;3</text>
</g>
<!-- &#45;3&#45;&gt;1053 -->
<g id="edge8" class="edge">
<title>&#45;3&#45;&gt;1053</title>
<path fill="none" stroke="red" stroke-width="0.13" d="M583.29,-302.76C606.94,-289.71 654.81,-261.97 665,-245.95 680.81,-221.07 685.12,-187.71 685.72,-162.17"/>
<polygon fill="red" stroke="red" stroke-width="0.13" points="689.22,-162.12 685.78,-152.1 682.22,-162.08 689.22,-162.12"/>
</g>
<!-- &#45;3&#45;&gt;1055 -->
<g id="edge9" class="edge">
<title>&#45;3&#45;&gt;1055</title>
<path fill="none" stroke="red" stroke-width="0.1" stroke-dasharray="1,5" d="M571.29,-301.66C574.35,-281.95 582.33,-230.74 589,-187.97 590.32,-179.51 591.74,-170.44 593.08,-161.85"/>
<polygon fill="red" stroke="red" stroke-width="0.1" points="596.58,-162.11 594.67,-151.69 589.66,-161.03 596.58,-162.11"/>
</g>
<!-- &#45;3&#45;&gt;1056 -->
<g id="edge10" class="edge">
<title>&#45;3&#45;&gt;1056</title>
<path fill="none" stroke="red" stroke-width="1.6" stroke-dasharray="1,5" d="M562.99,-301.8C557.47,-295.75 549.34,-287.6 541,-281.95 507.92,-259.53 465.7,-241.67 435.93,-230.57"/>
<polygon fill="red" stroke="red" stroke-width="1.6" points="436.94,-227.22 426.34,-227.07 434.54,-233.79 436.94,-227.22"/>
</g>
<!-- 0 -->
<g id="node4" class="node">
<title>0</title>
<ellipse fill="lightblue" stroke="black" cx="225" cy="-122.97" rx="16.03" ry="16.03"/>
<text text-anchor="middle" x="225" y="-120.77" font-family="Times,serif" font-size="9.00">0</text>
</g>
<!-- 1 -->
<g id="node5" class="node">
<title>1</title>
<ellipse fill="lightblue" stroke="black" cx="512" cy="-28.99" rx="16.03" ry="16.03"/>
<text text-anchor="middle" x="512" y="-26.79" font-family="Times,serif" font-size="9.00">1</text>
</g>
<!-- 2 -->
<g id="node6" class="node">
<title>2</title>
<ellipse fill="lightblue" stroke="black" cx="190" cy="-28.99" rx="16.03" ry="16.03"/>
<text text-anchor="middle" x="190" y="-26.79" font-family="Times,serif" font-size="9.00">2</text>
</g>
<!-- 3 -->
<g id="node7" class="node">
<title>3</title>
<ellipse fill="lightblue" stroke="black" cx="760" cy="-310.94" rx="16.03" ry="16.03"/>
<text text-anchor="middle" x="760" y="-308.74" font-family="Times,serif" font-size="9.00">3</text>
</g>
<!-- 3&#45;&gt;1053 -->
<g id="edge41" class="edge">
<title>3&#45;&gt;1053</title>
<path fill="none" stroke="red" stroke-width="1.14" stroke-dasharray="1,5" d="M754.16,-295.66C742.35,-266.76 715.32,-200.61 698.47,-159.38"/>
<polygon fill="red" stroke="red" stroke-width="1.14" points="701.65,-157.91 694.63,-149.97 695.17,-160.55 701.65,-157.91"/>
</g>
<!-- 5201 -->
<g id="node19" class="node">
<title>5201</title>
<ellipse fill="white" stroke="black" cx="817" cy="-216.96" rx="28.98" ry="28.98"/>
<text text-anchor="middle" x="817" y="-214.76" font-family="Times,serif" font-size="9.00">5201</text>
</g>
<!-- 3&#45;&gt;5201 -->
<g id="edge42" class="edge">
<title>3&#45;&gt;5201</title>
<path fill="none" stroke="green" stroke-width="0.26" d="M768.17,-296.76C775.6,-284.77 786.87,-266.58 796.71,-250.69"/>
<polygon fill="green" stroke="green" stroke-width="0.26" points="799.71,-252.5 802,-242.16 793.76,-248.82 799.71,-252.5"/>
</g>
<!-- 4 -->
<g id="node8" class="node">
<title>4</title>
<ellipse fill="lightblue" stroke="black" cx="684" cy="-28.99" rx="16.03" ry="16.03"/>
<text text-anchor="middle" x="684" y="-26.79" font-family="Times,serif" font-size="9.00">4</text>
</g>
<!-- 4763 -->
<g id="node9" class="node">
<title>4763</title>
<ellipse fill="white" stroke="black" cx="497" cy="-592.89" rx="28.98" ry="28.98"/>
<text text-anchor="middle" x="497" y="-590.69" font-family="Times,serif" font-size="9.00">4763</text>
</g>
<!-- 1052&#45;&gt;2 -->
<g id="edge11" class="edge">
<title>1052&#45;&gt;2</title>
<path fill="none" stroke="red" stroke-width="0.17" stroke-dasharray="1,5" d="M281.75,-104.02C261,-87.28 230.31,-62.52 210.24,-46.32"/>
<polygon fill="red" stroke="red" stroke-width="0.17" points="212.32,-43.5 202.34,-39.95 207.93,-48.95 212.32,-43.5"/>
</g>
<!-- 4461 -->
<g id="node22" class="node">
<title>4461</title>
<ellipse fill="white" stroke="black" cx="121" cy="-28.99" rx="28.98" ry="28.98"/>
<text text-anchor="middle" x="121" y="-26.79" font-family="Times,serif" font-size="9.00">4461</text>
</g>
<!-- 1052&#45;&gt;4461 -->
<g id="edge27" class="edge">
<title>1052&#45;&gt;4461</title>
<path fill="none" stroke="green" stroke-width="1.68" d="M278.66,-108.32C269.68,-103.62 259.46,-98.43 250,-93.98 212.87,-76.53 201.32,-77.06 165,-57.98 161.21,-55.99 157.32,-53.79 153.5,-51.51"/>
<polygon fill="green" stroke="green" stroke-width="1.68" points="155.13,-48.4 144.78,-46.13 151.46,-54.36 155.13,-48.4"/>
</g>
<!-- 1053&#45;&gt;1 -->
<g id="edge12" class="edge">
<title>1053&#45;&gt;1</title>
<path fill="none" stroke="red" stroke-width="0.36" stroke-dasharray="1,5" d="M659.29,-106.86C652.15,-102.6 644.31,-98.03 637,-93.98 602.16,-74.71 560.9,-53.99 535.59,-41.5"/>
<polygon fill="red" stroke="red" stroke-width="0.36" points="536.92,-38.26 526.4,-36.99 533.84,-44.54 536.92,-38.26"/>
</g>
<!-- 1053&#45;&gt;4 -->
<g id="edge13" class="edge">
<title>1053&#45;&gt;4</title>
<path fill="none" stroke="red" stroke-width="0.21" stroke-dasharray="1,5" d="M684,-93.88C684,-81.66 684,-67.45 684,-55.54"/>
<polygon fill="red" stroke="red" stroke-width="0.21" points="687.5,-55.36 684,-45.36 680.5,-55.36 687.5,-55.36"/>
</g>
<!-- 1054 -->
<g id="node12" class="node">
<title>1054</title>
<ellipse fill="white" stroke="black" cx="133" cy="-310.94" rx="28.98" ry="28.98"/>
<text text-anchor="middle" x="133" y="-308.74" font-family="Times,serif" font-size="9.00">1054</text>
</g>
<!-- 1054&#45;&gt;0 -->
<g id="edge14" class="edge">
<title>1054&#45;&gt;0</title>
<path fill="none" stroke="red" stroke-width="0.28" stroke-dasharray="1,5" d="M138.36,-282.04C144.03,-256.47 154.47,-218.11 171,-187.97 180.4,-170.82 194.83,-154.02 206.41,-141.94"/>
<polygon fill="red" stroke="red" stroke-width="0.28" points="209,-144.3 213.53,-134.73 204.02,-139.39 209,-144.3"/>
</g>
<!-- 1054&#45;&gt;1 -->
<g id="edge15" class="edge">
<title>1054&#45;&gt;1</title>
<path fill="none" stroke="green" stroke-width="1.28" d="M131.97,-281.81C131.96,-233.8 139.85,-137.09 200,-93.98 246.19,-60.88 419.36,-39.68 485.81,-32.61"/>
<polygon fill="green" stroke="green" stroke-width="1.28" points="486.29,-36.08 495.88,-31.56 485.57,-29.12 486.29,-36.08"/>
</g>
<!-- 1054&#45;&gt;2 -->
<g id="edge16" class="edge">
<title>1054&#45;&gt;2</title>
<path fill="none" stroke="red" stroke-width="0.34" d="M117.43,-286.4C110.64,-274.75 103.45,-260.16 100,-245.95 84.07,-180.31 66.94,-152.88 100,-93.98 115.04,-67.2 134.38,-76.36 159,-57.98 163.07,-54.94 167.24,-51.47 171.14,-48.03"/>
<polygon fill="red" stroke="red" stroke-width="0.34" points="173.64,-50.49 178.67,-41.16 168.92,-45.32 173.64,-50.49"/>
</g>
<!-- 4921 -->
<g id="node17" class="node">
<title>4921</title>
<ellipse fill="white" stroke="black" cx="209" cy="-216.96" rx="28.98" ry="28.98"/>
<text text-anchor="middle" x="209" y="-214.76" font-family="Times,serif" font-size="9.00">4921</text>
</g>
<!-- 1054&#45;&gt;4921 -->
<g id="edge35" class="edge">
<title>1054&#45;&gt;4921</title>
<path fill="none" stroke="green" stroke-width="0.36" d="M151.01,-288.14C160.97,-276.09 173.49,-260.93 184.35,-247.79"/>
<polygon fill="green" stroke="green" stroke-width="0.36" points="187.18,-249.86 190.85,-239.92 181.79,-245.4 187.18,-249.86"/>
</g>
<!-- 1055&#45;&gt;1 -->
<g id="edge17" class="edge">
<title>1055&#45;&gt;1</title>
<path fill="none" stroke="red" stroke-width="0.45" d="M579.26,-101.1C564.32,-85.3 543.98,-63.8 529.59,-48.59"/>
<polygon fill="red" stroke="red" stroke-width="0.45" points="532.08,-46.13 522.67,-41.27 527,-50.94 532.08,-46.13"/>
</g>
<!-- 1055&#45;&gt;4 -->
<g id="edge18" class="edge">
<title>1055&#45;&gt;4</title>
<path fill="none" stroke="red" stroke-width="0.18" d="M618.29,-101.1C632.67,-85.54 652.17,-64.44 666.18,-49.27"/>
<polygon fill="red" stroke="red" stroke-width="0.18" points="669.12,-51.25 673.34,-41.53 663.98,-46.5 669.12,-51.25"/>
</g>
<!-- 1056&#45;&gt;0 -->
<g id="edge19" class="edge">
<title>1056&#45;&gt;0</title>
<path fill="none" stroke="green" stroke-width="0.34" stroke-dasharray="1,5" d="M372.66,-204.7C345.39,-192.71 301.84,-172.66 266,-151.97 259.38,-148.14 252.43,-143.61 246.17,-139.32"/>
<polygon fill="green" stroke="green" stroke-width="0.34" points="247.8,-136.19 237.61,-133.31 243.78,-141.92 247.8,-136.19"/>
</g>
<!-- 1056&#45;&gt;1 -->
<g id="edge20" class="edge">
<title>1056&#45;&gt;1</title>
<path fill="none" stroke="green" stroke-width="0.92" stroke-dasharray="1,5" d="M422.19,-199.17C437.03,-187.4 455.74,-170.49 468,-151.97 488.09,-121.61 500.36,-80.93 506.67,-55.08"/>
<polygon fill="green" stroke="green" stroke-width="0.92" points="510.08,-55.85 508.94,-45.31 503.27,-54.26 510.08,-55.85"/>
</g>
<!-- 1056&#45;&gt;2 -->
<g id="edge21" class="edge">
<title>1056&#45;&gt;2</title>
<path fill="none" stroke="red" stroke-width="0.15" stroke-dasharray="1,5" d="M392.41,-188.56C384.58,-161.33 369.04,-119.99 342,-93.98 306.07,-59.41 248.68,-42.26 215.66,-34.83"/>
<polygon fill="red" stroke="red" stroke-width="0.15" points="216.36,-31.4 205.85,-32.75 214.91,-38.25 216.36,-31.4"/>
</g>
<!-- 1056&#45;&gt;1052 -->
<g id="edge44" class="edge">
<title>1056&#45;&gt;1052</title>
<path fill="none" stroke="red" stroke-width="0.16" d="M378.39,-196C364.82,-182.86 346.88,-165.49 332.02,-151.11"/>
<polygon fill="red" stroke="red" stroke-width="0.16" points="334.19,-148.34 324.57,-143.89 329.32,-153.36 334.19,-148.34"/>
</g>
<!-- 4852 -->
<g id="node23" class="node">
<title>4852</title>
<ellipse fill="white" stroke="black" cx="430" cy="-122.97" rx="28.98" ry="28.98"/>
<text text-anchor="middle" x="430" y="-120.77" font-family="Times,serif" font-size="9.00">4852</text>
</g>
<!-- 1056&#45;&gt;4852 -->
<g id="edge32" class="edge">
<title>1056&#45;&gt;4852</title>
<path fill="none" stroke="green" stroke-width="0.62" d="M407.97,-189.35C410.99,-180.37 414.42,-170.19 417.66,-160.57"/>
<polygon fill="green" stroke="green" stroke-width="0.62" points="421.07,-161.43 420.95,-150.84 414.44,-159.2 421.07,-161.43"/>
</g>
<!-- 1058&#45;&gt;0 -->
<g id="edge22" class="edge">
<title>1058&#45;&gt;0</title>
<path fill="none" stroke="green" stroke-width="0.16" d="M470.91,-387.14C454.28,-374.71 431.6,-357.03 413,-339.93 342.24,-274.87 271.11,-184.88 240.54,-144.74"/>
<polygon fill="green" stroke="green" stroke-width="0.16" points="243.15,-142.38 234.32,-136.52 237.57,-146.61 243.15,-142.38"/>
</g>
<!-- 1058&#45;&gt;2 -->
<g id="edge23" class="edge">
<title>1058&#45;&gt;2</title>
<path fill="none" stroke="red" stroke-width="1.4" d="M464.97,-403.57C382.01,-401.91 146.52,-392.58 95,-339.93 18.36,-261.62 18.29,-185.86 78,-93.98 99.47,-60.95 125.97,-79.45 159,-57.98 163.33,-55.17 167.65,-51.75 171.64,-48.29"/>
<polygon fill="red" stroke="red" stroke-width="1.4" points="174.25,-50.64 179.23,-41.28 169.5,-45.49 174.25,-50.64"/>
</g>
<!-- 1058&#45;&gt;3 -->
<g id="edge24" class="edge">
<title>1058&#45;&gt;3</title>
<path fill="none" stroke="red" stroke-width="0.17" d="M522.05,-396.74C562.44,-386.08 639.05,-364.64 702,-339.93 713.79,-335.3 726.51,-329.29 737.02,-324.02"/>
<polygon fill="red" stroke="red" stroke-width="0.17" points="738.65,-327.12 745.97,-319.45 735.47,-320.88 738.65,-327.12"/>
</g>
<!-- 1058&#45;&gt;4 -->
<g id="edge25" class="edge">
<title>1058&#45;&gt;4</title>
<path fill="none" stroke="green" stroke-width="0.14" stroke-dasharray="1,5" d="M523.39,-404.04C578.96,-402.92 701.36,-393.96 785,-339.93 828.75,-311.67 838.61,-295.39 855,-245.95 885.52,-153.88 760.34,-72.14 707.02,-42.16"/>
<polygon fill="green" stroke="green" stroke-width="0.14" points="708.69,-39.08 698.24,-37.32 705.32,-45.21 708.69,-39.08"/>
</g>
<!-- 1058&#45;&gt;3551 -->
<g id="edge26" class="edge">
<title>1058&#45;&gt;3551</title>
<path fill="none" stroke="green" stroke-width="0.57" stroke-dasharray="1,5" d="M496.75,-375.82C497.55,-367.62 498.44,-358.52 499.29,-349.82"/>
<polygon fill="green" stroke="green" stroke-width="0.57" points="502.78,-350.16 500.27,-339.87 495.81,-349.48 502.78,-350.16"/>
</g>
<!-- 4905 -->
<g id="node16" class="node">
<title>4905</title>
<ellipse fill="white" stroke="black" cx="664" cy="-310.94" rx="28.98" ry="28.98"/>
<text text-anchor="middle" x="664" y="-308.74" font-family="Times,serif" font-size="9.00">4905</text>
</g>
<!-- 4905&#45;&gt;1055 -->
<g id="edge34" class="edge">
<title>4905&#45;&gt;1055</title>
<path fill="none" stroke="red" stroke-width="0.65" stroke-dasharray="1,5" d="M670.23,-282.57C674.69,-257.03 677.88,-218.39 665,-187.97 657.94,-171.29 644.18,-156.83 631.04,-145.89"/>
<polygon fill="red" stroke="red" stroke-width="0.65" points="633.02,-143 623,-139.55 628.68,-148.49 633.02,-143"/>
</g>
<!-- 5066 -->
<g id="node18" class="node">
<title>5066</title>
<ellipse fill="white" stroke="black" cx="627" cy="-216.96" rx="28.98" ry="28.98"/>
<text text-anchor="middle" x="627" y="-214.76" font-family="Times,serif" font-size="9.00">5066</text>
</g>
<!-- 4905&#45;&gt;5066 -->
<g id="edge39" class="edge">
<title>4905&#45;&gt;5066</title>
<path fill="none" stroke="green" stroke-width="0.45" d="M653.5,-283.83C649.71,-274.41 645.37,-263.61 641.31,-253.52"/>
<polygon fill="green" stroke="green" stroke-width="0.45" points="644.51,-252.11 637.53,-244.13 638.01,-254.72 644.51,-252.11"/>
</g>
<!-- 4921&#45;&gt;0 -->
<g id="edge36" class="edge">
<title>4921&#45;&gt;0</title>
<path fill="none" stroke="green" stroke-width="1.91" d="M213.8,-188.36C215.96,-175.92 218.5,-161.32 220.62,-149.18"/>
<polygon fill="green" stroke="green" stroke-width="1.91" points="224.08,-149.71 222.34,-139.25 217.18,-148.51 224.08,-149.71"/>
</g>
<!-- 5066&#45;&gt;1055 -->
<g id="edge40" class="edge">
<title>5066&#45;&gt;1055</title>
<path fill="none" stroke="green" stroke-width="0.14" d="M618.75,-188.86C616.04,-179.97 612.99,-169.94 610.11,-160.47"/>
<polygon fill="green" stroke="green" stroke-width="0.14" points="613.45,-159.43 607.19,-150.88 606.75,-161.47 613.45,-159.43"/>
</g>
<!-- 5201&#45;&gt;1053 -->
<g id="edge43" class="edge">
<title>5201&#45;&gt;1053</title>
<path fill="none" stroke="green" stroke-width="0.33" d="M793.53,-199.72C772.01,-184.84 739.96,-162.67 716.08,-146.16"/>
<polygon fill="green" stroke="green" stroke-width="0.33" points="717.9,-143.16 707.68,-140.35 713.92,-148.92 717.9,-143.16"/>
</g>
<!-- 3551&#45;&gt;1 -->
<g id="edge30" class="edge">
<title>3551&#45;&gt;1</title>
<path fill="none" stroke="green" stroke-width="0.47" d="M503.9,-281.82C505.66,-227.32 509.49,-108.09 511.18,-55.63"/>
<polygon fill="green" stroke="green" stroke-width="0.47" points="514.68,-55.6 511.5,-45.5 507.68,-55.38 514.68,-55.6"/>
</g>
<!-- 4578&#45;&gt;1058 -->
<g id="edge29" class="edge">
<title>4578&#45;&gt;1058</title>
<path fill="none" stroke="green" stroke-width="0.32" d="M451.98,-473.74C458.65,-462.96 466.62,-450.11 473.81,-438.5"/>
<polygon fill="green" stroke="green" stroke-width="0.32" points="476.83,-440.27 479.12,-429.93 470.88,-436.59 476.83,-440.27"/>
</g>
<!-- 4578&#45;&gt;4921 -->
<g id="edge38" class="edge">
<title>4578&#45;&gt;4921</title>
<path fill="none" stroke="green" stroke-width="0.12" d="M412.41,-483.06C373.14,-458.16 296.21,-404.35 252,-339.93 234.47,-314.39 223.34,-280.94 216.81,-255.53"/>
<polygon fill="green" stroke="green" stroke-width="0.12" points="220.14,-254.42 214.37,-245.53 213.34,-256.08 220.14,-254.42"/>
</g>
<!-- 4578&#45;&gt;3551 -->
<g id="edge37" class="edge">
<title>4578&#45;&gt;3551</title>
<path fill="none" stroke="green" stroke-width="1.02" d="M437.61,-469.76C439.03,-444.36 443.33,-406.41 456,-375.93 461.18,-363.48 469.26,-351.2 477.28,-340.77"/>
<polygon fill="green" stroke="green" stroke-width="1.02" points="480.11,-342.84 483.63,-332.85 474.65,-338.46 480.11,-342.84"/>
</g>
<!-- 4578&#45;&gt;4461 -->
<g id="edge45" class="edge">
<title>4578&#45;&gt;4461</title>
<path fill="none" stroke="red" stroke-width="0.21" d="M407.99,-498.75C310.39,-499.96 0,-489.83 0,-311.94 0,-311.94 0,-311.94 0,-215.96 0,-158.17 11.79,-141.27 45,-93.98 56.6,-77.46 73.48,-62.67 88.38,-51.49"/>
<polygon fill="red" stroke="red" stroke-width="0.21" points="90.83,-54.03 96.88,-45.33 86.73,-48.36 90.83,-54.03"/>
</g>
<!-- 4852&#45;&gt;1 -->
<g id="edge33" class="edge">
<title>4852&#45;&gt;1</title>
<path fill="none" stroke="green" stroke-width="0.26" d="M449.02,-100.64C462.83,-85.15 481.37,-64.35 494.75,-49.34"/>
<polygon fill="green" stroke="green" stroke-width="0.26" points="497.55,-51.46 501.59,-41.66 492.33,-46.8 497.55,-51.46"/>
</g>
</g>
</svg>
