<?xml version="1.0" encoding="UTF-8" standalone="no"?>
<!DOCTYPE svg PUBLIC "-//W3C//DTD SVG 1.1//EN"
 "http://www.w3.org/Graphics/SVG/1.1/DTD/svg11.dtd">
<!-- Generated by graphviz version 2.43.0 (0)
 -->
<!-- Title: %3 Pages: 1 -->
<svg width="1414pt" height="795pt"
 viewBox="0.00 0.00 1414.00 795.48" xmlns="http://www.w3.org/2000/svg" xmlns:xlink="http://www.w3.org/1999/xlink">
<g id="graph0" class="graph" transform="scale(1 1) rotate(0) translate(4 791.48)">
<title>%3</title>
<polygon fill="white" stroke="transparent" points="-4,4 -4,-791.48 1410,-791.48 1410,4 -4,4"/>
<!-- &#45;1 -->
<g id="node1" class="node">
<title>&#45;1</title>
<polygon fill="lightgray" stroke="black" points="507,-632.23 481,-632.23 481,-614.23 507,-614.23 507,-632.23"/>
<text text-anchor="middle" x="494" y="-621.03" font-family="Times,serif" font-size="9.00">&#45;1</text>
</g>
<!-- 0 -->
<g id="node4" class="node">
<title>0</title>
<ellipse fill="lightblue" stroke="black" cx="236" cy="-16.26" rx="16.03" ry="16.03"/>
<text text-anchor="middle" x="236" y="-14.06" font-family="Times,serif" font-size="9.00">0</text>
</g>
<!-- &#45;1&#45;&gt;0 -->
<g id="edge37" class="edge">
<title>&#45;1&#45;&gt;0</title>
<path fill="none" stroke="red" stroke-width="0.29" stroke-dasharray="1,5" d="M480.7,-619.91C451.52,-614.31 380.68,-597.79 333,-562.48 206.35,-468.71 196.99,-416.9 118,-280.53 70.02,-197.7 23.86,-146.07 80,-68.53 109.7,-27.51 173.29,-18.73 209.44,-17.2"/>
<polygon fill="red" stroke="red" stroke-width="0.29" points="209.8,-20.69 219.71,-16.93 209.62,-13.7 209.8,-20.69"/>
</g>
<!-- 1 -->
<g id="node5" class="node">
<title>1</title>
<ellipse fill="lightblue" stroke="black" cx="666" cy="-178.77" rx="16.03" ry="16.03"/>
<text text-anchor="middle" x="666" y="-176.57" font-family="Times,serif" font-size="9.00">1</text>
</g>
<!-- &#45;1&#45;&gt;1 -->
<g id="edge38" class="edge">
<title>&#45;1&#45;&gt;1</title>
<path fill="none" stroke="red" stroke-width="0.19" d="M498.94,-613.91C505.58,-602.54 517.53,-581.38 526,-562.48 585.06,-430.65 638.97,-265.65 658.38,-204.26"/>
<polygon fill="red" stroke="red" stroke-width="0.19" points="661.73,-205.26 661.39,-194.67 655.05,-203.16 661.73,-205.26"/>
</g>
<!-- 2 -->
<g id="node6" class="node">
<title>2</title>
<ellipse fill="lightblue" stroke="black" cx="748" cy="-16.26" rx="16.03" ry="16.03"/>
<text text-anchor="middle" x="748" y="-14.06" font-family="Times,serif" font-size="9.00">2</text>
</g>
<!-- &#45;1&#45;&gt;2 -->
<g id="edge39" class="edge">
<title>&#45;1&#45;&gt;2</title>
<path fill="none" stroke="green" stroke-width="1.19" stroke-dasharray="1,5" d="M507.09,-618.93C531.44,-612.17 584.12,-594.64 616,-562.48 648.6,-529.59 643.51,-511.38 661,-468.5 694.34,-386.79 705.82,-366.68 725,-280.53 739.97,-213.31 736.33,-195.15 742,-126.51 744.35,-98.01 746.01,-65.24 746.98,-43.09"/>
<polygon fill="green" stroke="green" stroke-width="1.19" points="750.49,-42.98 747.41,-32.84 743.5,-42.68 750.49,-42.98"/>
</g>
<!-- 3 -->
<g id="node7" class="node">
<title>3</title>
<ellipse fill="lightblue" stroke="black" cx="426" cy="-178.77" rx="16.03" ry="16.03"/>
<text text-anchor="middle" x="426" y="-176.57" font-family="Times,serif" font-size="9.00">3</text>
</g>
<!-- &#45;1&#45;&gt;3 -->
<g id="edge40" class="edge">
<title>&#45;1&#45;&gt;3</title>
<path fill="none" stroke="red" stroke-width="0.6" d="M494,-613.9C494,-588.12 494,-507.39 494,-440.51 494,-440.51 494,-440.51 494,-344.53 494,-289.28 460.93,-230.96 440.91,-200.73"/>
<polygon fill="red" stroke="red" stroke-width="0.6" points="443.69,-198.58 435.17,-192.28 437.9,-202.52 443.69,-198.58"/>
</g>
<!-- 1544 -->
<g id="node9" class="node">
<title>1544</title>
<ellipse fill="white" stroke="black" cx="399" cy="-533.49" rx="28.98" ry="28.98"/>
<text text-anchor="middle" x="399" y="-531.29" font-family="Times,serif" font-size="9.00">1544</text>
</g>
<!-- &#45;1&#45;&gt;1544 -->
<g id="edge67" class="edge">
<title>&#45;1&#45;&gt;1544</title>
<path fill="none" stroke="green" stroke-width="0.42" d="M485.23,-614.13C472.26,-602.15 447.35,-579.14 427.62,-560.93"/>
<polygon fill="green" stroke="green" stroke-width="0.42" points="429.8,-558.18 420.08,-553.96 425.06,-563.32 429.8,-558.18"/>
</g>
<!-- 1037 -->
<g id="node10" class="node">
<title>1037</title>
<ellipse fill="white" stroke="black" cx="334" cy="-439.51" rx="28.98" ry="28.98"/>
<text text-anchor="middle" x="334" y="-437.31" font-family="Times,serif" font-size="9.00">1037</text>
</g>
<!-- &#45;1&#45;&gt;1037 -->
<g id="edge50" class="edge">
<title>&#45;1&#45;&gt;1037</title>
<path fill="none" stroke="red" stroke-width="0.1" d="M480.67,-620.26C453.64,-615.54 392.32,-600.96 361,-562.48 341.93,-539.05 335.62,-505 333.83,-478.83"/>
<polygon fill="red" stroke="red" stroke-width="0.1" points="337.31,-478.33 333.32,-468.51 330.31,-478.67 337.31,-478.33"/>
</g>
<!-- 712 -->
<g id="node16" class="node">
<title>712</title>
<ellipse fill="white" stroke="black" cx="547" cy="-255.79" rx="25" ry="25"/>
<text text-anchor="middle" x="547" y="-253.59" font-family="Times,serif" font-size="9.00">712</text>
</g>
<!-- &#45;1&#45;&gt;712 -->
<g id="edge1" class="edge">
<title>&#45;1&#45;&gt;712</title>
<path fill="none" stroke="green" stroke-width="0.12" stroke-dasharray="1,5" d="M496.17,-614.17C499.18,-602.74 504.63,-581.15 508,-562.48 525.67,-464.54 538.25,-347.54 543.81,-290.88"/>
<polygon fill="green" stroke="green" stroke-width="0.12" points="547.32,-290.99 544.8,-280.7 540.35,-290.31 547.32,-290.99"/>
</g>
<!-- 713 -->
<g id="node17" class="node">
<title>713</title>
<ellipse fill="white" stroke="black" cx="691" cy="-255.79" rx="25" ry="25"/>
<text text-anchor="middle" x="691" y="-253.59" font-family="Times,serif" font-size="9.00">713</text>
</g>
<!-- &#45;1&#45;&gt;713 -->
<g id="edge2" class="edge">
<title>&#45;1&#45;&gt;713</title>
<path fill="none" stroke="red" stroke-width="0.15" d="M507.28,-616.75C526.8,-608.05 563.17,-589.28 584,-562.48 649.43,-478.3 676.64,-351.11 686.35,-290.81"/>
<polygon fill="red" stroke="red" stroke-width="0.15" points="689.84,-291.11 687.91,-280.7 682.92,-290.04 689.84,-291.11"/>
</g>
<!-- 715 -->
<g id="node19" class="node">
<title>715</title>
<ellipse fill="white" stroke="black" cx="408" cy="-439.51" rx="25" ry="25"/>
<text text-anchor="middle" x="408" y="-437.31" font-family="Times,serif" font-size="9.00">715</text>
</g>
<!-- &#45;1&#45;&gt;715 -->
<g id="edge3" class="edge">
<title>&#45;1&#45;&gt;715</title>
<path fill="none" stroke="red" stroke-width="0.18" d="M490.08,-613.95C478.32,-589.1 442.89,-514.23 422.63,-471.42"/>
<polygon fill="red" stroke="red" stroke-width="0.18" points="425.75,-469.84 418.31,-462.29 419.42,-472.83 425.75,-469.84"/>
</g>
<!-- &#45;2 -->
<g id="node2" class="node">
<title>&#45;2</title>
<polygon fill="lightgray" stroke="black" points="507,-717.73 481,-717.73 481,-699.73 507,-699.73 507,-717.73"/>
<text text-anchor="middle" x="494" y="-706.53" font-family="Times,serif" font-size="9.00">&#45;2</text>
</g>
<!-- &#45;2&#45;&gt;1 -->
<g id="edge41" class="edge">
<title>&#45;2&#45;&gt;1</title>
<path fill="none" stroke="green" stroke-width="0.58" d="M507.17,-701.69C542.8,-684.74 642.11,-633.3 698,-562.48 753.83,-491.75 756.79,-462.97 774,-374.52 786.87,-308.37 767.79,-283.1 725,-231.04 713.91,-217.54 699.05,-204.65 687.02,-195.18"/>
<polygon fill="green" stroke="green" stroke-width="0.58" points="688.92,-192.22 678.85,-188.92 684.66,-197.78 688.92,-192.22"/>
</g>
<!-- &#45;2&#45;&gt;3 -->
<g id="edge42" class="edge">
<title>&#45;2&#45;&gt;3</title>
<path fill="none" stroke="green" stroke-width="1.6" d="M480.81,-705.79C427.14,-697.08 228,-656.56 228,-534.49 228,-534.49 228,-534.49 228,-438.51 228,-379.85 357.96,-246.41 407.3,-197.86"/>
<polygon fill="green" stroke="green" stroke-width="1.6" points="409.8,-200.32 414.5,-190.82 404.9,-195.32 409.8,-200.32"/>
</g>
<!-- 4 -->
<g id="node8" class="node">
<title>4</title>
<ellipse fill="lightblue" stroke="black" cx="1121" cy="-255.79" rx="16.03" ry="16.03"/>
<text text-anchor="middle" x="1121" y="-253.59" font-family="Times,serif" font-size="9.00">4</text>
</g>
<!-- &#45;2&#45;&gt;4 -->
<g id="edge43" class="edge">
<title>&#45;2&#45;&gt;4</title>
<path fill="none" stroke="red" stroke-width="0.4" d="M507.34,-707.63C568.66,-706.46 826.59,-693.62 969,-562.48 1057.63,-480.87 1025.21,-422.25 1083,-316.53 1090.09,-303.56 1098.91,-289.58 1106.27,-278.41"/>
<polygon fill="red" stroke="red" stroke-width="0.4" points="1109.39,-280.03 1112.03,-269.77 1103.57,-276.15 1109.39,-280.03"/>
</g>
<!-- 710 -->
<g id="node15" class="node">
<title>710</title>
<ellipse fill="white" stroke="black" cx="1054" cy="-623.23" rx="25" ry="25"/>
<text text-anchor="middle" x="1054" y="-621.03" font-family="Times,serif" font-size="9.00">710</text>
</g>
<!-- &#45;2&#45;&gt;710 -->
<g id="edge4" class="edge">
<title>&#45;2&#45;&gt;710</title>
<path fill="none" stroke="red" stroke-width="1.12" stroke-dasharray="1,5" d="M507.17,-705.89C558.39,-698.74 749.17,-671.93 906,-647.98 945,-642.02 989.72,-634.79 1019.71,-629.88"/>
<polygon fill="red" stroke="red" stroke-width="1.12" points="1020.36,-633.32 1029.66,-628.25 1019.23,-626.42 1020.36,-633.32"/>
</g>
<!-- &#45;2&#45;&gt;712 -->
<g id="edge69" class="edge">
<title>&#45;2&#45;&gt;712</title>
<path fill="none" stroke="green" stroke-width="0.11" d="M497.73,-699.4C502.68,-688.02 511.32,-666.86 516,-647.98 545.48,-528.99 544.22,-496.86 552,-374.52 553.64,-348.8 553.08,-342.28 552,-316.53 551.65,-308.2 551.03,-299.22 550.34,-290.83"/>
<polygon fill="green" stroke="green" stroke-width="0.11" points="553.81,-290.26 549.45,-280.6 546.83,-290.86 553.81,-290.26"/>
</g>
<!-- &#45;2&#45;&gt;715 -->
<g id="edge5" class="edge">
<title>&#45;2&#45;&gt;715</title>
<path fill="none" stroke="green" stroke-width="0.35" d="M482.08,-699.66C454.36,-680.07 386.02,-626.86 361,-562.48 351.66,-538.46 352.97,-528.99 361,-504.5 365.73,-490.06 375.11,-476.19 384.24,-465.08"/>
<polygon fill="green" stroke="green" stroke-width="0.35" points="386.9,-467.36 390.79,-457.5 381.6,-462.78 386.9,-467.36"/>
</g>
<!-- 716 -->
<g id="node20" class="node">
<title>716</title>
<ellipse fill="white" stroke="black" cx="251" cy="-255.79" rx="25" ry="25"/>
<text text-anchor="middle" x="251" y="-253.59" font-family="Times,serif" font-size="9.00">716</text>
</g>
<!-- &#45;2&#45;&gt;716 -->
<g id="edge6" class="edge">
<title>&#45;2&#45;&gt;716</title>
<path fill="none" stroke="red" stroke-width="0.11" d="M480.9,-708.32C421.02,-710.21 173.19,-708.87 100,-562.48 47.14,-456.76 168.61,-329.98 224.61,-279.31"/>
<polygon fill="red" stroke="red" stroke-width="0.11" points="227.24,-281.67 232.37,-272.4 222.58,-276.44 227.24,-281.67"/>
</g>
<!-- 722 -->
<g id="node23" class="node">
<title>722</title>
<ellipse fill="white" stroke="black" cx="365" cy="-345.53" rx="25" ry="25"/>
<text text-anchor="middle" x="365" y="-343.33" font-family="Times,serif" font-size="9.00">722</text>
</g>
<!-- &#45;2&#45;&gt;722 -->
<g id="edge7" class="edge">
<title>&#45;2&#45;&gt;722</title>
<path fill="none" stroke="red" stroke-width="0.63" stroke-dasharray="1,5" d="M480.66,-704.02C456.88,-696.82 406.81,-678.87 376,-647.98 314.33,-586.14 312.28,-554.3 296,-468.5 291.2,-443.18 285.69,-434.14 296,-410.52 304.14,-391.87 320.69,-376.22 335.55,-365.06"/>
<polygon fill="red" stroke="red" stroke-width="0.63" points="337.9,-367.68 344.02,-359.02 333.84,-361.98 337.9,-367.68"/>
</g>
<!-- &#45;3 -->
<g id="node3" class="node">
<title>&#45;3</title>
<polygon fill="lightgray" stroke="black" points="773,-787.48 747,-787.48 747,-769.48 773,-769.48 773,-787.48"/>
<text text-anchor="middle" x="760" y="-776.28" font-family="Times,serif" font-size="9.00">&#45;3</text>
</g>
<!-- &#45;3&#45;&gt;0 -->
<g id="edge44" class="edge">
<title>&#45;3&#45;&gt;0</title>
<path fill="none" stroke="red" stroke-width="0.27" d="M746.92,-777.28C657.97,-775.82 143.63,-766.05 83,-733.48 29.28,-704.62 0,-685.21 0,-624.23 0,-624.23 0,-624.23 0,-177.77 0,-124.19 10.09,-103.14 51,-68.53 97.05,-29.57 170.45,-20.07 209.52,-17.85"/>
<polygon fill="red" stroke="red" stroke-width="0.27" points="209.74,-21.35 219.57,-17.4 209.43,-14.35 209.74,-21.35"/>
</g>
<!-- &#45;3&#45;&gt;2 -->
<g id="edge45" class="edge">
<title>&#45;3&#45;&gt;2</title>
<path fill="none" stroke="green" stroke-width="1.08" d="M773.2,-777.27C865.11,-775.48 1406,-759.24 1406,-624.23 1406,-624.23 1406,-624.23 1406,-177.77 1406,-106.63 1353.88,-97.72 1289,-68.53 1195.38,-26.4 869.95,-18.85 774.5,-17.53"/>
<polygon fill="green" stroke="green" stroke-width="1.08" points="774.32,-14.03 764.28,-17.41 774.23,-21.03 774.32,-14.03"/>
</g>
<!-- &#45;3&#45;&gt;3 -->
<g id="edge46" class="edge">
<title>&#45;3&#45;&gt;3</title>
<path fill="none" stroke="green" stroke-width="0.18" d="M746.85,-777.59C649,-778.08 38,-775.12 38,-624.23 38,-624.23 38,-624.23 38,-532.49 38,-375.68 179.31,-396.38 285,-280.53 304.44,-259.22 304.43,-249.01 327,-231.04 349.9,-212.8 380.3,-198.22 401.34,-189.34"/>
<polygon fill="green" stroke="green" stroke-width="0.18" points="402.92,-192.47 410.85,-185.45 400.27,-186 402.92,-192.47"/>
</g>
<!-- &#45;3&#45;&gt;4 -->
<g id="edge47" class="edge">
<title>&#45;3&#45;&gt;4</title>
<path fill="none" stroke="green" stroke-width="0.39" d="M773.01,-777.77C818.17,-778.38 971.75,-776.93 1088,-733.48 1170.73,-702.55 1254,-712.55 1254,-624.23 1254,-624.23 1254,-624.23 1254,-438.51 1254,-380.57 1243.74,-362.13 1208,-316.53 1191.08,-294.95 1164.19,-278.17 1144.79,-267.97"/>
<polygon fill="green" stroke="green" stroke-width="0.39" points="1146.18,-264.75 1135.68,-263.37 1143.02,-271 1146.18,-264.75"/>
</g>
<!-- &#45;3&#45;&gt;712 -->
<g id="edge8" class="edge">
<title>&#45;3&#45;&gt;712</title>
<path fill="none" stroke="red" stroke-width="0.44" d="M760,-769.17C760,-746.15 760,-679.57 760,-624.23 760,-624.23 760,-624.23 760,-438.51 760,-345.23 640.31,-289.68 580.38,-267.72"/>
<polygon fill="red" stroke="red" stroke-width="0.44" points="581.2,-264.29 570.61,-264.24 578.86,-270.89 581.2,-264.29"/>
</g>
<!-- 721 -->
<g id="node22" class="node">
<title>721</title>
<ellipse fill="white" stroke="black" cx="1054" cy="-708.73" rx="25" ry="25"/>
<text text-anchor="middle" x="1054" y="-706.53" font-family="Times,serif" font-size="9.00">721</text>
</g>
<!-- &#45;3&#45;&gt;721 -->
<g id="edge9" class="edge">
<title>&#45;3&#45;&gt;721</title>
<path fill="none" stroke="red" stroke-width="0.17" d="M773.01,-774.48C816.07,-764.56 954.86,-732.58 1019.84,-717.6"/>
<polygon fill="red" stroke="red" stroke-width="0.17" points="1021.02,-720.92 1029.98,-715.26 1019.45,-714.1 1021.02,-720.92"/>
</g>
<!-- &#45;3&#45;&gt;722 -->
<g id="edge10" class="edge">
<title>&#45;3&#45;&gt;722</title>
<path fill="none" stroke="green" stroke-width="1.42" stroke-dasharray="1,5" d="M746.75,-776.87C661.17,-772.57 190,-743.48 190,-624.23 190,-624.23 190,-624.23 190,-532.49 190,-449.61 283.33,-388.6 333.67,-361.73"/>
<polygon fill="green" stroke="green" stroke-width="1.42" points="335.58,-364.68 342.84,-356.96 332.35,-358.47 335.58,-364.68"/>
</g>
<!-- 1301 -->
<g id="node11" class="node">
<title>1301</title>
<ellipse fill="white" stroke="black" cx="489" cy="-97.52" rx="28.98" ry="28.98"/>
<text text-anchor="middle" x="489" y="-95.32" font-family="Times,serif" font-size="9.00">1301</text>
</g>
<!-- 3&#45;&gt;1301 -->
<g id="edge73" class="edge">
<title>3&#45;&gt;1301</title>
<path fill="none" stroke="red" stroke-width="0.19" d="M435.84,-165.39C443.62,-155.6 454.82,-141.52 464.93,-128.8"/>
<polygon fill="red" stroke="red" stroke-width="0.19" points="467.88,-130.71 471.37,-120.7 462.4,-126.35 467.88,-130.71"/>
</g>
<!-- 1544&#45;&gt;715 -->
<g id="edge68" class="edge">
<title>1544&#45;&gt;715</title>
<path fill="none" stroke="red" stroke-width="0.38" d="M401.75,-504.39C402.67,-495 403.7,-484.44 404.66,-474.64"/>
<polygon fill="red" stroke="red" stroke-width="0.38" points="408.17,-474.7 405.66,-464.4 401.2,-474.01 408.17,-474.7"/>
</g>
<!-- 1037&#45;&gt;722 -->
<g id="edge56" class="edge">
<title>1037&#45;&gt;722</title>
<path fill="none" stroke="green" stroke-width="0.32" d="M342.97,-411.9C346.44,-401.58 350.46,-389.67 354.1,-378.87"/>
<polygon fill="green" stroke="green" stroke-width="0.32" points="357.44,-379.93 357.31,-369.33 350.8,-377.69 357.44,-379.93"/>
</g>
<!-- 1301&#45;&gt;0 -->
<g id="edge55" class="edge">
<title>1301&#45;&gt;0</title>
<path fill="none" stroke="red" stroke-width="0.32" stroke-dasharray="1,5" d="M466.15,-79.61C459.86,-75.53 452.87,-71.5 446,-68.53 383.05,-41.3 302.96,-26.82 262.28,-20.77"/>
<polygon fill="red" stroke="red" stroke-width="0.32" points="262.53,-17.26 252.13,-19.31 261.53,-24.19 262.53,-17.26"/>
</g>
<!-- 1301&#45;&gt;2 -->
<g id="edge74" class="edge">
<title>1301&#45;&gt;2</title>
<path fill="none" stroke="green" stroke-width="0.44" d="M511.84,-79.58C518.13,-75.5 525.12,-71.48 532,-68.53 597.2,-40.57 680.3,-26.32 721.86,-20.51"/>
<polygon fill="green" stroke="green" stroke-width="0.44" points="722.52,-23.95 731.96,-19.15 721.58,-17.02 722.52,-23.95"/>
</g>
<!-- 1703 -->
<g id="node12" class="node">
<title>1703</title>
<ellipse fill="white" stroke="black" cx="179" cy="-97.52" rx="28.98" ry="28.98"/>
<text text-anchor="middle" x="179" y="-95.32" font-family="Times,serif" font-size="9.00">1703</text>
</g>
<!-- 1703&#45;&gt;0 -->
<g id="edge72" class="edge">
<title>1703&#45;&gt;0</title>
<path fill="none" stroke="green" stroke-width="0.57" d="M195.49,-73.59C203.58,-62.34 213.26,-48.88 221.12,-37.95"/>
<polygon fill="green" stroke="green" stroke-width="0.57" points="223.98,-39.97 226.98,-29.81 218.3,-35.88 223.98,-39.97"/>
</g>
<!-- 1324 -->
<g id="node13" class="node">
<title>1324</title>
<ellipse fill="white" stroke="black" cx="1121" cy="-345.53" rx="28.98" ry="28.98"/>
<text text-anchor="middle" x="1121" y="-343.33" font-family="Times,serif" font-size="9.00">1324</text>
</g>
<!-- 1324&#45;&gt;4 -->
<g id="edge59" class="edge">
<title>1324&#45;&gt;4</title>
<path fill="none" stroke="green" stroke-width="1.53" d="M1121,-316.28C1121,-305.42 1121,-293.1 1121,-282.49"/>
<polygon fill="green" stroke="green" stroke-width="1.53" points="1124.5,-282.2 1121,-272.2 1117.5,-282.2 1124.5,-282.2"/>
</g>
<!-- 831 -->
<g id="node14" class="node">
<title>831</title>
<ellipse fill="white" stroke="black" cx="935" cy="-533.49" rx="25" ry="25"/>
<text text-anchor="middle" x="935" y="-531.29" font-family="Times,serif" font-size="9.00">831</text>
</g>
<!-- 831&#45;&gt;0 -->
<g id="edge64" class="edge">
<title>831&#45;&gt;0</title>
<path fill="none" stroke="green" stroke-width="0.89" d="M939.08,-508.95C942.39,-483.57 944.56,-442.51 931,-410.52 871.14,-269.29 812.07,-256.69 691,-162.51 624.69,-110.93 605.99,-97.13 527,-68.53 433.33,-34.61 314.33,-22.65 262.32,-18.85"/>
<polygon fill="green" stroke="green" stroke-width="0.89" points="262.49,-15.36 252.27,-18.16 262.01,-22.34 262.49,-15.36"/>
</g>
<!-- 831&#45;&gt;2 -->
<g id="edge70" class="edge">
<title>831&#45;&gt;2</title>
<path fill="none" stroke="red" stroke-width="0.88" d="M946.21,-511.07C952.21,-498.87 959.31,-483.14 964,-468.5 980.85,-415.88 988,-401.78 988,-346.53 988,-346.53 988,-346.53 988,-177.77 988,-120.35 964.74,-103.25 919,-68.53 875.38,-35.41 810.5,-23.59 774.49,-19.44"/>
<polygon fill="red" stroke="red" stroke-width="0.88" points="774.61,-15.93 764.3,-18.38 773.89,-22.9 774.61,-15.93"/>
</g>
<!-- 1098 -->
<g id="node18" class="node">
<title>1098</title>
<ellipse fill="white" stroke="black" cx="893" cy="-439.51" rx="28.98" ry="28.98"/>
<text text-anchor="middle" x="893" y="-437.31" font-family="Times,serif" font-size="9.00">1098</text>
</g>
<!-- 831&#45;&gt;1098 -->
<g id="edge62" class="edge">
<title>831&#45;&gt;1098</title>
<path fill="none" stroke="green" stroke-width="0.21" d="M925.05,-510.69C920.22,-500.13 914.31,-487.18 908.89,-475.3"/>
<polygon fill="green" stroke="green" stroke-width="0.21" points="912.01,-473.71 904.67,-466.07 905.64,-476.62 912.01,-473.71"/>
</g>
<!-- 710&#45;&gt;1 -->
<g id="edge11" class="edge">
<title>710&#45;&gt;1</title>
<path fill="none" stroke="green" stroke-width="1.05" d="M1048.71,-598.69C1032.19,-530.67 974.98,-332.29 850,-231.04 803.68,-193.51 731.69,-183.41 692.92,-180.72"/>
<polygon fill="green" stroke="green" stroke-width="1.05" points="692.65,-177.2 682.46,-180.12 692.25,-184.19 692.65,-177.2"/>
</g>
<!-- 710&#45;&gt;2 -->
<g id="edge12" class="edge">
<title>710&#45;&gt;2</title>
<path fill="none" stroke="red" stroke-width="1.32" stroke-dasharray="1,5" d="M1078.13,-616.28C1138.64,-599.76 1292,-547.34 1292,-440.51 1292,-440.51 1292,-440.51 1292,-177.77 1292,-68.53 883.35,-28.08 774.41,-19.24"/>
<polygon fill="red" stroke="red" stroke-width="1.32" points="774.53,-15.73 764.28,-18.43 773.97,-22.71 774.53,-15.73"/>
</g>
<!-- 710&#45;&gt;4 -->
<g id="edge13" class="edge">
<title>710&#45;&gt;4</title>
<path fill="none" stroke="red" stroke-width="0.93" stroke-dasharray="1,5" d="M1077.1,-613.37C1097.9,-604.06 1127.38,-587.3 1142,-562.48 1197.61,-468.07 1189.62,-421.74 1159,-316.53 1154.77,-302 1145.82,-287.63 1137.67,-276.63"/>
<polygon fill="red" stroke="red" stroke-width="0.93" points="1140.32,-274.33 1131.41,-268.58 1134.79,-278.63 1140.32,-274.33"/>
</g>
<!-- 710&#45;&gt;1324 -->
<g id="edge58" class="edge">
<title>710&#45;&gt;1324</title>
<path fill="none" stroke="red" stroke-width="0.3" d="M1075.33,-610.12C1091.21,-599.76 1111.7,-583.25 1121,-562.48 1147.03,-504.39 1138.53,-428.37 1129.86,-383.75"/>
<polygon fill="red" stroke="red" stroke-width="0.3" points="1133.28,-383.01 1127.84,-373.92 1126.42,-384.42 1133.28,-383.01"/>
</g>
<!-- 710&#45;&gt;831 -->
<g id="edge48" class="edge">
<title>710&#45;&gt;831</title>
<path fill="none" stroke="red" stroke-width="0.26" d="M1034.35,-607.74C1014.88,-593.39 984.89,-571.27 962.95,-555.1"/>
<polygon fill="red" stroke="red" stroke-width="0.26" points="964.81,-552.12 954.68,-549 960.65,-557.75 964.81,-552.12"/>
</g>
<!-- 1483 -->
<g id="node21" class="node">
<title>1483</title>
<ellipse fill="white" stroke="black" cx="1083" cy="-533.49" rx="28.98" ry="28.98"/>
<text text-anchor="middle" x="1083" y="-531.29" font-family="Times,serif" font-size="9.00">1483</text>
</g>
<!-- 710&#45;&gt;1483 -->
<g id="edge63" class="edge">
<title>710&#45;&gt;1483</title>
<path fill="none" stroke="green" stroke-width="0.91" stroke-dasharray="1,5" d="M1061.47,-599.64C1064.36,-590.88 1067.75,-580.63 1070.97,-570.88"/>
<polygon fill="green" stroke="green" stroke-width="0.91" points="1074.3,-571.97 1074.11,-561.38 1067.65,-569.78 1074.3,-571.97"/>
</g>
<!-- 710&#45;&gt;722 -->
<g id="edge52" class="edge">
<title>710&#45;&gt;722</title>
<path fill="none" stroke="red" stroke-width="0.94" stroke-dasharray="1,5" d="M1031.16,-613.4C1001.23,-601.81 947.12,-580.78 901,-562.48 709.45,-486.5 480.23,-393.42 397.09,-359.6"/>
<polygon fill="red" stroke="red" stroke-width="0.94" points="398.27,-356.3 387.69,-355.77 395.63,-362.78 398.27,-356.3"/>
</g>
<!-- 712&#45;&gt;0 -->
<g id="edge14" class="edge">
<title>712&#45;&gt;0</title>
<path fill="none" stroke="red" stroke-width="0.13" stroke-dasharray="1,5" d="M531.32,-236.19C499.98,-199.95 426.08,-119.03 350,-68.53 321.49,-49.6 284.86,-34.55 260.92,-25.77"/>
<polygon fill="red" stroke="red" stroke-width="0.13" points="261.79,-22.36 251.19,-22.29 259.43,-28.95 261.79,-22.36"/>
</g>
<!-- 712&#45;&gt;1 -->
<g id="edge15" class="edge">
<title>712&#45;&gt;1</title>
<path fill="none" stroke="red" stroke-width="0.31" d="M567.73,-241.72C589.05,-228.28 622.15,-207.41 643.95,-193.67"/>
<polygon fill="red" stroke="red" stroke-width="0.31" points="645.94,-196.56 652.53,-188.26 642.2,-190.64 645.94,-196.56"/>
</g>
<!-- 712&#45;&gt;2 -->
<g id="edge16" class="edge">
<title>712&#45;&gt;2</title>
<path fill="none" stroke="red" stroke-width="0.35" d="M554.03,-231.92C566.78,-193.71 597.03,-116.39 646,-68.53 667.88,-47.14 700.46,-32.91 722.88,-24.98"/>
<polygon fill="red" stroke="red" stroke-width="0.35" points="724.03,-28.28 732.39,-21.77 721.79,-21.65 724.03,-28.28"/>
</g>
<!-- 712&#45;&gt;3 -->
<g id="edge17" class="edge">
<title>712&#45;&gt;3</title>
<path fill="none" stroke="green" stroke-width="0.51" stroke-dasharray="1,5" d="M526.2,-241.89C504.44,-228.4 470.42,-207.31 448.17,-193.51"/>
<polygon fill="green" stroke="green" stroke-width="0.51" points="449.76,-190.39 439.42,-188.09 446.07,-196.34 449.76,-190.39"/>
</g>
<!-- 712&#45;&gt;1301 -->
<g id="edge60" class="edge">
<title>712&#45;&gt;1301</title>
<path fill="none" stroke="red" stroke-width="0.4" d="M538.69,-232.4C529.23,-206.92 513.66,-164.95 502.46,-134.78"/>
<polygon fill="red" stroke="red" stroke-width="0.4" points="505.61,-133.21 498.85,-125.05 499.05,-135.64 505.61,-133.21"/>
</g>
<!-- 713&#45;&gt;1 -->
<g id="edge18" class="edge">
<title>713&#45;&gt;1</title>
<path fill="none" stroke="red" stroke-width="0.11" stroke-dasharray="1,5" d="M683.36,-231.87C680.47,-223.2 677.17,-213.3 674.23,-204.47"/>
<polygon fill="red" stroke="red" stroke-width="0.11" points="677.47,-203.12 670.99,-194.74 670.83,-205.33 677.47,-203.12"/>
</g>
<!-- 713&#45;&gt;2 -->
<g id="edge19" class="edge">
<title>713&#45;&gt;2</title>
<path fill="none" stroke="red" stroke-width="0.54" stroke-dasharray="1,5" d="M696.57,-231.58C707.35,-186.64 731,-88.1 742.07,-41.98"/>
<polygon fill="red" stroke="red" stroke-width="0.54" points="745.48,-42.75 744.41,-32.21 738.68,-41.12 745.48,-42.75"/>
</g>
<!-- 713&#45;&gt;3 -->
<g id="edge20" class="edge">
<title>713&#45;&gt;3</title>
<path fill="none" stroke="red" stroke-width="0.12" stroke-dasharray="1,5" d="M667.02,-248C617.06,-233.86 502.26,-201.36 451.24,-186.92"/>
<polygon fill="red" stroke="red" stroke-width="0.12" points="451.94,-183.48 441.37,-184.12 450.03,-190.21 451.94,-183.48"/>
</g>
<!-- 1098&#45;&gt;2 -->
<g id="edge57" class="edge">
<title>1098&#45;&gt;2</title>
<path fill="none" stroke="green" stroke-width="0.25" d="M906.22,-413.41C923.06,-379.05 950,-314.98 950,-256.79 950,-256.79 950,-256.79 950,-177.77 950,-88.54 827.67,-40.98 773.4,-24.28"/>
<polygon fill="green" stroke="green" stroke-width="0.25" points="774.1,-20.83 763.52,-21.35 772.11,-27.55 774.1,-20.83"/>
</g>
<!-- 1098&#45;&gt;722 -->
<g id="edge51" class="edge">
<title>1098&#45;&gt;722</title>
<path fill="none" stroke="green" stroke-width="0.39" d="M864.65,-433.4C833.21,-427.76 781,-418.41 736,-410.52 612.2,-388.8 465.06,-363.61 399.49,-352.41"/>
<polygon fill="green" stroke="green" stroke-width="0.39" points="399.76,-348.9 389.32,-350.67 398.58,-355.8 399.76,-348.9"/>
</g>
<!-- 715&#45;&gt;0 -->
<g id="edge21" class="edge">
<title>715&#45;&gt;0</title>
<path fill="none" stroke="green" stroke-width="0.54" stroke-dasharray="1,5" d="M389.24,-423.29C383.77,-419.03 377.73,-414.48 372,-410.52 281.12,-347.61 228.91,-366.94 160,-280.53 99.51,-204.68 53.63,-148.88 108,-68.53 130.58,-35.16 178.81,-23.51 209.19,-19.44"/>
<polygon fill="green" stroke="green" stroke-width="0.54" points="209.96,-22.88 219.5,-18.26 209.16,-15.92 209.96,-22.88"/>
</g>
<!-- 715&#45;&gt;2 -->
<g id="edge22" class="edge">
<title>715&#45;&gt;2</title>
<path fill="none" stroke="green" stroke-width="0.55" stroke-dasharray="1,5" d="M427.78,-424.28C462.34,-398.66 534.45,-341.7 581,-280.53 616.64,-233.71 610.11,-212.6 641,-162.51 669.93,-115.6 709.64,-64.56 731.64,-37.23"/>
<polygon fill="green" stroke="green" stroke-width="0.55" points="734.55,-39.19 738.13,-29.22 729.12,-34.79 734.55,-39.19"/>
</g>
<!-- 715&#45;&gt;3 -->
<g id="edge23" class="edge">
<title>715&#45;&gt;3</title>
<path fill="none" stroke="red" stroke-width="0.52" d="M409.66,-414.63C413.05,-365.9 420.74,-255.37 424.22,-205.29"/>
<polygon fill="red" stroke="red" stroke-width="0.52" points="427.74,-205.23 424.94,-195.02 420.75,-204.75 427.74,-205.23"/>
</g>
<!-- 715&#45;&gt;4 -->
<g id="edge24" class="edge">
<title>715&#45;&gt;4</title>
<path fill="none" stroke="red" stroke-width="1.07" d="M432.13,-432.36C540.78,-404.67 984.06,-291.69 1095.49,-263.29"/>
<polygon fill="red" stroke="red" stroke-width="1.07" points="1096.67,-266.6 1105.49,-260.74 1094.94,-259.82 1096.67,-266.6"/>
</g>
<!-- 715&#45;&gt;722 -->
<g id="edge54" class="edge">
<title>715&#45;&gt;722</title>
<path fill="none" stroke="red" stroke-width="0.21" d="M397.81,-416.71C392.35,-405.03 385.52,-390.43 379.52,-377.58"/>
<polygon fill="red" stroke="red" stroke-width="0.21" points="382.52,-375.74 375.12,-368.17 376.18,-378.71 382.52,-375.74"/>
</g>
<!-- 716&#45;&gt;0 -->
<g id="edge25" class="edge">
<title>716&#45;&gt;0</title>
<path fill="none" stroke="red" stroke-width="0.13" stroke-dasharray="1,5" d="M268.45,-238.14C301.34,-204.68 366.16,-127.46 331,-68.53 316.09,-43.54 284.34,-30.01 261.64,-23.23"/>
<polygon fill="red" stroke="red" stroke-width="0.13" points="262.52,-19.84 251.95,-20.57 260.67,-26.59 262.52,-19.84"/>
</g>
<!-- 716&#45;&gt;1 -->
<g id="edge26" class="edge">
<title>716&#45;&gt;1</title>
<path fill="none" stroke="green" stroke-width="0.62" d="M275.41,-250.37C348.44,-237.17 564.81,-198.06 639.94,-184.48"/>
<polygon fill="green" stroke="green" stroke-width="0.62" points="640.75,-187.89 649.97,-182.67 639.51,-181.01 640.75,-187.89"/>
</g>
<!-- 716&#45;&gt;2 -->
<g id="edge27" class="edge">
<title>716&#45;&gt;2</title>
<path fill="none" stroke="green" stroke-width="0.18" d="M270.88,-240.83C287.04,-229.19 310.16,-211.85 329,-195.04 387.28,-143.03 381.98,-105.1 451,-68.53 541.4,-20.63 666.97,-15.99 721.25,-16.48"/>
<polygon fill="green" stroke="green" stroke-width="0.18" points="721.36,-19.98 731.41,-16.64 721.47,-12.98 721.36,-19.98"/>
</g>
<!-- 716&#45;&gt;3 -->
<g id="edge28" class="edge">
<title>716&#45;&gt;3</title>
<path fill="none" stroke="red" stroke-width="0.12" d="M271.18,-241.34C277.1,-237.72 283.68,-233.99 290,-231.04 335.07,-209.97 350.15,-214.37 396,-195.04 398.36,-194.04 400.78,-192.94 403.19,-191.8"/>
<polygon fill="red" stroke="red" stroke-width="0.12" points="404.76,-194.93 412.16,-187.34 401.64,-188.66 404.76,-194.93"/>
</g>
<!-- 1524 -->
<g id="node24" class="node">
<title>1524</title>
<ellipse fill="white" stroke="black" cx="293" cy="-97.52" rx="28.98" ry="28.98"/>
<text text-anchor="middle" x="293" y="-95.32" font-family="Times,serif" font-size="9.00">1524</text>
</g>
<!-- 716&#45;&gt;1524 -->
<g id="edge65" class="edge">
<title>716&#45;&gt;1524</title>
<path fill="none" stroke="green" stroke-width="0.19" d="M257.2,-231.73C263.99,-206.44 275,-165.49 283.02,-135.66"/>
<polygon fill="green" stroke="green" stroke-width="0.19" points="286.5,-136.18 285.72,-125.61 279.74,-134.36 286.5,-136.18"/>
</g>
<!-- 721&#45;&gt;0 -->
<g id="edge29" class="edge">
<title>721&#45;&gt;0</title>
<path fill="none" stroke="red" stroke-width="0.75" d="M1029.32,-706.66C932.39,-702.24 577.93,-683.9 472,-647.98 403.31,-624.69 384.26,-613.8 333,-562.48 229.1,-458.47 208.55,-419.31 160,-280.53 128.76,-191.24 92.53,-149.77 141,-68.53 155.91,-43.54 187.66,-30.01 210.36,-23.23"/>
<polygon fill="red" stroke="red" stroke-width="0.75" points="211.33,-26.59 220.05,-20.57 209.48,-19.84 211.33,-26.59"/>
</g>
<!-- 721&#45;&gt;1 -->
<g id="edge30" class="edge">
<title>721&#45;&gt;1</title>
<path fill="none" stroke="green" stroke-width="0.27" d="M1078.49,-704.31C1146.04,-693.37 1330,-652.73 1330,-534.49 1330,-534.49 1330,-534.49 1330,-344.53 1330,-248.44 1236.91,-262.13 1146,-231.04 1060.83,-201.91 780.62,-185.57 692.66,-181.07"/>
<polygon fill="green" stroke="green" stroke-width="0.27" points="692.63,-177.56 682.46,-180.55 692.27,-184.55 692.63,-177.56"/>
</g>
<!-- 721&#45;&gt;2 -->
<g id="edge31" class="edge">
<title>721&#45;&gt;2</title>
<path fill="none" stroke="green" stroke-width="1.44" stroke-dasharray="1,5" d="M1079.04,-707.42C1125.78,-705.67 1227.69,-696.14 1295,-647.98 1343.77,-613.08 1368,-594.46 1368,-534.49 1368,-534.49 1368,-534.49 1368,-177.77 1368,-88.34 1283.21,-98.65 1199,-68.53 1119.74,-40.18 858.69,-23.44 774.45,-18.68"/>
<polygon fill="green" stroke="green" stroke-width="1.44" points="774.61,-15.18 764.43,-18.12 774.22,-22.17 774.61,-15.18"/>
</g>
<!-- 721&#45;&gt;4 -->
<g id="edge32" class="edge">
<title>721&#45;&gt;4</title>
<path fill="none" stroke="red" stroke-width="1.08" d="M1076.19,-697.12C1120.55,-674.17 1216,-615.4 1216,-534.49 1216,-534.49 1216,-534.49 1216,-438.51 1216,-381.99 1208.72,-365.21 1180,-316.53 1170.03,-299.64 1154.25,-284 1141.51,-272.97"/>
<polygon fill="red" stroke="red" stroke-width="1.08" points="1143.59,-270.14 1133.68,-266.41 1139.1,-275.51 1143.59,-270.14"/>
</g>
<!-- 721&#45;&gt;710 -->
<g id="edge53" class="edge">
<title>721&#45;&gt;710</title>
<path fill="none" stroke="red" stroke-width="0.35" d="M1054,-683.58C1054,-675.63 1054,-666.65 1054,-658.12"/>
<polygon fill="red" stroke="red" stroke-width="0.35" points="1057.5,-658.04 1054,-648.04 1050.5,-658.04 1057.5,-658.04"/>
</g>
<!-- 721&#45;&gt;713 -->
<g id="edge61" class="edge">
<title>721&#45;&gt;713</title>
<path fill="none" stroke="green" stroke-width="0.28" d="M1034.61,-692.91C1003.47,-668.39 941.68,-616.67 901,-562.48 827.13,-464.1 854.35,-409.69 774,-316.53 759.22,-299.41 738.6,-284.53 721.6,-273.9"/>
<polygon fill="green" stroke="green" stroke-width="0.28" points="722.96,-270.63 712.6,-268.45 719.34,-276.62 722.96,-270.63"/>
</g>
<!-- 722&#45;&gt;0 -->
<g id="edge33" class="edge">
<title>722&#45;&gt;0</title>
<path fill="none" stroke="red" stroke-width="0.27" stroke-dasharray="1,5" d="M342.02,-336.17C302.29,-321.51 224.3,-291.65 217,-280.53 204.15,-260.98 223.9,-105.06 232.41,-42.8"/>
<polygon fill="red" stroke="red" stroke-width="0.27" points="235.91,-43.04 233.81,-32.65 228.97,-42.08 235.91,-43.04"/>
</g>
<!-- 722&#45;&gt;2 -->
<g id="edge34" class="edge">
<title>722&#45;&gt;2</title>
<path fill="none" stroke="red" stroke-width="0.25" stroke-dasharray="1,5" d="M377.17,-323.56C407.84,-272.51 493.45,-140.65 599,-68.53 637.39,-42.29 690.48,-28.3 721.83,-21.85"/>
<polygon fill="red" stroke="red" stroke-width="0.25" points="722.81,-25.23 731.95,-19.88 721.47,-18.36 722.81,-25.23"/>
</g>
<!-- 722&#45;&gt;3 -->
<g id="edge35" class="edge">
<title>722&#45;&gt;3</title>
<path fill="none" stroke="red" stroke-width="0.26" d="M372.28,-321.74C379.77,-298.69 392,-262.14 404,-231.04 407.55,-221.85 411.75,-211.86 415.52,-203.17"/>
<polygon fill="red" stroke="red" stroke-width="0.26" points="418.73,-204.58 419.55,-194.02 412.32,-201.76 418.73,-204.58"/>
</g>
<!-- 722&#45;&gt;4 -->
<g id="edge36" class="edge">
<title>722&#45;&gt;4</title>
<path fill="none" stroke="green" stroke-width="0.26" d="M389.72,-341.66C503.62,-328.44 977.18,-273.48 1094.58,-259.85"/>
<polygon fill="green" stroke="green" stroke-width="0.26" points="1095.27,-263.29 1104.8,-258.67 1094.47,-256.34 1095.27,-263.29"/>
</g>
<!-- 722&#45;&gt;1703 -->
<g id="edge71" class="edge">
<title>722&#45;&gt;1703</title>
<path fill="none" stroke="red" stroke-width="0.33" d="M341.71,-336.67C293.38,-320.33 186.43,-283.87 184,-280.53 153.37,-238.45 160.07,-175.2 168.76,-135.42"/>
<polygon fill="red" stroke="red" stroke-width="0.33" points="172.19,-136.13 171.05,-125.6 165.37,-134.54 172.19,-136.13"/>
</g>
<!-- 722&#45;&gt;712 -->
<g id="edge49" class="edge">
<title>722&#45;&gt;712</title>
<path fill="none" stroke="red" stroke-width="0.6" stroke-dasharray="1,5" d="M386.95,-333.94C419.07,-318.46 479,-289.57 515.72,-271.87"/>
<polygon fill="red" stroke="red" stroke-width="0.6" points="517.48,-274.9 524.97,-267.41 514.44,-268.6 517.48,-274.9"/>
</g>
<!-- 1524&#45;&gt;0 -->
<g id="edge66" class="edge">
<title>1524&#45;&gt;0</title>
<path fill="none" stroke="green" stroke-width="0.26" d="M276.51,-73.59C268.42,-62.34 258.74,-48.88 250.88,-37.95"/>
<polygon fill="green" stroke="green" stroke-width="0.26" points="253.7,-35.88 245.02,-29.81 248.02,-39.97 253.7,-35.88"/>
</g>
</g>
</svg>
