<?xml version="1.0" encoding="UTF-8" standalone="no"?>
<!DOCTYPE svg PUBLIC "-//W3C//DTD SVG 1.1//EN"
 "http://www.w3.org/Graphics/SVG/1.1/DTD/svg11.dtd">
<!-- Generated by graphviz version 8.0.5 (20230430.1635)
 -->
<!-- Pages: 1 -->
<svg width="1675pt" height="247pt"
 viewBox="0.00 0.00 1675.31 246.93" xmlns="http://www.w3.org/2000/svg" xmlns:xlink="http://www.w3.org/1999/xlink">
<g id="graph0" class="graph" transform="scale(1 1) rotate(0) translate(4 242.93)">
<polygon fill="white" stroke="none" points="-4,4 -4,-242.93 1671.31,-242.93 1671.31,4 -4,4"/>
<!-- &#45;1 -->
<g id="node1" class="node">
<title>&#45;1</title>
<polygon fill="lightgray" stroke="black" points="686.75,-238.93 663.25,-238.93 663.25,-220.43 686.75,-220.43 686.75,-238.93"/>
<text text-anchor="middle" x="675" y="-226.38" font-family="Times,serif" font-size="9.00">&#45;1</text>
</g>
<!-- 128 -->
<g id="node9" class="node">
<title>128</title>
<ellipse fill="white" stroke="black" cx="809" cy="-85.85" rx="20.86" ry="20.86"/>
<text text-anchor="middle" x="809" y="-82.55" font-family="Times,serif" font-size="9.00">128</text>
</g>
<!-- &#45;1&#45;&gt;128 -->
<g id="edge12" class="edge">
<title>&#45;1&#45;&gt;128</title>
<path fill="none" stroke="green" stroke-width="0.11" d="M687.17,-223.17C702.27,-215.9 728.2,-201.95 746,-184.43 767.04,-163.73 784.61,-134.81 795.81,-113.83"/>
<polygon fill="green" stroke="green" stroke-width="0.11" points="798.84,-115.58 800.35,-105.09 792.63,-112.35 798.84,-115.58"/>
</g>
<!-- 129 -->
<g id="node10" class="node">
<title>129</title>
<ellipse fill="white" stroke="black" cx="253" cy="-85.85" rx="20.86" ry="20.86"/>
<text text-anchor="middle" x="253" y="-82.55" font-family="Times,serif" font-size="9.00">129</text>
</g>
<!-- &#45;1&#45;&gt;129 -->
<g id="edge13" class="edge">
<title>&#45;1&#45;&gt;129</title>
<path fill="none" stroke="red" stroke-width="0.31" d="M662.88,-228.29C577.31,-225.51 66.92,-207.94 45,-184.43 -10.08,-125.34 152.19,-98.67 222.37,-90.11"/>
<polygon fill="red" stroke="red" stroke-width="0.31" points="222.5,-93.62 232.02,-88.98 221.68,-86.67 222.5,-93.62"/>
</g>
<!-- 130 -->
<g id="node11" class="node">
<title>130</title>
<ellipse fill="white" stroke="black" cx="1207" cy="-85.85" rx="20.86" ry="20.86"/>
<text text-anchor="middle" x="1207" y="-82.55" font-family="Times,serif" font-size="9.00">130</text>
</g>
<!-- &#45;1&#45;&gt;130 -->
<g id="edge14" class="edge">
<title>&#45;1&#45;&gt;130</title>
<path fill="none" stroke="red" stroke-width="0.52" d="M687.04,-228.4C730.86,-227.12 885.68,-220.15 1007,-184.43 1073.22,-164.93 1144.43,-125.12 1181.41,-102.84"/>
<polygon fill="red" stroke="red" stroke-width="0.52" points="1182.9,-106.03 1189.62,-97.84 1179.26,-100.05 1182.9,-106.03"/>
</g>
<!-- 131 -->
<g id="node12" class="node">
<title>131</title>
<ellipse fill="white" stroke="black" cx="1049" cy="-85.85" rx="20.86" ry="20.86"/>
<text text-anchor="middle" x="1049" y="-82.55" font-family="Times,serif" font-size="9.00">131</text>
</g>
<!-- &#45;1&#45;&gt;131 -->
<g id="edge15" class="edge">
<title>&#45;1&#45;&gt;131</title>
<path fill="none" stroke="green" stroke-width="0.24" d="M687.16,-228.04C722.15,-225.83 825.59,-216.81 904,-184.43 951.23,-164.93 999.06,-128.87 1026.27,-106.47"/>
<polygon fill="green" stroke="green" stroke-width="0.24" points="1028.27,-109.36 1033.7,-100.26 1023.78,-103.98 1028.27,-109.36"/>
</g>
<!-- 132 -->
<g id="node13" class="node">
<title>132</title>
<ellipse fill="white" stroke="black" cx="389" cy="-85.85" rx="20.86" ry="20.86"/>
<text text-anchor="middle" x="389" y="-82.55" font-family="Times,serif" font-size="9.00">132</text>
</g>
<!-- &#45;1&#45;&gt;132 -->
<g id="edge16" class="edge">
<title>&#45;1&#45;&gt;132</title>
<path fill="none" stroke="green" stroke-width="0.3" d="M662.95,-227.53C621.78,-223.42 487.27,-208.38 452,-184.43 427.19,-167.58 409.94,-137.36 399.85,-115.01"/>
<polygon fill="green" stroke="green" stroke-width="0.3" points="403.12,-113.77 395.96,-105.97 396.69,-116.54 403.12,-113.77"/>
</g>
<!-- 117 -->
<g id="node14" class="node">
<title>117</title>
<ellipse fill="white" stroke="black" cx="989" cy="-85.85" rx="20.86" ry="20.86"/>
<text text-anchor="middle" x="989" y="-82.55" font-family="Times,serif" font-size="9.00">117</text>
</g>
<!-- &#45;1&#45;&gt;117 -->
<g id="edge1" class="edge">
<title>&#45;1&#45;&gt;117</title>
<path fill="none" stroke="red" stroke-width="0.69" d="M687.04,-227.42C717.02,-223.95 796.92,-212.54 857,-184.43 899.03,-164.77 940.99,-130.65 965.97,-108.42"/>
<polygon fill="red" stroke="red" stroke-width="0.69" points="969,-110.39 974.07,-101.09 964.3,-105.2 969,-110.39"/>
</g>
<!-- 118 -->
<g id="node15" class="node">
<title>118</title>
<ellipse fill="white" stroke="black" cx="869" cy="-85.85" rx="20.86" ry="20.86"/>
<text text-anchor="middle" x="869" y="-82.55" font-family="Times,serif" font-size="9.00">118</text>
</g>
<!-- &#45;1&#45;&gt;118 -->
<g id="edge2" class="edge">
<title>&#45;1&#45;&gt;118</title>
<path fill="none" stroke="green" stroke-width="0.61" d="M686.99,-225.15C706.74,-218.96 746.84,-204.86 776,-184.43 805.57,-163.71 833.28,-132.52 850.63,-111.01"/>
<polygon fill="green" stroke="green" stroke-width="0.61" points="853.29,-113.29 856.76,-103.28 847.8,-108.94 853.29,-113.29"/>
</g>
<!-- 119 -->
<g id="node16" class="node">
<title>119</title>
<ellipse fill="white" stroke="black" cx="689" cy="-85.85" rx="20.86" ry="20.86"/>
<text text-anchor="middle" x="689" y="-82.55" font-family="Times,serif" font-size="9.00">119</text>
</g>
<!-- &#45;1&#45;&gt;119 -->
<g id="edge3" class="edge">
<title>&#45;1&#45;&gt;119</title>
<path fill="none" stroke="green" stroke-width="1.02" d="M675.21,-220.11C675.66,-204.63 676.92,-170.95 680,-142.71 680.91,-134.45 682.2,-125.56 683.52,-117.34"/>
<polygon fill="green" stroke="green" stroke-width="1.02" points="687.1,-118.13 685.3,-107.69 680.2,-116.97 687.1,-118.13"/>
</g>
<!-- 120 -->
<g id="node17" class="node">
<title>120</title>
<ellipse fill="white" stroke="black" cx="509" cy="-85.85" rx="20.86" ry="20.86"/>
<text text-anchor="middle" x="509" y="-82.55" font-family="Times,serif" font-size="9.00">120</text>
</g>
<!-- &#45;1&#45;&gt;120 -->
<g id="edge4" class="edge">
<title>&#45;1&#45;&gt;120</title>
<path fill="none" stroke="red" stroke-width="0.23" d="M662.86,-221.47C649.26,-213.18 626.78,-198.86 609,-184.43 579.65,-160.6 548.97,-129.62 529.46,-109.03"/>
<polygon fill="red" stroke="red" stroke-width="0.23" points="532.2,-106.83 522.8,-101.94 527.1,-111.62 532.2,-106.83"/>
</g>
<!-- 121 -->
<g id="node18" class="node">
<title>121</title>
<ellipse fill="white" stroke="black" cx="749" cy="-85.85" rx="20.86" ry="20.86"/>
<text text-anchor="middle" x="749" y="-82.55" font-family="Times,serif" font-size="9.00">121</text>
</g>
<!-- &#45;1&#45;&gt;121 -->
<g id="edge5" class="edge">
<title>&#45;1&#45;&gt;121</title>
<path fill="none" stroke="red" stroke-width="0.47" d="M679.41,-220.23C690.16,-199.63 718.1,-146.09 735.12,-113.45"/>
<polygon fill="red" stroke="red" stroke-width="0.47" points="738.09,-115.33 739.62,-104.85 731.89,-112.09 738.09,-115.33"/>
</g>
<!-- 122 -->
<g id="node19" class="node">
<title>122</title>
<ellipse fill="white" stroke="black" cx="1109" cy="-85.85" rx="20.86" ry="20.86"/>
<text text-anchor="middle" x="1109" y="-82.55" font-family="Times,serif" font-size="9.00">122</text>
</g>
<!-- &#45;1&#45;&gt;122 -->
<g id="edge6" class="edge">
<title>&#45;1&#45;&gt;122</title>
<path fill="none" stroke="green" stroke-width="0.11" d="M687.13,-228.46C726.77,-227.38 855.66,-221.09 954,-184.43 1004.93,-165.45 1056.95,-128.31 1085.9,-105.73"/>
<polygon fill="green" stroke="green" stroke-width="0.11" points="1087.76,-108.72 1093.44,-99.77 1083.42,-103.23 1087.76,-108.72"/>
</g>
<!-- 123 -->
<g id="node20" class="node">
<title>123</title>
<ellipse fill="white" stroke="black" cx="449" cy="-85.85" rx="20.86" ry="20.86"/>
<text text-anchor="middle" x="449" y="-82.55" font-family="Times,serif" font-size="9.00">123</text>
</g>
<!-- &#45;1&#45;&gt;123 -->
<g id="edge7" class="edge">
<title>&#45;1&#45;&gt;123</title>
<path fill="none" stroke="green" stroke-width="0.64" d="M662.95,-225.57C641.28,-219.66 594.78,-205.47 560,-184.43 525.05,-163.28 490.64,-130.69 469.61,-109.07"/>
<polygon fill="green" stroke="green" stroke-width="0.64" points="472.2,-106.72 462.76,-101.92 467.15,-111.56 472.2,-106.72"/>
</g>
<!-- 124 -->
<g id="node21" class="node">
<title>124</title>
<ellipse fill="white" stroke="black" cx="629" cy="-85.85" rx="20.86" ry="20.86"/>
<text text-anchor="middle" x="629" y="-82.55" font-family="Times,serif" font-size="9.00">124</text>
</g>
<!-- &#45;1&#45;&gt;124 -->
<g id="edge8" class="edge">
<title>&#45;1&#45;&gt;124</title>
<path fill="none" stroke="red" stroke-width="0.31" d="M672.26,-220.23C665.7,-199.99 648.82,-147.95 638.19,-115.18"/>
<polygon fill="red" stroke="red" stroke-width="0.31" points="641.66,-114.52 635.24,-106.09 635,-116.68 641.66,-114.52"/>
</g>
<!-- 125 -->
<g id="node22" class="node">
<title>125</title>
<ellipse fill="white" stroke="black" cx="929" cy="-85.85" rx="20.86" ry="20.86"/>
<text text-anchor="middle" x="929" y="-82.55" font-family="Times,serif" font-size="9.00">125</text>
</g>
<!-- &#45;1&#45;&gt;125 -->
<g id="edge9" class="edge">
<title>&#45;1&#45;&gt;125</title>
<path fill="none" stroke="green" stroke-width="0.64" d="M687.18,-226.49C712.17,-221.64 770.58,-208.48 814,-184.43 850.84,-164.02 886.78,-130.75 908.41,-108.82"/>
<polygon fill="green" stroke="green" stroke-width="0.64" points="910.72,-111.47 915.18,-101.86 905.7,-106.59 910.72,-111.47"/>
</g>
<!-- 126 -->
<g id="node23" class="node">
<title>126</title>
<ellipse fill="white" stroke="black" cx="569" cy="-85.85" rx="20.86" ry="20.86"/>
<text text-anchor="middle" x="569" y="-82.55" font-family="Times,serif" font-size="9.00">126</text>
</g>
<!-- &#45;1&#45;&gt;126 -->
<g id="edge10" class="edge">
<title>&#45;1&#45;&gt;126</title>
<path fill="none" stroke="green" stroke-width="0.39" d="M668.69,-220.23C652.83,-199.01 610.86,-142.86 586.74,-110.58"/>
<polygon fill="green" stroke="green" stroke-width="0.39" points="589.81,-108.84 581.02,-102.93 584.2,-113.03 589.81,-108.84"/>
</g>
<!-- 127 -->
<g id="node24" class="node">
<title>127</title>
<ellipse fill="white" stroke="black" cx="75" cy="-163.57" rx="20.86" ry="20.86"/>
<text text-anchor="middle" x="75" y="-160.27" font-family="Times,serif" font-size="9.00">127</text>
</g>
<!-- &#45;1&#45;&gt;127 -->
<g id="edge11" class="edge">
<title>&#45;1&#45;&gt;127</title>
<path fill="none" stroke="green" stroke-width="0.35" d="M663.02,-227.4C591.1,-219.71 216.18,-179.65 105.68,-167.85"/>
<polygon fill="green" stroke="green" stroke-width="0.35" points="106.15,-164.38 95.83,-166.8 105.4,-171.34 106.15,-164.38"/>
</g>
<!-- &#45;2 -->
<g id="node2" class="node">
<title>&#45;2</title>
<polygon fill="lightgray" stroke="black" points="1180.75,-238.93 1157.25,-238.93 1157.25,-220.43 1180.75,-220.43 1180.75,-238.93"/>
<text text-anchor="middle" x="1169" y="-226.38" font-family="Times,serif" font-size="9.00">&#45;2</text>
</g>
<!-- &#45;2&#45;&gt;128 -->
<g id="edge28" class="edge">
<title>&#45;2&#45;&gt;128</title>
<path fill="none" stroke="green" stroke-width="0.13" d="M1177.54,-220.04C1193.14,-203.22 1222.82,-165.7 1202,-142.71 1147.59,-82.63 915.38,-133.88 839,-106.71 837.19,-106.07 835.39,-105.29 833.61,-104.42"/>
<polygon fill="green" stroke="green" stroke-width="0.13" points="835.47,-101.46 825.05,-99.52 831.99,-107.53 835.47,-101.46"/>
</g>
<!-- &#45;2&#45;&gt;129 -->
<g id="edge29" class="edge">
<title>&#45;2&#45;&gt;129</title>
<path fill="none" stroke="red" stroke-width="0.15" d="M1156.87,-228.47C1076.15,-226.95 615.95,-216.99 480,-184.43 403.99,-166.23 321.18,-124.5 279.76,-101.96"/>
<polygon fill="red" stroke="red" stroke-width="0.15" points="281.54,-98.94 271.09,-97.19 278.17,-105.08 281.54,-98.94"/>
</g>
<!-- &#45;2&#45;&gt;130 -->
<g id="edge30" class="edge">
<title>&#45;2&#45;&gt;130</title>
<path fill="none" stroke="green" stroke-width="0.24" d="M1181.13,-228.54C1253.36,-227.56 1624.8,-220.77 1658,-184.43 1670.51,-170.74 1670.28,-156.6 1658,-142.71 1630.12,-111.16 1335.14,-93.39 1237.9,-88.35"/>
<polygon fill="green" stroke="green" stroke-width="0.24" points="1238.25,-84.86 1228.08,-87.85 1237.89,-91.86 1238.25,-84.86"/>
</g>
<!-- &#45;2&#45;&gt;131 -->
<g id="edge31" class="edge">
<title>&#45;2&#45;&gt;131</title>
<path fill="none" stroke="red" stroke-width="0.11" d="M1180.9,-228.33C1245.71,-226.32 1554.41,-215.14 1582,-184.43 1594.4,-170.64 1594.64,-156.28 1582,-142.71 1543.82,-101.7 1132.05,-124.77 1079,-106.71 1077.19,-106.09 1075.37,-105.33 1073.59,-104.48"/>
<polygon fill="red" stroke="red" stroke-width="0.11" points="1075.45,-101.51 1065.02,-99.62 1071.99,-107.6 1075.45,-101.51"/>
</g>
<!-- &#45;2&#45;&gt;132 -->
<g id="edge32" class="edge">
<title>&#45;2&#45;&gt;132</title>
<path fill="none" stroke="green" stroke-width="0.16" d="M1157.04,-228.38C1083.91,-226.44 696.32,-214.85 582,-184.43 517.78,-167.34 450.1,-127.24 414.45,-104.11"/>
<polygon fill="green" stroke="green" stroke-width="0.16" points="416.38,-101.19 406.1,-98.62 412.53,-107.04 416.38,-101.19"/>
</g>
<!-- &#45;2&#45;&gt;117 -->
<g id="edge17" class="edge">
<title>&#45;2&#45;&gt;117</title>
<path fill="none" stroke="red" stroke-width="0.43" d="M1180.99,-228.19C1242.34,-225.58 1519.23,-212.3 1544,-184.43 1556.32,-170.57 1556.66,-156.26 1544,-142.71 1504.1,-99.98 1074.38,-125.47 1019,-106.71 1017.18,-106.09 1015.37,-105.34 1013.58,-104.49"/>
<polygon fill="red" stroke="red" stroke-width="0.43" points="1015.44,-101.52 1005.02,-99.63 1011.99,-107.61 1015.44,-101.52"/>
</g>
<!-- &#45;2&#45;&gt;118 -->
<g id="edge18" class="edge">
<title>&#45;2&#45;&gt;118</title>
<path fill="none" stroke="green" stroke-width="0.14" d="M1156.83,-224C1118.14,-208.94 994.91,-159.67 899,-106.71 897.36,-105.8 895.7,-104.84 894.03,-103.84"/>
<polygon fill="green" stroke="green" stroke-width="0.14" points="896.17,-101.05 885.84,-98.68 892.44,-106.97 896.17,-101.05"/>
</g>
<!-- &#45;2&#45;&gt;119 -->
<g id="edge19" class="edge">
<title>&#45;2&#45;&gt;119</title>
<path fill="none" stroke="red" stroke-width="0.38" d="M1167.54,-220.03C1163.99,-202.15 1153.18,-161.21 1126,-142.71 1050.94,-91.62 804.71,-136.69 719,-106.71 717.19,-106.08 715.38,-105.31 713.6,-104.45"/>
<polygon fill="red" stroke="red" stroke-width="0.38" points="715.46,-101.48 705.04,-99.56 711.99,-107.56 715.46,-101.48"/>
</g>
<!-- &#45;2&#45;&gt;120 -->
<g id="edge20" class="edge">
<title>&#45;2&#45;&gt;120</title>
<path fill="none" stroke="red" stroke-width="0.39" d="M1156.81,-224.52C1115.6,-210.65 977.53,-165.5 860,-142.71 719.07,-115.38 673.95,-155.7 539,-106.71 537.2,-106.06 535.39,-105.27 533.62,-104.4"/>
<polygon fill="red" stroke="red" stroke-width="0.39" points="535.48,-101.43 525.07,-99.48 531.99,-107.5 535.48,-101.43"/>
</g>
<!-- &#45;2&#45;&gt;121 -->
<g id="edge21" class="edge">
<title>&#45;2&#45;&gt;121</title>
<path fill="none" stroke="green" stroke-width="0.21" d="M1171.74,-219.94C1176.55,-202.59 1184.25,-163.68 1164,-142.71 1104.32,-80.89 860.04,-135.29 779,-106.71 777.19,-106.07 775.38,-105.3 773.6,-104.44"/>
<polygon fill="green" stroke="green" stroke-width="0.21" points="775.47,-101.47 765.05,-99.54 771.99,-107.55 775.47,-101.47"/>
</g>
<!-- &#45;2&#45;&gt;122 -->
<g id="edge22" class="edge">
<title>&#45;2&#45;&gt;122</title>
<path fill="none" stroke="red" stroke-width="0.1" d="M1181.07,-228.44C1249.79,-226.96 1589.62,-217.94 1620,-184.43 1632.46,-170.69 1632.57,-156.34 1620,-142.71 1586.53,-106.4 1225.57,-115.68 1177,-106.71 1164.06,-104.32 1150.05,-100.46 1138.13,-96.77"/>
<polygon fill="red" stroke="red" stroke-width="0.1" points="1139.27,-93.46 1128.68,-93.75 1137.14,-100.13 1139.27,-93.46"/>
</g>
<!-- &#45;2&#45;&gt;123 -->
<g id="edge23" class="edge">
<title>&#45;2&#45;&gt;123</title>
<path fill="none" stroke="red" stroke-width="0.15" d="M1156.89,-227.21C1115.38,-222.1 975.07,-204.39 860,-184.43 689.73,-154.9 638.65,-172.89 479,-106.71 477.27,-105.99 475.54,-105.17 473.82,-104.28"/>
<polygon fill="red" stroke="red" stroke-width="0.15" points="475.9,-101.44 465.5,-99.39 472.35,-107.48 475.9,-101.44"/>
</g>
<!-- &#45;2&#45;&gt;124 -->
<g id="edge24" class="edge">
<title>&#45;2&#45;&gt;124</title>
<path fill="none" stroke="green" stroke-width="0.13" d="M1160.35,-219.95C1151.61,-211.08 1137.75,-196.91 1126,-184.43 1108.82,-166.16 1110.5,-153.8 1088,-142.71 916.38,-58.13 839.75,-169.48 659,-106.71 657.19,-106.08 655.38,-105.32 653.6,-104.46"/>
<polygon fill="green" stroke="green" stroke-width="0.13" points="655.46,-101.49 645.04,-99.57 651.99,-107.57 655.46,-101.49"/>
</g>
<!-- &#45;2&#45;&gt;125 -->
<g id="edge25" class="edge">
<title>&#45;2&#45;&gt;125</title>
<path fill="none" stroke="green" stroke-width="1.33" d="M1180.9,-228.03C1238.21,-224.79 1484.02,-209.49 1506,-184.43 1518.23,-170.49 1518.68,-156.25 1506,-142.71 1464.37,-98.25 1016.72,-126.17 959,-106.71 957.79,-106.3 956.58,-105.83 955.38,-105.31"/>
<polygon fill="green" stroke="green" stroke-width="1.33" points="956.47,-101.37 946.02,-99.63 953.1,-107.51 956.47,-101.37"/>
</g>
<!-- &#45;2&#45;&gt;126 -->
<g id="edge26" class="edge">
<title>&#45;2&#45;&gt;126</title>
<path fill="none" stroke="red" stroke-width="0.25" d="M1156.99,-223.65C1140.49,-216.4 1110.31,-201.95 1088,-184.43 1068.28,-168.93 1072.52,-153.75 1050,-142.71 869.45,-54.19 789.09,-172.29 599,-106.71 597.19,-106.08 595.38,-105.32 593.59,-104.47"/>
<polygon fill="red" stroke="red" stroke-width="0.25" points="595.45,-101.5 585.03,-99.59 591.99,-107.58 595.45,-101.5"/>
</g>
<!-- &#45;2&#45;&gt;127 -->
<g id="edge27" class="edge">
<title>&#45;2&#45;&gt;127</title>
<path fill="none" stroke="red" stroke-width="0.45" d="M1157.09,-227.98C1051.17,-221.77 270.82,-176.05 105.66,-166.37"/>
<polygon fill="red" stroke="red" stroke-width="0.45" points="106.29,-162.9 96.1,-165.81 105.88,-169.89 106.29,-162.9"/>
</g>
<!-- &#45;3 -->
<g id="node3" class="node">
<title>&#45;3</title>
<polygon fill="lightgray" stroke="black" points="363.75,-238.93 340.25,-238.93 340.25,-220.43 363.75,-220.43 363.75,-238.93"/>
<text text-anchor="middle" x="352" y="-226.38" font-family="Times,serif" font-size="9.00">&#45;3</text>
</g>
<!-- &#45;3&#45;&gt;128 -->
<g id="edge43" class="edge">
<title>&#45;3&#45;&gt;128</title>
<path fill="none" stroke="green" stroke-width="0.1" d="M364.2,-227.36C399.85,-223.29 506.7,-209.71 592,-184.43 678.3,-158.86 699.56,-149.01 779,-106.71 780.66,-105.83 782.34,-104.88 784.01,-103.9"/>
<polygon fill="green" stroke="green" stroke-width="0.1" points="785.59,-107.04 792.22,-98.77 781.88,-101.1 785.59,-107.04"/>
</g>
<!-- &#45;3&#45;&gt;129 -->
<g id="edge44" class="edge">
<title>&#45;3&#45;&gt;129</title>
<path fill="none" stroke="red" stroke-width="0.19" d="M340,-228.04C282.19,-224.84 34.2,-209.7 12,-184.43 -49.43,-114.48 144.54,-93.91 222.26,-88.55"/>
<polygon fill="red" stroke="red" stroke-width="0.19" points="222.24,-92.06 232,-87.92 221.79,-85.07 222.24,-92.06"/>
</g>
<!-- &#45;3&#45;&gt;130 -->
<g id="edge45" class="edge">
<title>&#45;3&#45;&gt;130</title>
<path fill="none" stroke="red" stroke-width="0.37" d="M363.98,-228.35C435.55,-226.27 807.33,-214.18 917,-184.43 958,-173.31 962.93,-156.82 1003,-142.71 1070.53,-118.94 1091.88,-128.73 1160,-106.71 1166.35,-104.66 1173.02,-102.1 1179.29,-99.51"/>
<polygon fill="red" stroke="red" stroke-width="0.37" points="1180.27,-102.89 1188.08,-95.74 1177.51,-96.46 1180.27,-102.89"/>
</g>
<!-- &#45;3&#45;&gt;131 -->
<g id="edge46" class="edge">
<title>&#45;3&#45;&gt;131</title>
<path fill="none" stroke="red" stroke-width="0.38" d="M364.09,-228.23C431.63,-225.65 762.96,-211.77 861,-184.43 861.59,-184.27 1018.47,-107.01 1019,-106.71 1020.63,-105.78 1022.29,-104.79 1023.94,-103.78"/>
<polygon fill="red" stroke="red" stroke-width="0.38" points="1025.55,-106.9 1032.11,-98.58 1021.79,-101 1025.55,-106.9"/>
</g>
<!-- &#45;3&#45;&gt;132 -->
<g id="edge47" class="edge">
<title>&#45;3&#45;&gt;132</title>
<path fill="none" stroke="red" stroke-width="0.19" d="M339.86,-227.97C299.73,-225.36 172.46,-214.76 148,-184.43 136.36,-170 136.07,-156.91 148,-142.71 207.8,-71.56 266.52,-138.11 354,-106.71 357.03,-105.63 360.1,-104.29 363.09,-102.83"/>
<polygon fill="red" stroke="red" stroke-width="0.19" points="364.6,-105.99 371.76,-98.19 361.3,-99.82 364.6,-105.99"/>
</g>
<!-- &#45;3&#45;&gt;117 -->
<g id="edge33" class="edge">
<title>&#45;3&#45;&gt;117</title>
<path fill="none" stroke="green" stroke-width="0.11" d="M364,-229.01C416.51,-230.13 630.97,-231.43 798,-184.43 861.45,-166.58 928.47,-126.76 963.79,-103.89"/>
<polygon fill="green" stroke="green" stroke-width="0.11" points="965.62,-106.88 972.06,-98.47 961.78,-101.02 965.62,-106.88"/>
</g>
<!-- &#45;3&#45;&gt;118 -->
<g id="edge34" class="edge">
<title>&#45;3&#45;&gt;118</title>
<path fill="none" stroke="red" stroke-width="0.11" d="M364.16,-228.16C406.39,-226.12 550.42,-217.02 664,-184.43 745.81,-160.96 764.37,-147.61 839,-106.71 840.65,-105.81 842.32,-104.85 843.99,-103.85"/>
<polygon fill="red" stroke="red" stroke-width="0.11" points="845.57,-106.99 852.18,-98.7 841.85,-101.06 845.57,-106.99"/>
</g>
<!-- &#45;3&#45;&gt;119 -->
<g id="edge35" class="edge">
<title>&#45;3&#45;&gt;119</title>
<path fill="none" stroke="red" stroke-width="0.38" d="M351.55,-220C351.16,-202.41 353.02,-162.57 376,-142.71 423.98,-101.27 599.58,-128.78 659,-106.71 660.8,-106.04 662.6,-105.25 664.38,-104.37"/>
<polygon fill="red" stroke="red" stroke-width="0.38" points="666.01,-107.47 672.92,-99.43 662.51,-101.4 666.01,-107.47"/>
</g>
<!-- &#45;3&#45;&gt;120 -->
<g id="edge36" class="edge">
<title>&#45;3&#45;&gt;120</title>
<path fill="none" stroke="green" stroke-width="0.44" d="M339.83,-228.74C313.44,-228.14 251.15,-222.54 224,-184.43 213.25,-169.33 211.84,-156.71 224,-142.71 261.54,-99.51 425.49,-127 479,-106.71 480.8,-106.03 482.6,-105.23 484.37,-104.34"/>
<polygon fill="green" stroke="green" stroke-width="0.44" points="486.01,-107.43 492.9,-99.39 482.5,-101.38 486.01,-107.43"/>
</g>
<!-- &#45;3&#45;&gt;121 -->
<g id="edge37" class="edge">
<title>&#45;3&#45;&gt;121</title>
<path fill="none" stroke="red" stroke-width="0.65" d="M364.18,-225.88C411.41,-214.76 586.48,-171.19 719,-106.71 720.69,-105.89 722.39,-104.99 724.08,-104.04"/>
<polygon fill="red" stroke="red" stroke-width="0.65" points="725.62,-107.2 732.33,-99 721.97,-101.23 725.62,-107.2"/>
</g>
<!-- &#45;3&#45;&gt;123 -->
<g id="edge38" class="edge">
<title>&#45;3&#45;&gt;123</title>
<path fill="none" stroke="green" stroke-width="0.13" d="M340.2,-227.37C305.51,-223.26 205.18,-209.38 186,-184.43 174.71,-169.73 173.94,-156.79 186,-142.71 220.11,-102.94 370.14,-125.61 419,-106.71 420.8,-106.02 422.59,-105.2 424.36,-104.31"/>
<polygon fill="green" stroke="green" stroke-width="0.13" points="426.01,-107.4 432.89,-99.34 422.48,-101.35 426.01,-107.4"/>
</g>
<!-- &#45;3&#45;&gt;124 -->
<g id="edge39" class="edge">
<title>&#45;3&#45;&gt;124</title>
<path fill="none" stroke="red" stroke-width="0.41" d="M346.7,-220.15C336.89,-203.19 318.63,-164.94 338,-142.71 376.47,-98.57 544.23,-127.39 599,-106.71 600.8,-106.03 602.6,-105.23 604.37,-104.34"/>
<polygon fill="red" stroke="red" stroke-width="0.41" points="606.01,-107.44 612.91,-99.4 602.5,-101.38 606.01,-107.44"/>
</g>
<!-- &#45;3&#45;&gt;125 -->
<g id="edge40" class="edge">
<title>&#45;3&#45;&gt;125</title>
<path fill="none" stroke="red" stroke-width="0.27" d="M364.09,-228.66C411.82,-228.3 591.4,-224.21 732,-184.43 810.78,-162.14 827.56,-146.69 899,-106.71 900.64,-105.8 902.3,-104.82 903.97,-103.82"/>
<polygon fill="red" stroke="red" stroke-width="0.27" points="905.56,-106.95 912.14,-98.64 901.82,-101.03 905.56,-106.95"/>
</g>
<!-- &#45;3&#45;&gt;126 -->
<g id="edge41" class="edge">
<title>&#45;3&#45;&gt;126</title>
<path fill="none" stroke="green" stroke-width="0.21" d="M339.84,-222.48C327.21,-215.27 308.16,-202.08 300,-184.43 292.23,-167.6 287.91,-156.76 300,-142.71 335.04,-102 488.87,-125.99 539,-106.71 540.8,-106.02 542.59,-105.21 544.36,-104.32"/>
<polygon fill="green" stroke="green" stroke-width="0.21" points="546.01,-107.41 552.89,-99.36 542.49,-101.36 546.01,-107.41"/>
</g>
<!-- &#45;3&#45;&gt;127 -->
<g id="edge42" class="edge">
<title>&#45;3&#45;&gt;127</title>
<path fill="none" stroke="red" stroke-width="0.14" d="M339.8,-227.89C303.66,-225.26 194.51,-215.13 110,-184.43 106.98,-183.33 103.92,-181.99 100.92,-180.52"/>
<polygon fill="red" stroke="red" stroke-width="0.14" points="102.72,-177.51 92.25,-175.88 99.42,-183.68 102.72,-177.51"/>
</g>
<!-- 0 -->
<g id="node4" class="node">
<title>0</title>
<ellipse fill="lightblue" stroke="black" cx="635" cy="-14.5" rx="14.5" ry="14.5"/>
<text text-anchor="middle" x="635" y="-11.2" font-family="Times,serif" font-size="9.00">0</text>
</g>
<!-- 1 -->
<g id="node5" class="node">
<title>1</title>
<ellipse fill="lightblue" stroke="black" cx="776" cy="-14.5" rx="14.5" ry="14.5"/>
<text text-anchor="middle" x="776" y="-11.2" font-family="Times,serif" font-size="9.00">1</text>
</g>
<!-- 2 -->
<g id="node6" class="node">
<title>2</title>
<ellipse fill="lightblue" stroke="black" cx="682" cy="-14.5" rx="14.5" ry="14.5"/>
<text text-anchor="middle" x="682" y="-11.2" font-family="Times,serif" font-size="9.00">2</text>
</g>
<!-- 3 -->
<g id="node7" class="node">
<title>3</title>
<ellipse fill="lightblue" stroke="black" cx="823" cy="-14.5" rx="14.5" ry="14.5"/>
<text text-anchor="middle" x="823" y="-11.2" font-family="Times,serif" font-size="9.00">3</text>
</g>
<!-- 4 -->
<g id="node8" class="node">
<title>4</title>
<ellipse fill="lightblue" stroke="black" cx="729" cy="-14.5" rx="14.5" ry="14.5"/>
<text text-anchor="middle" x="729" y="-11.2" font-family="Times,serif" font-size="9.00">4</text>
</g>
<!-- 128&#45;&gt;0 -->
<g id="edge103" class="edge">
<title>128&#45;&gt;0</title>
<path fill="none" stroke="green" stroke-width="0.16" d="M792.38,-72.6C788.16,-69.85 783.53,-67.11 779,-64.99 728.58,-41.37 710.25,-50.77 659,-28.99 657.87,-28.51 656.71,-27.98 655.56,-27.43"/>
<polygon fill="green" stroke="green" stroke-width="0.16" points="657.43,-24.46 646.95,-22.9 654.17,-30.66 657.43,-24.46"/>
</g>
<!-- 128&#45;&gt;1 -->
<g id="edge104" class="edge">
<title>128&#45;&gt;1</title>
<path fill="none" stroke="red" stroke-width="0.49" d="M800.33,-66.63C795.98,-57.48 790.68,-46.34 786.14,-36.79"/>
<polygon fill="red" stroke="red" stroke-width="0.49" points="789.37,-35.44 781.91,-27.92 783.05,-38.45 789.37,-35.44"/>
</g>
<!-- 128&#45;&gt;2 -->
<g id="edge105" class="edge">
<title>128&#45;&gt;2</title>
<path fill="none" stroke="green" stroke-width="0.78" d="M792.11,-73.13C787.89,-70.35 783.34,-67.48 779,-64.99 747.64,-46.97 738,-45.86 706,-28.99 705.15,-28.54 704.29,-28.08 703.41,-27.61"/>
<polygon fill="green" stroke="green" stroke-width="0.78" points="705.59,-24.26 695.14,-22.49 702.2,-30.39 705.59,-24.26"/>
</g>
<!-- 128&#45;&gt;3 -->
<g id="edge106" class="edge">
<title>128&#45;&gt;3</title>
<path fill="none" stroke="green" stroke-width="0.47" d="M812.98,-65.16C814.63,-56.96 816.57,-47.38 818.29,-38.83"/>
<polygon fill="green" stroke="green" stroke-width="0.47" points="821.71,-39.57 820.26,-29.07 814.85,-38.18 821.71,-39.57"/>
</g>
<!-- 128&#45;&gt;4 -->
<g id="edge107" class="edge">
<title>128&#45;&gt;4</title>
<path fill="none" stroke="green" stroke-width="0.88" d="M793.58,-71.48C780.49,-60.13 761.68,-43.82 747.73,-31.73"/>
<polygon fill="green" stroke="green" stroke-width="0.88" points="750.62,-28.74 740.77,-24.83 746.04,-34.03 750.62,-28.74"/>
</g>
<!-- 129&#45;&gt;0 -->
<g id="edge108" class="edge">
<title>129&#45;&gt;0</title>
<path fill="none" stroke="green" stroke-width="0.3" d="M270.2,-73.4C275.69,-70.22 281.92,-67.07 288,-64.99 404.3,-25.3 553.03,-17.43 610.67,-15.88"/>
<polygon fill="green" stroke="green" stroke-width="0.3" points="610.43,-19.38 620.34,-15.65 610.26,-12.38 610.43,-19.38"/>
</g>
<!-- 129&#45;&gt;1 -->
<g id="edge109" class="edge">
<title>129&#45;&gt;1</title>
<path fill="none" stroke="red" stroke-width="0.3" d="M272.92,-78.38C287.47,-73.91 307.77,-68.22 326,-64.99 513.11,-31.92 570.39,-84.83 752,-28.99 753.19,-28.63 754.37,-28.2 755.56,-27.72"/>
<polygon fill="red" stroke="red" stroke-width="0.3" points="756.84,-30.99 764.25,-23.42 753.73,-24.72 756.84,-30.99"/>
</g>
<!-- 129&#45;&gt;2 -->
<g id="edge110" class="edge">
<title>129&#45;&gt;2</title>
<path fill="none" stroke="green" stroke-width="0.12" d="M270.15,-73.23C275.63,-70.04 281.88,-66.93 288,-64.99 445.52,-15.13 500.39,-78.55 658,-28.99 659.18,-28.62 660.37,-28.19 661.55,-27.71"/>
<polygon fill="green" stroke="green" stroke-width="0.12" points="662.84,-30.97 670.24,-23.39 659.73,-24.7 662.84,-30.97"/>
</g>
<!-- 129&#45;&gt;4 -->
<g id="edge111" class="edge">
<title>129&#45;&gt;4</title>
<path fill="none" stroke="red" stroke-width="0.39" d="M270.13,-73.19C275.62,-70 281.87,-66.9 288,-64.99 465.66,-9.82 527.24,-83.82 705,-28.99 706.19,-28.63 707.37,-28.2 708.55,-27.72"/>
<polygon fill="red" stroke="red" stroke-width="0.39" points="709.84,-30.99 717.25,-23.42 706.73,-24.72 709.84,-30.99"/>
</g>
<!-- 130&#45;&gt;1 -->
<g id="edge112" class="edge">
<title>130&#45;&gt;1</title>
<path fill="none" stroke="red" stroke-width="0.23" d="M1187.3,-78.08C1173.85,-73.71 1155.53,-68.26 1139,-64.99 990.36,-35.64 944.34,-75.07 800,-28.99 798.83,-28.62 797.64,-28.18 796.46,-27.69"/>
<polygon fill="red" stroke="red" stroke-width="0.23" points="798.29,-24.69 787.77,-23.37 795.17,-30.96 798.29,-24.69"/>
</g>
<!-- 130&#45;&gt;2 -->
<g id="edge113" class="edge">
<title>130&#45;&gt;2</title>
<path fill="none" stroke="green" stroke-width="0.21" d="M1187.32,-77.96C1173.88,-73.54 1155.57,-68.07 1139,-64.99 949.14,-29.74 890.62,-85.62 706,-28.99 704.82,-28.63 703.63,-28.2 702.45,-27.73"/>
<polygon fill="green" stroke="green" stroke-width="0.21" points="704.27,-24.72 693.76,-23.43 701.17,-31 704.27,-24.72"/>
</g>
<!-- 130&#45;&gt;3 -->
<g id="edge114" class="edge">
<title>130&#45;&gt;3</title>
<path fill="none" stroke="red" stroke-width="1.06" d="M1189.81,-73.4C1184.32,-70.21 1178.09,-67.07 1172,-64.99 1055.76,-25.37 907.31,-17.45 848.57,-15.88"/>
<polygon fill="red" stroke="red" stroke-width="1.06" points="848.83,-12.36 838.75,-15.64 848.67,-19.36 848.83,-12.36"/>
</g>
<!-- 130&#45;&gt;4 -->
<g id="edge115" class="edge">
<title>130&#45;&gt;4</title>
<path fill="none" stroke="green" stroke-width="0.54" d="M1187.31,-78.01C1173.87,-73.62 1155.55,-68.15 1139,-64.99 969.76,-32.69 917.47,-80.34 753,-28.99 751.82,-28.62 750.64,-28.19 749.46,-27.71"/>
<polygon fill="green" stroke="green" stroke-width="0.54" points="751.28,-24.71 740.76,-23.4 748.17,-30.98 751.28,-24.71"/>
</g>
<!-- 131&#45;&gt;0 -->
<g id="edge116" class="edge">
<title>131&#45;&gt;0</title>
<path fill="none" stroke="green" stroke-width="0.2" d="M1032.95,-72.18C1028.64,-69.37 1023.83,-66.71 1019,-64.99 867.53,-11.03 812.33,-77.43 659,-28.99 657.82,-28.62 656.64,-28.18 655.46,-27.7"/>
<polygon fill="green" stroke="green" stroke-width="0.2" points="657.28,-24.7 646.77,-23.38 654.17,-30.97 657.28,-24.7"/>
</g>
<!-- 131&#45;&gt;1 -->
<g id="edge117" class="edge">
<title>131&#45;&gt;1</title>
<path fill="none" stroke="red" stroke-width="0.19" d="M1032.87,-72.39C1028.56,-69.57 1023.77,-66.86 1019,-64.99 927.18,-28.97 893.08,-61.66 800,-28.99 798.84,-28.58 797.66,-28.12 796.49,-27.61"/>
<polygon fill="red" stroke="red" stroke-width="0.19" points="798.33,-24.62 787.82,-23.22 795.16,-30.86 798.33,-24.62"/>
</g>
<!-- 131&#45;&gt;2 -->
<g id="edge118" class="edge">
<title>131&#45;&gt;2</title>
<path fill="none" stroke="red" stroke-width="0.13" d="M1032.93,-72.23C1028.62,-69.41 1023.82,-66.75 1019,-64.99 887.45,-17.02 839.21,-72.16 706,-28.99 704.83,-28.61 703.64,-28.17 702.47,-27.68"/>
<polygon fill="red" stroke="red" stroke-width="0.13" points="704.29,-24.68 693.78,-23.35 701.17,-30.94 704.29,-24.68"/>
</g>
<!-- 131&#45;&gt;3 -->
<g id="edge119" class="edge">
<title>131&#45;&gt;3</title>
<path fill="none" stroke="green" stroke-width="1.48" d="M1032.44,-72.46C1028.22,-69.71 1023.57,-67.01 1019,-64.99 961.16,-39.43 887.64,-25.33 849.17,-19.22"/>
<polygon fill="green" stroke="green" stroke-width="1.48" points="849.73,-15.46 839.32,-17.42 848.68,-22.38 849.73,-15.46"/>
</g>
<!-- 131&#45;&gt;4 -->
<g id="edge120" class="edge">
<title>131&#45;&gt;4</title>
<path fill="none" stroke="red" stroke-width="0.53" d="M1032.91,-72.3C1028.6,-69.48 1023.8,-66.79 1019,-64.99 907.34,-23.01 866.12,-66.9 753,-28.99 751.83,-28.6 750.65,-28.15 749.47,-27.65"/>
<polygon fill="red" stroke="red" stroke-width="0.53" points="751.31,-24.66 740.8,-23.29 748.16,-30.91 751.31,-24.66"/>
</g>
<!-- 132&#45;&gt;0 -->
<g id="edge121" class="edge">
<title>132&#45;&gt;0</title>
<path fill="none" stroke="red" stroke-width="0.32" d="M405.53,-72.39C409.76,-69.64 414.41,-66.96 419,-64.99 484.9,-36.74 569.31,-23.39 610.37,-18.22"/>
<polygon fill="red" stroke="red" stroke-width="0.32" points="610.78,-21.7 620.29,-17.02 609.95,-14.75 610.78,-21.7"/>
</g>
<!-- 132&#45;&gt;1 -->
<g id="edge122" class="edge">
<title>132&#45;&gt;1</title>
<path fill="none" stroke="green" stroke-width="0.34" d="M405.06,-72.21C409.38,-69.39 414.19,-66.73 419,-64.99 559.03,-14.48 610.24,-74.4 752,-28.99 753.18,-28.61 754.37,-28.18 755.55,-27.69"/>
<polygon fill="green" stroke="green" stroke-width="0.34" points="756.84,-30.96 764.23,-23.36 753.72,-24.69 756.84,-30.96"/>
</g>
<!-- 132&#45;&gt;2 -->
<g id="edge123" class="edge">
<title>132&#45;&gt;2</title>
<path fill="none" stroke="green" stroke-width="0.23" d="M405.12,-72.35C409.43,-69.53 414.22,-66.83 419,-64.99 519.27,-26.43 556.41,-63.89 658,-28.99 659.17,-28.59 660.35,-28.13 661.53,-27.63"/>
<polygon fill="green" stroke="green" stroke-width="0.23" points="662.84,-30.89 670.2,-23.26 659.69,-24.64 662.84,-30.89"/>
</g>
<!-- 132&#45;&gt;3 -->
<g id="edge124" class="edge">
<title>132&#45;&gt;3</title>
<path fill="none" stroke="red" stroke-width="0.41" d="M405.05,-72.16C409.36,-69.35 414.17,-66.7 419,-64.99 578.96,-8.48 637.1,-79.67 799,-28.99 800.18,-28.62 801.37,-28.19 802.55,-27.71"/>
<polygon fill="red" stroke="red" stroke-width="0.41" points="803.84,-30.98 811.24,-23.4 800.73,-24.71 803.84,-30.98"/>
</g>
<!-- 132&#45;&gt;4 -->
<g id="edge125" class="edge">
<title>132&#45;&gt;4</title>
<path fill="none" stroke="red" stroke-width="0.22" d="M405.09,-72.27C409.4,-69.45 414.2,-66.77 419,-64.99 539.13,-20.46 583.34,-69.14 705,-28.99 706.18,-28.6 707.36,-28.16 708.54,-27.67"/>
<polygon fill="red" stroke="red" stroke-width="0.22" points="709.84,-30.93 717.22,-23.32 706.71,-24.67 709.84,-30.93"/>
</g>
<!-- 117&#45;&gt;0 -->
<g id="edge48" class="edge">
<title>117&#45;&gt;0</title>
<path fill="none" stroke="green" stroke-width="0.23" d="M972.93,-72.25C968.62,-69.43 963.81,-66.76 959,-64.99 832.95,-18.68 786.65,-70.7 659,-28.99 657.83,-28.61 656.64,-28.16 655.47,-27.67"/>
<polygon fill="green" stroke="green" stroke-width="0.23" points="657.3,-24.68 646.79,-23.33 654.16,-30.94 657.3,-24.68"/>
</g>
<!-- 117&#45;&gt;1 -->
<g id="edge49" class="edge">
<title>117&#45;&gt;1</title>
<path fill="none" stroke="red" stroke-width="0.12" d="M972.48,-72.38C968.25,-69.63 963.6,-66.95 959,-64.99 892.37,-36.53 867.62,-55.02 800,-28.99 798.85,-28.55 797.68,-28.05 796.52,-27.53"/>
<polygon fill="red" stroke="red" stroke-width="0.12" points="798.37,-24.55 787.88,-23.07 795.16,-30.77 798.37,-24.55"/>
</g>
<!-- 117&#45;&gt;2 -->
<g id="edge50" class="edge">
<title>117&#45;&gt;2</title>
<path fill="none" stroke="green" stroke-width="0.3" d="M972.9,-72.32C968.59,-69.5 963.79,-66.81 959,-64.99 852.83,-24.66 813.57,-65.45 706,-28.99 704.83,-28.59 703.65,-28.14 702.48,-27.64"/>
<polygon fill="green" stroke="green" stroke-width="0.3" points="704.31,-24.65 693.8,-23.28 701.16,-30.9 704.31,-24.65"/>
</g>
<!-- 117&#45;&gt;3 -->
<g id="edge51" class="edge">
<title>117&#45;&gt;3</title>
<path fill="none" stroke="red" stroke-width="0.61" d="M972.29,-72.79C968.07,-70.02 963.47,-67.24 959,-64.99 921.04,-45.85 873.84,-30.39 846.2,-22.11"/>
<polygon fill="red" stroke="red" stroke-width="0.61" points="847.54,-18.85 836.96,-19.38 845.57,-25.57 847.54,-18.85"/>
</g>
<!-- 117&#45;&gt;4 -->
<g id="edge52" class="edge">
<title>117&#45;&gt;4</title>
<path fill="none" stroke="red" stroke-width="0.17" d="M972.86,-72.42C968.55,-69.6 963.76,-66.89 959,-64.99 872.65,-30.61 840.54,-60.22 753,-28.99 751.84,-28.58 750.66,-28.11 749.49,-27.6"/>
<polygon fill="red" stroke="red" stroke-width="0.17" points="751.33,-24.61 740.83,-23.2 748.16,-30.85 751.33,-24.61"/>
</g>
<!-- 118&#45;&gt;0 -->
<g id="edge53" class="edge">
<title>118&#45;&gt;0</title>
<path fill="none" stroke="green" stroke-width="0.36" d="M852.51,-72.3C848.29,-69.55 843.62,-66.9 839,-64.99 763.58,-33.89 735.51,-57.34 659,-28.99 657.84,-28.56 656.67,-28.08 655.51,-27.56"/>
<polygon fill="green" stroke="green" stroke-width="0.36" points="657.35,-24.58 646.86,-23.13 654.16,-30.81 657.35,-24.58"/>
</g>
<!-- 118&#45;&gt;1 -->
<g id="edge54" class="edge">
<title>118&#45;&gt;1</title>
<path fill="none" stroke="red" stroke-width="0.19" d="M852.38,-72.45C836.3,-60.46 811.97,-42.32 795.11,-29.74"/>
<polygon fill="red" stroke="red" stroke-width="0.19" points="797.61,-27.24 787.5,-24.07 793.42,-32.85 797.61,-27.24"/>
</g>
<!-- 118&#45;&gt;2 -->
<g id="edge55" class="edge">
<title>118&#45;&gt;2</title>
<path fill="none" stroke="green" stroke-width="0.11" d="M852.42,-72.52C848.19,-69.76 843.56,-67.05 839,-64.99 783.2,-39.77 762.68,-52.18 706,-28.99 704.86,-28.52 703.7,-28.01 702.54,-27.47"/>
<polygon fill="green" stroke="green" stroke-width="0.11" points="704.41,-24.49 693.92,-22.97 701.16,-30.7 704.41,-24.49"/>
</g>
<!-- 118&#45;&gt;3 -->
<g id="edge56" class="edge">
<title>118&#45;&gt;3</title>
<path fill="none" stroke="green" stroke-width="0.79" d="M857.87,-68.06C851.5,-58.46 843.46,-46.34 836.71,-36.16"/>
<polygon fill="green" stroke="green" stroke-width="0.79" points="839.17,-33.54 830.73,-27.14 833.34,-37.41 839.17,-33.54"/>
</g>
<!-- 118&#45;&gt;4 -->
<g id="edge57" class="edge">
<title>118&#45;&gt;4</title>
<path fill="none" stroke="red" stroke-width="0.58" d="M852.21,-72.94C847.99,-70.17 843.41,-67.35 839,-64.99 802.46,-45.47 790.24,-47.18 753,-28.99 751.89,-28.45 750.76,-27.88 749.62,-27.29"/>
<polygon fill="red" stroke="red" stroke-width="0.58" points="751.52,-24.34 741.07,-22.64 748.18,-30.49 751.52,-24.34"/>
</g>
<!-- 119&#45;&gt;0 -->
<g id="edge58" class="edge">
<title>119&#45;&gt;0</title>
<path fill="none" stroke="red" stroke-width="0.24" d="M676.48,-68.77C668.44,-58.43 657.96,-44.98 649.55,-34.17"/>
<polygon fill="red" stroke="red" stroke-width="0.24" points="652.5,-32.26 643.59,-26.52 646.97,-36.56 652.5,-32.26"/>
</g>
<!-- 119&#45;&gt;1 -->
<g id="edge59" class="edge">
<title>119&#45;&gt;1</title>
<path fill="none" stroke="red" stroke-width="0.32" d="M704.96,-72.13C719.75,-60.34 741.75,-42.8 757.35,-30.37"/>
<polygon fill="red" stroke="red" stroke-width="0.32" points="759.21,-33.36 764.84,-24.39 754.84,-27.89 759.21,-33.36"/>
</g>
<!-- 119&#45;&gt;2 -->
<g id="edge60" class="edge">
<title>119&#45;&gt;2</title>
<path fill="none" stroke="green" stroke-width="0.48" d="M686.98,-64.79C686.17,-56.8 685.24,-47.55 684.4,-39.23"/>
<polygon fill="green" stroke="green" stroke-width="0.48" points="687.89,-38.95 683.4,-29.36 680.92,-39.66 687.89,-38.95"/>
</g>
<!-- 119&#45;&gt;3 -->
<g id="edge61" class="edge">
<title>119&#45;&gt;3</title>
<path fill="none" stroke="red" stroke-width="0.12" d="M705.84,-73.02C710.06,-70.25 714.63,-67.4 719,-64.99 753.15,-46.17 764.2,-46.56 799,-28.99 800.11,-28.43 801.23,-27.85 802.37,-27.25"/>
<polygon fill="red" stroke="red" stroke-width="0.12" points="803.82,-30.45 810.91,-22.57 800.46,-24.31 803.82,-30.45"/>
</g>
<!-- 119&#45;&gt;4 -->
<g id="edge62" class="edge">
<title>119&#45;&gt;4</title>
<path fill="none" stroke="red" stroke-width="0.28" d="M699.1,-67.35C704.63,-57.76 711.51,-45.84 717.27,-35.84"/>
<polygon fill="red" stroke="red" stroke-width="0.28" points="720.22,-37.73 722.18,-27.32 714.16,-34.23 720.22,-37.73"/>
</g>
<!-- 120&#45;&gt;0 -->
<g id="edge63" class="edge">
<title>120&#45;&gt;0</title>
<path fill="none" stroke="green" stroke-width="0.2" d="M525.93,-73.18C530.15,-70.41 534.69,-67.52 539,-64.99 563.89,-50.4 593.53,-35.47 613.22,-25.88"/>
<polygon fill="green" stroke="green" stroke-width="0.2" points="614.55,-29.13 622.03,-21.63 611.5,-22.83 614.55,-29.13"/>
</g>
<!-- 120&#45;&gt;1 -->
<g id="edge64" class="edge">
<title>120&#45;&gt;1</title>
<path fill="none" stroke="green" stroke-width="0.22" d="M525.14,-72.41C529.45,-69.59 534.24,-66.87 539,-64.99 628.3,-29.73 661.49,-60.99 752,-28.99 753.17,-28.58 754.35,-28.11 755.52,-27.61"/>
<polygon fill="green" stroke="green" stroke-width="0.22" points="756.85,-30.86 764.18,-23.21 753.68,-24.61 756.85,-30.86"/>
</g>
<!-- 120&#45;&gt;2 -->
<g id="edge65" class="edge">
<title>120&#45;&gt;2</title>
<path fill="none" stroke="red" stroke-width="0.23" d="M525.63,-72.61C529.86,-69.85 534.48,-67.12 539,-64.99 589.01,-41.49 607.17,-50.66 658,-28.99 659.14,-28.51 660.29,-27.98 661.45,-27.43"/>
<polygon fill="red" stroke="red" stroke-width="0.23" points="662.84,-30.65 670.06,-22.89 659.58,-24.46 662.84,-30.65"/>
</g>
<!-- 120&#45;&gt;3 -->
<g id="edge66" class="edge">
<title>120&#45;&gt;3</title>
<path fill="none" stroke="green" stroke-width="0.51" d="M525.1,-72.31C529.41,-69.49 534.21,-66.8 539,-64.99 648.14,-23.77 688.45,-66.23 799,-28.99 800.18,-28.6 801.36,-28.14 802.53,-27.65"/>
<polygon fill="green" stroke="green" stroke-width="0.51" points="803.84,-30.91 811.21,-23.29 800.7,-24.65 803.84,-30.91"/>
</g>
<!-- 120&#45;&gt;4 -->
<g id="edge67" class="edge">
<title>120&#45;&gt;4</title>
<path fill="none" stroke="green" stroke-width="1.22" d="M525.52,-72.35C529.74,-69.6 534.4,-66.93 539,-64.99 608.56,-35.65 634.43,-55.79 705,-28.99 705.77,-28.7 706.55,-28.38 707.33,-28.05"/>
<polygon fill="green" stroke="green" stroke-width="1.22" points="708.79,-30.73 716.14,-23.09 705.63,-24.48 708.79,-30.73"/>
</g>
<!-- 121&#45;&gt;0 -->
<g id="edge68" class="edge">
<title>121&#45;&gt;0</title>
<path fill="none" stroke="red" stroke-width="0.63" d="M731.97,-73.35C727.76,-70.57 723.24,-67.64 719,-64.99 697.81,-51.74 673.12,-37.31 656.02,-27.47"/>
<polygon fill="red" stroke="red" stroke-width="0.63" points="657.78,-24.45 647.37,-22.51 654.3,-30.52 657.78,-24.45"/>
</g>
<!-- 121&#45;&gt;1 -->
<g id="edge69" class="edge">
<title>121&#45;&gt;1</title>
<path fill="none" stroke="green" stroke-width="0.16" d="M756.38,-65.9C759.78,-57.18 763.82,-46.78 767.36,-37.7"/>
<polygon fill="green" stroke="green" stroke-width="0.16" points="770.57,-39.09 770.94,-28.5 764.05,-36.55 770.57,-39.09"/>
</g>
<!-- 121&#45;&gt;2 -->
<g id="edge70" class="edge">
<title>121&#45;&gt;2</title>
<path fill="none" stroke="green" stroke-width="0.83" d="M734.79,-70.14C724.41,-59.39 710.27,-44.76 699.24,-33.34"/>
<polygon fill="green" stroke="green" stroke-width="0.83" points="701.32,-30.45 691.85,-25.69 696.28,-35.32 701.32,-30.45"/>
</g>
<!-- 121&#45;&gt;3 -->
<g id="edge71" class="edge">
<title>121&#45;&gt;3</title>
<path fill="none" stroke="green" stroke-width="0.12" d="M763.98,-70.82C776.01,-59.54 792.93,-43.69 805.57,-31.84"/>
<polygon fill="green" stroke="green" stroke-width="0.12" points="807.9,-34.45 812.8,-25.06 803.11,-29.34 807.9,-34.45"/>
</g>
<!-- 121&#45;&gt;4 -->
<g id="edge72" class="edge">
<title>121&#45;&gt;4</title>
<path fill="none" stroke="green" stroke-width="0.11" d="M743.43,-65.53C740.98,-57.03 738.08,-46.98 735.53,-38.13"/>
<polygon fill="green" stroke="green" stroke-width="0.11" points="738.97,-37.43 732.84,-28.79 732.24,-39.37 738.97,-37.43"/>
</g>
<!-- 122&#45;&gt;0 -->
<g id="edge73" class="edge">
<title>122&#45;&gt;0</title>
<path fill="none" stroke="green" stroke-width="0.33" d="M1092.97,-72.13C1088.66,-69.32 1083.84,-66.68 1079,-64.99 902.08,-3.37 838.05,-84.16 659,-28.99 657.82,-28.63 656.63,-28.2 655.45,-27.72"/>
<polygon fill="green" stroke="green" stroke-width="0.33" points="657.27,-24.72 646.76,-23.42 654.17,-30.99 657.27,-24.72"/>
</g>
<!-- 122&#45;&gt;1 -->
<g id="edge74" class="edge">
<title>122&#45;&gt;1</title>
<path fill="none" stroke="green" stroke-width="0.25" d="M1092.92,-72.28C1088.61,-69.46 1083.8,-66.78 1079,-64.99 961.84,-21.35 918.67,-68.36 800,-28.99 798.83,-28.6 797.65,-28.15 796.47,-27.66"/>
<polygon fill="green" stroke="green" stroke-width="0.25" points="798.3,-24.66 787.79,-23.31 795.16,-30.92 798.3,-24.66"/>
</g>
<!-- 122&#45;&gt;2 -->
<g id="edge75" class="edge">
<title>122&#45;&gt;2</title>
<path fill="none" stroke="green" stroke-width="0.48" d="M1092.96,-72.17C1088.64,-69.35 1083.83,-66.7 1079,-64.99 922.02,-9.37 864.9,-78.88 706,-28.99 704.82,-28.62 703.64,-28.19 702.46,-27.71"/>
<polygon fill="green" stroke="green" stroke-width="0.48" points="704.28,-24.7 693.77,-23.39 701.17,-30.97 704.28,-24.7"/>
</g>
<!-- 122&#45;&gt;3 -->
<g id="edge76" class="edge">
<title>122&#45;&gt;3</title>
<path fill="none" stroke="red" stroke-width="0.2" d="M1092.52,-72.28C1088.29,-69.53 1083.63,-66.88 1079,-64.99 998.33,-32.03 894.23,-20.65 847.55,-17.04"/>
<polygon fill="red" stroke="red" stroke-width="0.2" points="847.95,-13.56 837.72,-16.33 847.45,-20.54 847.95,-13.56"/>
</g>
<!-- 122&#45;&gt;4 -->
<g id="edge77" class="edge">
<title>122&#45;&gt;4</title>
<path fill="none" stroke="red" stroke-width="0.55" d="M1092.94,-72.22C1088.63,-69.4 1083.82,-66.73 1079,-64.99 941.94,-15.37 891.78,-73.61 753,-28.99 751.83,-28.61 750.64,-28.17 749.46,-27.69"/>
<polygon fill="red" stroke="red" stroke-width="0.55" points="751.29,-24.69 740.78,-23.36 748.17,-30.95 751.29,-24.69"/>
</g>
<!-- 123&#45;&gt;0 -->
<g id="edge78" class="edge">
<title>123&#45;&gt;0</title>
<path fill="none" stroke="green" stroke-width="0.29" d="M465.65,-72.65C469.88,-69.89 474.5,-67.15 479,-64.99 523.68,-43.63 579.84,-28.41 611.13,-20.87"/>
<polygon fill="green" stroke="green" stroke-width="0.29" points="611.8,-24.31 620.74,-18.61 610.2,-17.5 611.8,-24.31"/>
</g>
<!-- 123&#45;&gt;1 -->
<g id="edge79" class="edge">
<title>123&#45;&gt;1</title>
<path fill="none" stroke="red" stroke-width="0.91" d="M465.09,-72.29C469.4,-69.47 474.21,-66.79 479,-64.99 593.63,-22.12 635.9,-67.68 752,-28.99 752.79,-28.73 753.57,-28.44 754.36,-28.14"/>
<polygon fill="red" stroke="red" stroke-width="0.91" points="755.77,-30.85 763.21,-23.3 752.69,-24.56 755.77,-30.85"/>
</g>
<!-- 123&#45;&gt;2 -->
<g id="edge80" class="edge">
<title>123&#45;&gt;2</title>
<path fill="none" stroke="green" stroke-width="0.33" d="M465.5,-72.3C469.72,-69.55 474.39,-66.9 479,-64.99 554.01,-34.02 581.93,-57.23 658,-28.99 659.16,-28.56 660.33,-28.08 661.5,-27.56"/>
<polygon fill="green" stroke="green" stroke-width="0.33" points="662.85,-30.81 670.15,-23.13 659.66,-24.58 662.85,-30.81"/>
</g>
<!-- 123&#45;&gt;3 -->
<g id="edge81" class="edge">
<title>123&#45;&gt;3</title>
<path fill="none" stroke="green" stroke-width="0.78" d="M465.07,-72.22C469.38,-69.41 474.19,-66.74 479,-64.99 613.52,-16.13 662.8,-72.94 799,-28.99 799.79,-28.74 800.58,-28.46 801.36,-28.16"/>
<polygon fill="green" stroke="green" stroke-width="0.78" points="802.77,-30.88 810.23,-23.35 799.7,-24.58 802.77,-30.88"/>
</g>
<!-- 123&#45;&gt;4 -->
<g id="edge82" class="edge">
<title>123&#45;&gt;4</title>
<path fill="none" stroke="green" stroke-width="0.51" d="M465.13,-72.37C469.44,-69.56 474.23,-66.85 479,-64.99 573.78,-28.08 608.95,-62.44 705,-28.99 706.17,-28.58 707.35,-28.12 708.52,-27.62"/>
<polygon fill="green" stroke="green" stroke-width="0.51" points="709.85,-30.87 717.19,-23.23 706.69,-24.63 709.85,-30.87"/>
</g>
<!-- 124&#45;&gt;0 -->
<g id="edge83" class="edge">
<title>124&#45;&gt;0</title>
<path fill="none" stroke="green" stroke-width="0.15" d="M630.74,-64.79C631.43,-56.8 632.23,-47.55 632.95,-39.23"/>
<polygon fill="green" stroke="green" stroke-width="0.15" points="636.43,-39.62 633.8,-29.36 629.46,-39.02 636.43,-39.62"/>
</g>
<!-- 124&#45;&gt;1 -->
<g id="edge84" class="edge">
<title>124&#45;&gt;1</title>
<path fill="none" stroke="red" stroke-width="0.79" d="M645.75,-72.85C649.97,-70.09 654.56,-67.29 659,-64.99 698.38,-44.64 711.92,-47.9 752,-28.99 752.87,-28.58 753.76,-28.15 754.64,-27.71"/>
<polygon fill="red" stroke="red" stroke-width="0.79" points="755.81,-30.52 762.97,-22.71 752.5,-24.35 755.81,-30.52"/>
</g>
<!-- 124&#45;&gt;2 -->
<g id="edge85" class="edge">
<title>124&#45;&gt;2</title>
<path fill="none" stroke="red" stroke-width="0.12" d="M641.3,-68.77C649.19,-58.43 659.48,-44.98 667.73,-34.17"/>
<polygon fill="red" stroke="red" stroke-width="0.12" points="670.29,-36.59 673.58,-26.52 664.72,-32.34 670.29,-36.59"/>
</g>
<!-- 124&#45;&gt;3 -->
<g id="edge86" class="edge">
<title>124&#45;&gt;3</title>
<path fill="none" stroke="green" stroke-width="0.46" d="M645.57,-72.48C649.8,-69.72 654.44,-67.02 659,-64.99 717.71,-38.9 739.39,-52.94 799,-28.99 800.15,-28.53 801.31,-28.02 802.47,-27.49"/>
<polygon fill="green" stroke="green" stroke-width="0.46" points="803.85,-30.72 811.1,-23 800.61,-24.51 803.85,-30.72"/>
</g>
<!-- 124&#45;&gt;4 -->
<g id="edge87" class="edge">
<title>124&#45;&gt;4</title>
<path fill="none" stroke="green" stroke-width="0.31" d="M645.97,-73.09C663.48,-60.94 690.77,-42.01 709.25,-29.2"/>
<polygon fill="green" stroke="green" stroke-width="0.31" points="711.06,-32.2 717.28,-23.62 707.07,-26.45 711.06,-32.2"/>
</g>
<!-- 125&#45;&gt;0 -->
<g id="edge88" class="edge">
<title>125&#45;&gt;0</title>
<path fill="none" stroke="green" stroke-width="0.46" d="M912.89,-72.34C908.58,-69.53 903.78,-66.83 899,-64.99 798.32,-26.31 761.02,-64 659,-28.99 657.83,-28.59 656.66,-28.13 655.48,-27.63"/>
<polygon fill="green" stroke="green" stroke-width="0.46" points="657.32,-24.64 646.81,-23.26 654.16,-30.89 657.32,-24.64"/>
</g>
<!-- 125&#45;&gt;1 -->
<g id="edge89" class="edge">
<title>125&#45;&gt;1</title>
<path fill="none" stroke="green" stroke-width="0.13" d="M912.29,-72.79C908.07,-70.02 903.47,-67.24 899,-64.99 857.19,-43.92 842.55,-48.53 800,-28.99 798.88,-28.48 797.74,-27.93 796.59,-27.35"/>
<polygon fill="green" stroke="green" stroke-width="0.13" points="798.48,-24.39 788.01,-22.76 795.17,-30.56 798.48,-24.39"/>
</g>
<!-- 125&#45;&gt;2 -->
<g id="edge90" class="edge">
<title>125&#45;&gt;2</title>
<path fill="none" stroke="red" stroke-width="0.26" d="M912.53,-72.26C908.3,-69.51 903.64,-66.87 899,-64.99 818.12,-32.25 788.02,-58.77 706,-28.99 704.84,-28.57 703.67,-28.09 702.5,-27.58"/>
<polygon fill="red" stroke="red" stroke-width="0.26" points="704.34,-24.59 693.84,-23.17 701.16,-30.83 704.34,-24.59"/>
</g>
<!-- 125&#45;&gt;3 -->
<g id="edge91" class="edge">
<title>125&#45;&gt;3</title>
<path fill="none" stroke="green" stroke-width="0.35" d="M911.88,-73.49C907.68,-70.7 903.18,-67.73 899,-64.99 880.08,-52.57 858.44,-38.48 843.1,-28.53"/>
<polygon fill="green" stroke="green" stroke-width="0.35" points="845.16,-25.69 834.87,-23.18 841.35,-31.56 845.16,-25.69"/>
</g>
<!-- 125&#45;&gt;4 -->
<g id="edge92" class="edge">
<title>125&#45;&gt;4</title>
<path fill="none" stroke="green" stroke-width="0.65" d="M912.45,-72.44C908.23,-69.69 903.58,-67 899,-64.99 837.8,-38.15 815.14,-53.59 753,-28.99 751.85,-28.54 750.69,-28.03 749.53,-27.5"/>
<polygon fill="green" stroke="green" stroke-width="0.65" points="751.39,-24.52 740.9,-23.02 748.16,-30.74 751.39,-24.52"/>
</g>
<!-- 126&#45;&gt;0 -->
<g id="edge93" class="edge">
<title>126&#45;&gt;0</title>
<path fill="none" stroke="green" stroke-width="0.5" d="M583,-70.14C593.43,-59.18 607.7,-44.19 618.65,-32.68"/>
<polygon fill="green" stroke="green" stroke-width="0.5" points="620.94,-35.35 625.3,-25.69 615.87,-30.52 620.94,-35.35"/>
</g>
<!-- 126&#45;&gt;1 -->
<g id="edge94" class="edge">
<title>126&#45;&gt;1</title>
<path fill="none" stroke="red" stroke-width="0.14" d="M585.54,-72.41C589.77,-69.66 594.42,-66.97 599,-64.99 663.13,-37.28 686.92,-54.36 752,-28.99 753.16,-28.54 754.32,-28.05 755.48,-27.52"/>
<polygon fill="red" stroke="red" stroke-width="0.14" points="756.85,-30.75 764.12,-23.05 753.63,-24.54 756.85,-30.75"/>
</g>
<!-- 126&#45;&gt;2 -->
<g id="edge95" class="edge">
<title>126&#45;&gt;2</title>
<path fill="none" stroke="green" stroke-width="0.25" d="M586.05,-73.37C590.26,-70.59 594.77,-67.65 599,-64.99 619.86,-51.88 644.09,-37.53 660.97,-27.67"/>
<polygon fill="green" stroke="green" stroke-width="0.25" points="662.64,-30.75 669.52,-22.69 659.12,-24.7 662.64,-30.75"/>
</g>
<!-- 126&#45;&gt;3 -->
<g id="edge96" class="edge">
<title>126&#45;&gt;3</title>
<path fill="none" stroke="green" stroke-width="0.41" d="M585.15,-72.44C589.46,-69.62 594.25,-66.9 599,-64.99 682.83,-31.37 714.01,-59.55 799,-28.99 800.17,-28.57 801.34,-28.1 802.51,-27.59"/>
<polygon fill="green" stroke="green" stroke-width="0.41" points="803.85,-30.84 811.17,-23.18 800.67,-24.6 803.85,-30.84"/>
</g>
<!-- 126&#45;&gt;4 -->
<g id="edge97" class="edge">
<title>126&#45;&gt;4</title>
<path fill="none" stroke="red" stroke-width="0.12" d="M585.68,-72.72C589.91,-69.96 594.52,-67.19 599,-64.99 643.67,-43.08 659.57,-49.27 705,-28.99 706.13,-28.49 707.28,-27.95 708.43,-27.38"/>
<polygon fill="red" stroke="red" stroke-width="0.12" points="709.84,-30.6 717.02,-22.81 706.55,-24.42 709.84,-30.6"/>
</g>
<!-- 127&#45;&gt;0 -->
<g id="edge98" class="edge">
<title>127&#45;&gt;0</title>
<path fill="none" stroke="red" stroke-width="0.55" d="M85.81,-145.65C101.36,-122.93 132.37,-83.29 170,-64.99 248.87,-26.66 525.77,-17.77 610.31,-15.94"/>
<polygon fill="red" stroke="red" stroke-width="0.55" points="610.35,-19.44 620.28,-15.73 610.21,-12.44 610.35,-19.44"/>
</g>
<!-- 127&#45;&gt;1 -->
<g id="edge99" class="edge">
<title>127&#45;&gt;1</title>
<path fill="none" stroke="red" stroke-width="0.82" stroke-dasharray="1,5" d="M94.61,-155.52C106.48,-151.42 121.99,-146.36 136,-142.71 216.23,-121.84 246.27,-146.48 319,-106.71 341.54,-94.39 335.86,-76.14 359,-64.99 517.02,11.13 584.53,-81.13 752,-28.99 752.79,-28.75 753.58,-28.47 754.37,-28.18"/>
<polygon fill="red" stroke="red" stroke-width="0.82" points="755.76,-30.91 763.24,-23.41 752.72,-24.6 755.76,-30.91"/>
</g>
<!-- 127&#45;&gt;2 -->
<g id="edge100" class="edge">
<title>127&#45;&gt;2</title>
<path fill="none" stroke="red" stroke-width="0.31" d="M92.06,-151.17C130.2,-125.69 219.35,-66.25 223,-64.99 406.36,-1.63 472.53,-85.84 658,-28.99 659.19,-28.63 660.37,-28.2 661.56,-27.73"/>
<polygon fill="red" stroke="red" stroke-width="0.31" points="662.84,-31 670.25,-23.43 659.74,-24.72 662.84,-31"/>
</g>
<!-- 127&#45;&gt;3 -->
<g id="edge101" class="edge">
<title>127&#45;&gt;3</title>
<path fill="none" stroke="green" stroke-width="0.17" d="M95.93,-162.28C241.79,-160.16 1101.72,-146 1139,-106.71 1224.65,-16.45 935.53,-13.76 847.6,-14.96"/>
<polygon fill="green" stroke="green" stroke-width="0.17" points="847.63,-11.46 837.69,-15.12 847.74,-18.46 847.63,-11.46"/>
</g>
<!-- 127&#45;&gt;4 -->
<g id="edge102" class="edge">
<title>127&#45;&gt;4</title>
<path fill="none" stroke="red" stroke-width="0.21" d="M94.67,-155.76C106.57,-151.74 122.08,-146.68 136,-142.71 200.7,-124.29 224.14,-139.27 283,-106.71 306.3,-93.82 301.83,-76.15 326,-64.99 479.63,5.93 543.53,-79.56 705,-28.99 706.18,-28.62 707.37,-28.19 708.55,-27.71"/>
<polygon fill="red" stroke="red" stroke-width="0.21" points="709.84,-30.98 717.24,-23.4 706.73,-24.71 709.84,-30.98"/>
</g>
<!-- 127&#45;&gt;129 -->
<g id="edge126" class="edge">
<title>127&#45;&gt;129</title>
<path fill="none" stroke="green" stroke-width="0.38" d="M92.55,-151.96C98.05,-148.81 104.2,-145.47 110,-142.71 130.79,-132.82 188.65,-110.84 224.07,-97.59"/>
<polygon fill="green" stroke="green" stroke-width="0.38" points="225.27,-100.88 233.42,-94.1 222.83,-94.32 225.27,-100.88"/>
</g>
</g>
</svg>
