<?xml version="1.0" encoding="UTF-8" standalone="no"?>
<!DOCTYPE svg PUBLIC "-//W3C//DTD SVG 1.1//EN"
 "http://www.w3.org/Graphics/SVG/1.1/DTD/svg11.dtd">
<!-- Generated by graphviz version 2.43.0 (0)
 -->
<!-- Title: %3 Pages: 1 -->
<svg width="928pt" height="684pt"
 viewBox="0.00 0.00 927.99 683.88" xmlns="http://www.w3.org/2000/svg" xmlns:xlink="http://www.w3.org/1999/xlink">
<g id="graph0" class="graph" transform="scale(1 1) rotate(0) translate(4 679.88)">
<title>%3</title>
<polygon fill="white" stroke="transparent" points="-4,4 -4,-679.88 923.99,-679.88 923.99,4 -4,4"/>
<!-- &#45;1 -->
<g id="node1" class="node">
<title>&#45;1</title>
<polygon fill="lightgray" stroke="black" points="317,-675.88 291,-675.88 291,-657.88 317,-657.88 317,-675.88"/>
<text text-anchor="middle" x="304" y="-664.68" font-family="Times,serif" font-size="9.00">&#45;1</text>
</g>
<!-- 837 -->
<g id="node19" class="node">
<title>837</title>
<ellipse fill="white" stroke="black" cx="137" cy="-592.89" rx="25" ry="25"/>
<text text-anchor="middle" x="137" y="-590.69" font-family="Times,serif" font-size="9.00">837</text>
</g>
<!-- &#45;1&#45;&gt;837 -->
<g id="edge1" class="edge">
<title>&#45;1&#45;&gt;837</title>
<path fill="none" stroke="green" stroke-width="1.9" d="M290.77,-662.7C266.96,-656.68 215.67,-642.37 176,-621.88 172.17,-619.9 168.29,-617.58 164.55,-615.13"/>
<polygon fill="green" stroke="green" stroke-width="1.9" points="166.34,-612.11 156.12,-609.3 162.35,-617.87 166.34,-612.11"/>
</g>
<!-- 838 -->
<g id="node20" class="node">
<title>838</title>
<ellipse fill="white" stroke="black" cx="485" cy="-310.94" rx="25" ry="25"/>
<text text-anchor="middle" x="485" y="-308.74" font-family="Times,serif" font-size="9.00">838</text>
</g>
<!-- &#45;1&#45;&gt;838 -->
<g id="edge2" class="edge">
<title>&#45;1&#45;&gt;838</title>
<path fill="none" stroke="red" stroke-width="0.85" stroke-dasharray="1,5" d="M314.05,-657.53C346.41,-629.87 447.76,-537.1 481,-433.91 490.27,-405.15 490.45,-370.58 488.79,-345.6"/>
<polygon fill="red" stroke="red" stroke-width="0.85" points="492.27,-345.21 487.99,-335.52 485.3,-345.77 492.27,-345.21"/>
</g>
<!-- 842 -->
<g id="node22" class="node">
<title>842</title>
<ellipse fill="white" stroke="black" cx="152" cy="-498.91" rx="25" ry="25"/>
<text text-anchor="middle" x="152" y="-496.71" font-family="Times,serif" font-size="9.00">842</text>
</g>
<!-- &#45;1&#45;&gt;842 -->
<g id="edge3" class="edge">
<title>&#45;1&#45;&gt;842</title>
<path fill="none" stroke="red" stroke-width="0.45" stroke-dasharray="1,5" d="M290.98,-662.91C270.98,-657.75 232.56,-645.36 209,-621.88 184.34,-597.3 169.08,-560.02 160.63,-533.15"/>
<polygon fill="red" stroke="red" stroke-width="0.45" points="163.93,-531.99 157.72,-523.41 157.22,-533.99 163.93,-531.99"/>
</g>
<!-- 843 -->
<g id="node23" class="node">
<title>843</title>
<ellipse fill="white" stroke="black" cx="591" cy="-404.92" rx="25" ry="25"/>
<text text-anchor="middle" x="591" y="-402.72" font-family="Times,serif" font-size="9.00">843</text>
</g>
<!-- &#45;1&#45;&gt;843 -->
<g id="edge4" class="edge">
<title>&#45;1&#45;&gt;843</title>
<path fill="none" stroke="red" stroke-width="0.15" stroke-dasharray="1,5" d="M317.25,-664.78C358.58,-661.1 484.11,-647.96 514,-621.88 567.68,-575.05 583.94,-488.15 588.86,-440.1"/>
<polygon fill="red" stroke="red" stroke-width="0.15" points="592.37,-440.17 589.79,-429.89 585.4,-439.53 592.37,-440.17"/>
</g>
<!-- 844 -->
<g id="node24" class="node">
<title>844</title>
<ellipse fill="white" stroke="black" cx="667" cy="-310.94" rx="25" ry="25"/>
<text text-anchor="middle" x="667" y="-308.74" font-family="Times,serif" font-size="9.00">844</text>
</g>
<!-- &#45;1&#45;&gt;844 -->
<g id="edge5" class="edge">
<title>&#45;1&#45;&gt;844</title>
<path fill="none" stroke="red" stroke-width="0.2" d="M317.31,-665.07C362.78,-662.06 511.15,-650.22 548,-621.88 636.5,-553.8 659.2,-411.28 665.01,-345.96"/>
<polygon fill="red" stroke="red" stroke-width="0.2" points="668.52,-346.05 665.83,-335.8 661.54,-345.48 668.52,-346.05"/>
</g>
<!-- 848 -->
<g id="node26" class="node">
<title>848</title>
<ellipse fill="white" stroke="black" cx="198" cy="-310.94" rx="25" ry="25"/>
<text text-anchor="middle" x="198" y="-308.74" font-family="Times,serif" font-size="9.00">848</text>
</g>
<!-- &#45;1&#45;&gt;848 -->
<g id="edge6" class="edge">
<title>&#45;1&#45;&gt;848</title>
<path fill="none" stroke="red" stroke-width="0.19" stroke-dasharray="1,5" d="M304.73,-657.71C307.56,-622.01 315.22,-477.01 264,-375.93 259.07,-366.2 240.6,-348.63 224.45,-334.36"/>
<polygon fill="red" stroke="red" stroke-width="0.19" points="226.61,-331.6 216.78,-327.66 222.01,-336.88 226.61,-331.6"/>
</g>
<!-- 5227 -->
<g id="node28" class="node">
<title>5227</title>
<ellipse fill="white" stroke="black" cx="247" cy="-592.89" rx="28.98" ry="28.98"/>
<text text-anchor="middle" x="247" y="-590.69" font-family="Times,serif" font-size="9.00">5227</text>
</g>
<!-- &#45;1&#45;&gt;5227 -->
<g id="edge53" class="edge">
<title>&#45;1&#45;&gt;5227</title>
<path fill="none" stroke="green" stroke-width="0.3" d="M297.46,-657.62C290.94,-649.38 280.52,-636.22 270.83,-623.99"/>
<polygon fill="green" stroke="green" stroke-width="0.3" points="273.58,-621.82 264.63,-616.15 268.09,-626.16 273.58,-621.82"/>
</g>
<!-- &#45;2 -->
<g id="node2" class="node">
<title>&#45;2</title>
<polygon fill="lightgray" stroke="black" points="716,-507.91 690,-507.91 690,-489.91 716,-489.91 716,-507.91"/>
<text text-anchor="middle" x="703" y="-496.71" font-family="Times,serif" font-size="9.00">&#45;2</text>
</g>
<!-- 2714 -->
<g id="node14" class="node">
<title>2714</title>
<ellipse fill="white" stroke="black" cx="552" cy="-122.97" rx="28.98" ry="28.98"/>
<text text-anchor="middle" x="552" y="-120.77" font-family="Times,serif" font-size="9.00">2714</text>
</g>
<!-- &#45;2&#45;&gt;2714 -->
<g id="edge48" class="edge">
<title>&#45;2&#45;&gt;2714</title>
<path fill="none" stroke="green" stroke-width="0.38" d="M705.65,-489.71C717.52,-451.29 762.27,-286.65 692,-187.97 668.43,-154.87 623.47,-138.51 590.85,-130.69"/>
<polygon fill="green" stroke="green" stroke-width="0.38" points="591.25,-127.19 580.73,-128.44 589.73,-134.02 591.25,-127.19"/>
</g>
<!-- &#45;2&#45;&gt;838 -->
<g id="edge7" class="edge">
<title>&#45;2&#45;&gt;838</title>
<path fill="none" stroke="red" stroke-width="0.43" d="M689.81,-495.04C662.26,-488.48 597.8,-470.08 557,-433.91 541.91,-420.54 516.6,-374.22 500.36,-342.68"/>
<polygon fill="red" stroke="red" stroke-width="0.43" points="503.29,-340.73 495.63,-333.41 497.06,-343.91 503.29,-340.73"/>
</g>
<!-- &#45;2&#45;&gt;844 -->
<g id="edge8" class="edge">
<title>&#45;2&#45;&gt;844</title>
<path fill="none" stroke="green" stroke-width="0.27" d="M701.36,-489.43C696.51,-464.37 682.03,-389.6 673.5,-345.51"/>
<polygon fill="green" stroke="green" stroke-width="0.27" points="676.9,-344.69 671.57,-335.54 670.03,-346.02 676.9,-344.69"/>
</g>
<!-- 3065 -->
<g id="node30" class="node">
<title>3065</title>
<ellipse fill="white" stroke="black" cx="777" cy="-404.92" rx="28.98" ry="28.98"/>
<text text-anchor="middle" x="777" y="-402.72" font-family="Times,serif" font-size="9.00">3065</text>
</g>
<!-- &#45;2&#45;&gt;3065 -->
<g id="edge33" class="edge">
<title>&#45;2&#45;&gt;3065</title>
<path fill="none" stroke="red" stroke-width="0.25" d="M709.57,-489.74C719.22,-477.74 737.75,-454.71 752.95,-435.82"/>
<polygon fill="red" stroke="red" stroke-width="0.25" points="755.68,-438.01 759.22,-428.02 750.23,-433.62 755.68,-438.01"/>
</g>
<!-- &#45;3 -->
<g id="node3" class="node">
<title>&#45;3</title>
<polygon fill="lightgray" stroke="black" points="472,-413.92 446,-413.92 446,-395.92 472,-395.92 472,-413.92"/>
<text text-anchor="middle" x="459" y="-402.72" font-family="Times,serif" font-size="9.00">&#45;3</text>
</g>
<!-- 5033 -->
<g id="node16" class="node">
<title>5033</title>
<ellipse fill="white" stroke="black" cx="413" cy="-310.94" rx="28.98" ry="28.98"/>
<text text-anchor="middle" x="413" y="-308.74" font-family="Times,serif" font-size="9.00">5033</text>
</g>
<!-- &#45;3&#45;&gt;5033 -->
<g id="edge51" class="edge">
<title>&#45;3&#45;&gt;5033</title>
<path fill="none" stroke="green" stroke-width="0.19" d="M454.92,-395.76C449.38,-384.68 439.13,-364.19 430.16,-346.25"/>
<polygon fill="green" stroke="green" stroke-width="0.19" points="433.21,-344.54 425.61,-337.16 426.95,-347.67 433.21,-344.54"/>
</g>
<!-- &#45;3&#45;&gt;838 -->
<g id="edge9" class="edge">
<title>&#45;3&#45;&gt;838</title>
<path fill="none" stroke="green" stroke-width="0.27" stroke-dasharray="1,5" d="M461.31,-395.76C464.52,-384.41 470.51,-363.19 475.67,-344.94"/>
<polygon fill="green" stroke="green" stroke-width="0.27" points="479.07,-345.77 478.43,-335.19 472.34,-343.86 479.07,-345.77"/>
</g>
<!-- &#45;3&#45;&gt;844 -->
<g id="edge10" class="edge">
<title>&#45;3&#45;&gt;844</title>
<path fill="none" stroke="green" stroke-width="0.36" stroke-dasharray="1,5" d="M472.01,-398.17C504.31,-383.88 588.89,-346.48 635.34,-325.94"/>
<polygon fill="green" stroke="green" stroke-width="0.36" points="636.91,-329.07 644.64,-321.83 634.08,-322.67 636.91,-329.07"/>
</g>
<!-- 847 -->
<g id="node25" class="node">
<title>847</title>
<ellipse fill="white" stroke="black" cx="265" cy="-310.94" rx="25" ry="25"/>
<text text-anchor="middle" x="265" y="-308.74" font-family="Times,serif" font-size="9.00">847</text>
</g>
<!-- &#45;3&#45;&gt;847 -->
<g id="edge11" class="edge">
<title>&#45;3&#45;&gt;847</title>
<path fill="none" stroke="red" stroke-width="0.16" d="M454.18,-395.55C450.25,-389.38 444.19,-381.18 437,-375.93 394.84,-345.16 336.2,-327.57 299.44,-318.89"/>
<polygon fill="red" stroke="red" stroke-width="0.16" points="299.75,-315.37 289.23,-316.57 298.21,-322.2 299.75,-315.37"/>
</g>
<!-- 0 -->
<g id="node4" class="node">
<title>0</title>
<ellipse fill="lightblue" stroke="black" cx="196" cy="-216.96" rx="16.03" ry="16.03"/>
<text text-anchor="middle" x="196" y="-214.76" font-family="Times,serif" font-size="9.00">0</text>
</g>
<!-- 1 -->
<g id="node5" class="node">
<title>1</title>
<ellipse fill="lightblue" stroke="black" cx="667" cy="-216.96" rx="16.03" ry="16.03"/>
<text text-anchor="middle" x="667" y="-214.76" font-family="Times,serif" font-size="9.00">1</text>
</g>
<!-- 2 -->
<g id="node6" class="node">
<title>2</title>
<ellipse fill="lightblue" stroke="black" cx="448" cy="-216.96" rx="16.03" ry="16.03"/>
<text text-anchor="middle" x="448" y="-214.76" font-family="Times,serif" font-size="9.00">2</text>
</g>
<!-- 3 -->
<g id="node7" class="node">
<title>3</title>
<ellipse fill="lightblue" stroke="black" cx="284" cy="-216.96" rx="16.03" ry="16.03"/>
<text text-anchor="middle" x="284" y="-214.76" font-family="Times,serif" font-size="9.00">3</text>
</g>
<!-- 4 -->
<g id="node8" class="node">
<title>4</title>
<ellipse fill="lightblue" stroke="black" cx="240" cy="-122.97" rx="16.03" ry="16.03"/>
<text text-anchor="middle" x="240" y="-120.77" font-family="Times,serif" font-size="9.00">4</text>
</g>
<!-- 2433 -->
<g id="node9" class="node">
<title>2433</title>
<ellipse fill="white" stroke="black" cx="236" cy="-498.91" rx="28.98" ry="28.98"/>
<text text-anchor="middle" x="236" y="-496.71" font-family="Times,serif" font-size="9.00">2433</text>
</g>
<!-- 4609 -->
<g id="node10" class="node">
<title>4609</title>
<ellipse fill="white" stroke="black" cx="209" cy="-404.92" rx="28.98" ry="28.98"/>
<text text-anchor="middle" x="209" y="-402.72" font-family="Times,serif" font-size="9.00">4609</text>
</g>
<!-- 2433&#45;&gt;4609 -->
<g id="edge57" class="edge">
<title>2433&#45;&gt;4609</title>
<path fill="none" stroke="green" stroke-width="0.67" d="M228.05,-470.8C225.46,-462.01 222.55,-452.1 219.8,-442.72"/>
<polygon fill="green" stroke="green" stroke-width="0.67" points="223.07,-441.44 216.9,-432.83 216.36,-443.41 223.07,-441.44"/>
</g>
<!-- 2433&#45;&gt;848 -->
<g id="edge30" class="edge">
<title>2433&#45;&gt;848</title>
<path fill="none" stroke="red" stroke-width="0.86" d="M244.6,-470.99C251.23,-445.77 257.65,-407.34 247,-375.93 242.01,-361.21 232.13,-347.22 222.54,-336.1"/>
<polygon fill="red" stroke="red" stroke-width="0.86" points="224.99,-333.59 215.68,-328.54 219.81,-338.3 224.99,-333.59"/>
</g>
<!-- 4609&#45;&gt;848 -->
<g id="edge47" class="edge">
<title>4609&#45;&gt;848</title>
<path fill="none" stroke="green" stroke-width="0.25" d="M205.64,-375.82C204.5,-366.26 203.21,-355.47 202.01,-345.51"/>
<polygon fill="green" stroke="green" stroke-width="0.25" points="205.48,-345.04 200.82,-335.53 198.53,-345.88 205.48,-345.04"/>
</g>
<!-- 4743 -->
<g id="node11" class="node">
<title>4743</title>
<ellipse fill="white" stroke="black" cx="399" cy="-404.92" rx="28.98" ry="28.98"/>
<text text-anchor="middle" x="399" y="-402.72" font-family="Times,serif" font-size="9.00">4743</text>
</g>
<!-- 4743&#45;&gt;2 -->
<g id="edge58" class="edge">
<title>4743&#45;&gt;2</title>
<path fill="none" stroke="green" stroke-width="0.1" d="M385.34,-379.31C373.13,-353.76 359.36,-313.22 375,-281.95 386.93,-258.1 403.36,-263.98 423,-245.95 425.8,-243.37 428.63,-240.52 431.33,-237.64"/>
<polygon fill="green" stroke="green" stroke-width="0.1" points="433.96,-239.94 438.03,-230.16 428.75,-235.27 433.96,-239.94"/>
</g>
<!-- 4743&#45;&gt;848 -->
<g id="edge46" class="edge">
<title>4743&#45;&gt;848</title>
<path fill="none" stroke="green" stroke-width="0.15" d="M375.62,-386.92C369.44,-382.93 362.64,-378.97 356,-375.93 303.42,-351.9 281.96,-367.24 231,-339.93 228.31,-338.49 225.63,-336.8 223.05,-334.97"/>
<polygon fill="green" stroke="green" stroke-width="0.15" points="225.19,-332.2 215.14,-328.83 220.89,-337.73 225.19,-332.2"/>
</g>
<!-- 2570 -->
<g id="node12" class="node">
<title>2570</title>
<ellipse fill="white" stroke="black" cx="777" cy="-310.94" rx="28.98" ry="28.98"/>
<text text-anchor="middle" x="777" y="-308.74" font-family="Times,serif" font-size="9.00">2570</text>
</g>
<!-- 2570&#45;&gt;2 -->
<g id="edge31" class="edge">
<title>2570&#45;&gt;2</title>
<path fill="none" stroke="red" stroke-width="0.48" stroke-dasharray="1,5" d="M750.15,-299.27C735.71,-293.73 717.52,-287.06 701,-281.95 619.06,-256.57 519.95,-233.73 473.87,-223.55"/>
<polygon fill="red" stroke="red" stroke-width="0.48" points="474.37,-220.08 463.85,-221.36 472.87,-226.92 474.37,-220.08"/>
</g>
<!-- 4659 -->
<g id="node18" class="node">
<title>4659</title>
<ellipse fill="white" stroke="black" cx="805" cy="-216.96" rx="28.98" ry="28.98"/>
<text text-anchor="middle" x="805" y="-214.76" font-family="Times,serif" font-size="9.00">4659</text>
</g>
<!-- 2570&#45;&gt;4659 -->
<g id="edge52" class="edge">
<title>2570&#45;&gt;4659</title>
<path fill="none" stroke="green" stroke-width="0.78" d="M785.25,-282.84C787.96,-273.95 791.01,-263.92 793.89,-254.45"/>
<polygon fill="green" stroke="green" stroke-width="0.78" points="797.25,-255.45 796.81,-244.86 790.55,-253.41 797.25,-255.45"/>
</g>
<!-- 2698 -->
<g id="node13" class="node">
<title>2698</title>
<ellipse fill="white" stroke="black" cx="380" cy="-498.91" rx="28.98" ry="28.98"/>
<text text-anchor="middle" x="380" y="-496.71" font-family="Times,serif" font-size="9.00">2698</text>
</g>
<!-- 2698&#45;&gt;4743 -->
<g id="edge45" class="edge">
<title>2698&#45;&gt;4743</title>
<path fill="none" stroke="red" stroke-width="1.58" d="M385.7,-470.31C387.45,-461.85 389.4,-452.4 391.26,-443.39"/>
<polygon fill="red" stroke="red" stroke-width="1.58" points="394.71,-444 393.3,-433.5 387.85,-442.59 394.71,-444"/>
</g>
<!-- 2698&#45;&gt;848 -->
<g id="edge36" class="edge">
<title>2698&#45;&gt;848</title>
<path fill="none" stroke="red" stroke-width="0.35" stroke-dasharray="1,5" d="M372.32,-470.71C363.36,-443.45 346.08,-401.9 318,-375.93 287.28,-347.52 266.72,-361.73 231,-339.93 228.54,-338.43 226.07,-336.74 223.65,-334.97"/>
<polygon fill="red" stroke="red" stroke-width="0.35" points="225.74,-332.16 215.72,-328.71 221.4,-337.65 225.74,-332.16"/>
</g>
<!-- 5280 -->
<g id="node15" class="node">
<title>5280</title>
<ellipse fill="white" stroke="black" cx="133" cy="-216.96" rx="28.98" ry="28.98"/>
<text text-anchor="middle" x="133" y="-214.76" font-family="Times,serif" font-size="9.00">5280</text>
</g>
<!-- 5280&#45;&gt;4 -->
<g id="edge56" class="edge">
<title>5280&#45;&gt;4</title>
<path fill="none" stroke="red" stroke-width="0.24" d="M154.65,-197.34C173.91,-180.79 201.82,-156.8 220.42,-140.81"/>
<polygon fill="red" stroke="red" stroke-width="0.24" points="222.71,-143.46 228.01,-134.28 218.14,-138.15 222.71,-143.46"/>
</g>
<!-- 4271 -->
<g id="node17" class="node">
<title>4271</title>
<ellipse fill="white" stroke="black" cx="805" cy="-28.99" rx="28.98" ry="28.98"/>
<text text-anchor="middle" x="805" y="-26.79" font-family="Times,serif" font-size="9.00">4271</text>
</g>
<!-- 2631 -->
<g id="node21" class="node">
<title>2631</title>
<ellipse fill="white" stroke="black" cx="805" cy="-122.97" rx="28.98" ry="28.98"/>
<text text-anchor="middle" x="805" y="-120.77" font-family="Times,serif" font-size="9.00">2631</text>
</g>
<!-- 4659&#45;&gt;2631 -->
<g id="edge43" class="edge">
<title>4659&#45;&gt;2631</title>
<path fill="none" stroke="green" stroke-width="0.97" d="M805,-187.86C805,-179.82 805,-170.92 805,-162.38"/>
<polygon fill="green" stroke="green" stroke-width="0.97" points="808.5,-162.22 805,-152.22 801.5,-162.22 808.5,-162.22"/>
</g>
<!-- 837&#45;&gt;0 -->
<g id="edge12" class="edge">
<title>837&#45;&gt;0</title>
<path fill="none" stroke="green" stroke-width="0.6" d="M128.6,-569.44C124.52,-557.33 120.05,-542 118,-527.9 107.72,-457.15 126.52,-300.06 135,-281.95 144.59,-261.45 155.46,-262.39 171,-245.95 173.62,-243.18 176.34,-240.22 178.99,-237.29"/>
<polygon fill="green" stroke="green" stroke-width="0.6" points="181.63,-239.59 185.68,-229.8 176.41,-234.92 181.63,-239.59"/>
</g>
<!-- 837&#45;&gt;1 -->
<g id="edge13" class="edge">
<title>837&#45;&gt;1</title>
<path fill="none" stroke="green" stroke-width="0.18" stroke-dasharray="1,5" d="M159.15,-581.27C173.12,-575.08 191.72,-567.76 209,-563.9 321.17,-538.79 620.92,-576.68 725,-527.9 830.39,-478.49 878.92,-379.23 815,-281.95 800.88,-260.46 730.8,-236.85 692.35,-225.24"/>
<polygon fill="green" stroke="green" stroke-width="0.18" points="693,-221.78 682.42,-222.29 691.01,-228.49 693,-221.78"/>
</g>
<!-- 837&#45;&gt;4 -->
<g id="edge14" class="edge">
<title>837&#45;&gt;4</title>
<path fill="none" stroke="green" stroke-width="0.55" d="M116.79,-578.14C78.68,-550.4 0,-483.72 0,-405.92 0,-405.92 0,-405.92 0,-309.94 0,-247.44 22.39,-228.47 70,-187.97 112.56,-151.76 177.63,-135.02 213.68,-128.14"/>
<polygon fill="green" stroke="green" stroke-width="0.55" points="214.65,-131.52 223.87,-126.31 213.41,-124.63 214.65,-131.52"/>
</g>
<!-- 837&#45;&gt;842 -->
<g id="edge37" class="edge">
<title>837&#45;&gt;842</title>
<path fill="none" stroke="red" stroke-width="1.52" stroke-dasharray="1,5" d="M140.86,-568.2C142.58,-557.69 144.63,-545.12 146.5,-533.65"/>
<polygon fill="red" stroke="red" stroke-width="1.52" points="150,-533.95 148.15,-523.51 143.09,-532.82 150,-533.95"/>
</g>
<!-- 838&#45;&gt;3 -->
<g id="edge15" class="edge">
<title>838&#45;&gt;3</title>
<path fill="none" stroke="green" stroke-width="3.05" d="M467.17,-293.27C462.19,-289.18 456.6,-285.09 451,-281.95 408.34,-258.03 392.5,-263.89 347,-245.95 333.78,-240.73 319.27,-234.33 307.51,-228.97"/>
<polygon fill="green" stroke="green" stroke-width="3.05" points="308.91,-225.76 298.37,-224.76 305.98,-232.12 308.91,-225.76"/>
</g>
<!-- 838&#45;&gt;4 -->
<g id="edge16" class="edge">
<title>838&#45;&gt;4</title>
<path fill="none" stroke="green" stroke-width="0.13" d="M489.89,-286.3C494.01,-259.29 496.04,-215.3 473,-187.97 446.19,-156.17 321.13,-135.24 266.1,-127.42"/>
<polygon fill="green" stroke="green" stroke-width="0.13" points="266.47,-123.93 256.08,-126.03 265.51,-130.87 266.47,-123.93"/>
</g>
<!-- 838&#45;&gt;2631 -->
<g id="edge49" class="edge">
<title>838&#45;&gt;2631</title>
<path fill="none" stroke="green" stroke-width="1.04" d="M502.63,-293.46C530.46,-268.11 587.1,-219.2 642,-187.97 682.88,-164.7 733.89,-146.18 767.85,-135.17"/>
<polygon fill="green" stroke="green" stroke-width="1.04" points="768.92,-138.51 777.38,-132.13 766.79,-131.84 768.92,-138.51"/>
</g>
<!-- 3436 -->
<g id="node29" class="node">
<title>3436</title>
<ellipse fill="white" stroke="black" cx="385" cy="-216.96" rx="28.98" ry="28.98"/>
<text text-anchor="middle" x="385" y="-214.76" font-family="Times,serif" font-size="9.00">3436</text>
</g>
<!-- 838&#45;&gt;3436 -->
<g id="edge44" class="edge">
<title>838&#45;&gt;3436</title>
<path fill="none" stroke="red" stroke-width="0.38" d="M467.12,-293.49C452.21,-279.78 430.7,-259.99 413.43,-244.11"/>
<polygon fill="red" stroke="red" stroke-width="0.38" points="415.57,-241.32 405.84,-237.12 410.83,-246.47 415.57,-241.32"/>
</g>
<!-- 2631&#45;&gt;4271 -->
<g id="edge40" class="edge">
<title>2631&#45;&gt;4271</title>
<path fill="none" stroke="red" stroke-width="1.27" d="M805,-93.88C805,-85.84 805,-76.94 805,-68.39"/>
<polygon fill="red" stroke="red" stroke-width="1.27" points="808.5,-68.23 805,-58.23 801.5,-68.23 808.5,-68.23"/>
</g>
<!-- 842&#45;&gt;2 -->
<g id="edge17" class="edge">
<title>842&#45;&gt;2</title>
<path fill="none" stroke="green" stroke-width="0.2" stroke-dasharray="1,5" d="M148.72,-474.12C146.39,-446.98 147.11,-402.87 171,-375.93 210.21,-331.72 247.17,-368.33 299,-339.93 332.95,-321.33 332.91,-305.01 364,-281.95 388.67,-263.65 399.4,-265.62 423,-245.95 425.92,-243.51 428.82,-240.73 431.54,-237.88"/>
<polygon fill="green" stroke="green" stroke-width="0.2" points="434.17,-240.19 438.25,-230.41 428.97,-235.51 434.17,-240.19"/>
</g>
<!-- 842&#45;&gt;3 -->
<g id="edge18" class="edge">
<title>842&#45;&gt;3</title>
<path fill="none" stroke="green" stroke-width="0.31" d="M145.42,-474.71C134.71,-431.56 118.92,-338.22 164,-281.95 176.99,-265.74 228.81,-241.58 259.95,-228.06"/>
<polygon fill="green" stroke="green" stroke-width="0.31" points="261.45,-231.22 269.26,-224.07 258.69,-224.79 261.45,-231.22"/>
</g>
<!-- 842&#45;&gt;4 -->
<g id="edge19" class="edge">
<title>842&#45;&gt;4</title>
<path fill="none" stroke="green" stroke-width="1.17" d="M139.05,-477.48C107.51,-424.85 33.61,-282.16 95,-187.97 121.3,-147.61 179.43,-132.52 213.57,-127.02"/>
<polygon fill="green" stroke="green" stroke-width="1.17" points="214.34,-130.44 223.73,-125.55 213.34,-123.51 214.34,-130.44"/>
</g>
<!-- 842&#45;&gt;4609 -->
<g id="edge41" class="edge">
<title>842&#45;&gt;4609</title>
<path fill="none" stroke="red" stroke-width="0.34" d="M164.65,-477.49C171.74,-466.05 180.75,-451.52 188.79,-438.54"/>
<polygon fill="red" stroke="red" stroke-width="0.34" points="191.87,-440.2 194.17,-429.86 185.92,-436.52 191.87,-440.2"/>
</g>
<!-- 843&#45;&gt;1 -->
<g id="edge20" class="edge">
<title>843&#45;&gt;1</title>
<path fill="none" stroke="green" stroke-width="0.59" stroke-dasharray="1,5" d="M597.7,-381.04C605.24,-356.22 618.36,-315.63 633,-281.95 639.17,-267.75 647.27,-252.41 654.01,-240.31"/>
<polygon fill="green" stroke="green" stroke-width="0.59" points="657.19,-241.81 659.07,-231.38 651.1,-238.36 657.19,-241.81"/>
</g>
<!-- 843&#45;&gt;2 -->
<g id="edge21" class="edge">
<title>843&#45;&gt;2</title>
<path fill="none" stroke="red" stroke-width="0.43" stroke-dasharray="1,5" d="M580.59,-381.93C567.98,-356.47 545.14,-313.93 519,-281.95 504.08,-263.69 483.84,-245.98 468.79,-233.84"/>
<polygon fill="red" stroke="red" stroke-width="0.43" points="470.63,-230.83 460.61,-227.38 466.28,-236.32 470.63,-230.83"/>
</g>
<!-- 843&#45;&gt;4 -->
<g id="edge22" class="edge">
<title>843&#45;&gt;4</title>
<path fill="none" stroke="red" stroke-width="0.4" d="M588.15,-380.05C581.34,-334.43 559.61,-235.25 496,-187.97 425.41,-135.5 316.73,-125.74 266.78,-124.13"/>
<polygon fill="red" stroke="red" stroke-width="0.4" points="266.57,-120.63 256.5,-123.9 266.41,-127.63 266.57,-120.63"/>
</g>
<!-- 843&#45;&gt;844 -->
<g id="edge32" class="edge">
<title>843&#45;&gt;844</title>
<path fill="none" stroke="green" stroke-width="0.21" stroke-dasharray="1,5" d="M606.38,-385.31C617.51,-371.84 632.7,-353.46 645.09,-338.46"/>
<polygon fill="green" stroke="green" stroke-width="0.21" points="647.97,-340.46 651.64,-330.53 642.58,-336.01 647.97,-340.46"/>
</g>
<!-- 844&#45;&gt;1 -->
<g id="edge23" class="edge">
<title>844&#45;&gt;1</title>
<path fill="none" stroke="green" stroke-width="0.28" d="M667,-285.77C667,-272.8 667,-256.81 667,-243.61"/>
<polygon fill="green" stroke="green" stroke-width="0.28" points="670.5,-243.31 667,-233.31 663.5,-243.31 670.5,-243.31"/>
</g>
<!-- 844&#45;&gt;2 -->
<g id="edge24" class="edge">
<title>844&#45;&gt;2</title>
<path fill="none" stroke="green" stroke-width="0.36" stroke-dasharray="1,5" d="M644.39,-300.44C602.81,-282.98 514.57,-245.92 471.98,-228.03"/>
<polygon fill="green" stroke="green" stroke-width="0.36" points="473.24,-224.76 462.67,-224.12 470.53,-231.22 473.24,-224.76"/>
</g>
<!-- 847&#45;&gt;0 -->
<g id="edge50" class="edge">
<title>847&#45;&gt;0</title>
<path fill="none" stroke="green" stroke-width="0.77" d="M250.37,-290.43C238.99,-275.27 223.24,-254.28 211.62,-238.78"/>
<polygon fill="green" stroke="green" stroke-width="0.77" points="214.12,-236.29 205.32,-230.39 208.52,-240.49 214.12,-236.29"/>
</g>
<!-- 847&#45;&gt;2 -->
<g id="edge25" class="edge">
<title>847&#45;&gt;2</title>
<path fill="none" stroke="green" stroke-width="0.29" d="M283.65,-294.66C289.85,-290.11 296.97,-285.41 304,-281.95 353.56,-257.51 376.41,-275.66 423,-245.95 426.27,-243.86 429.37,-241.24 432.2,-238.43"/>
<polygon fill="green" stroke="green" stroke-width="0.29" points="434.94,-240.62 439.01,-230.84 429.73,-235.95 434.94,-240.62"/>
</g>
<!-- 847&#45;&gt;4 -->
<g id="edge26" class="edge">
<title>847&#45;&gt;4</title>
<path fill="none" stroke="green" stroke-width="0.26" d="M281.58,-292.22C291.66,-280.18 303.6,-263.33 309,-245.95 316.64,-221.34 319.31,-211.58 309,-187.97 299.52,-166.23 278.61,-148.58 262.28,-137.36"/>
<polygon fill="green" stroke="green" stroke-width="0.26" points="264.07,-134.34 253.78,-131.8 260.24,-140.2 264.07,-134.34"/>
</g>
<!-- 848&#45;&gt;0 -->
<g id="edge27" class="edge">
<title>848&#45;&gt;0</title>
<path fill="none" stroke="green" stroke-width="0.29" d="M197.47,-285.77C197.19,-272.8 196.84,-256.81 196.56,-243.61"/>
<polygon fill="green" stroke="green" stroke-width="0.29" points="200.05,-243.24 196.33,-233.31 193.05,-243.39 200.05,-243.24"/>
</g>
<!-- 848&#45;&gt;2 -->
<g id="edge28" class="edge">
<title>848&#45;&gt;2</title>
<path fill="none" stroke="green" stroke-width="1.07" d="M214.96,-292.69C219.79,-288.61 225.3,-284.66 231,-281.95 309.39,-244.62 347.38,-288.6 423,-245.95 426.44,-244.01 429.65,-241.42 432.54,-238.6"/>
<polygon fill="green" stroke="green" stroke-width="1.07" points="435.39,-240.67 439.43,-230.87 430.16,-236.01 435.39,-240.67"/>
</g>
<!-- 848&#45;&gt;4 -->
<g id="edge29" class="edge">
<title>848&#45;&gt;4</title>
<path fill="none" stroke="green" stroke-width="0.24" d="M207.15,-287.76C211.87,-275.59 217.38,-260.13 221,-245.95 229.4,-213.03 234.68,-174.1 237.49,-149.23"/>
<polygon fill="green" stroke="green" stroke-width="0.24" points="240.98,-149.5 238.57,-139.18 234.02,-148.75 240.98,-149.5"/>
</g>
<!-- 848&#45;&gt;5280 -->
<g id="edge55" class="edge">
<title>848&#45;&gt;5280</title>
<path fill="none" stroke="green" stroke-width="0.49" d="M183.9,-289.98C175.56,-278.19 164.83,-263 155.37,-249.61"/>
<polygon fill="green" stroke="green" stroke-width="0.49" points="158,-247.27 149.37,-241.12 152.28,-251.31 158,-247.27"/>
</g>
<!-- 848&#45;&gt;3436 -->
<g id="edge34" class="edge">
<title>848&#45;&gt;3436</title>
<path fill="none" stroke="green" stroke-width="0.45" d="M215.73,-293.18C220.47,-289.19 225.74,-285.16 231,-281.95 251.44,-269.46 309.8,-246.38 348.52,-231.62"/>
<polygon fill="green" stroke="green" stroke-width="0.45" points="349.8,-234.87 357.9,-228.05 347.31,-228.33 349.8,-234.87"/>
</g>
<!-- 3549 -->
<g id="node27" class="node">
<title>3549</title>
<ellipse fill="white" stroke="black" cx="891" cy="-310.94" rx="28.98" ry="28.98"/>
<text text-anchor="middle" x="891" y="-308.74" font-family="Times,serif" font-size="9.00">3549</text>
</g>
<!-- 3549&#45;&gt;4659 -->
<g id="edge42" class="edge">
<title>3549&#45;&gt;4659</title>
<path fill="none" stroke="red" stroke-width="0.62" d="M871.49,-289.07C859.61,-276.37 844.29,-259.98 831.35,-246.14"/>
<polygon fill="red" stroke="red" stroke-width="0.62" points="833.82,-243.66 824.44,-238.75 828.71,-248.44 833.82,-243.66"/>
</g>
<!-- 3549&#45;&gt;2631 -->
<g id="edge35" class="edge">
<title>3549&#45;&gt;2631</title>
<path fill="none" stroke="red" stroke-width="0.26" d="M881.9,-283.24C873.02,-258.17 858.61,-219.85 843,-187.97 837.87,-177.48 831.62,-166.43 825.69,-156.51"/>
<polygon fill="red" stroke="red" stroke-width="0.26" points="828.56,-154.5 820.38,-147.77 822.58,-158.14 828.56,-154.5"/>
</g>
<!-- 5227&#45;&gt;842 -->
<g id="edge54" class="edge">
<title>5227&#45;&gt;842</title>
<path fill="none" stroke="red" stroke-width="0.15" d="M226.39,-571.93C211.75,-557.76 192.05,-538.68 176.59,-523.72"/>
<polygon fill="red" stroke="red" stroke-width="0.15" points="179.01,-521.18 169.39,-516.74 174.14,-526.21 179.01,-521.18"/>
</g>
<!-- 3436&#45;&gt;2714 -->
<g id="edge38" class="edge">
<title>3436&#45;&gt;2714</title>
<path fill="none" stroke="red" stroke-width="0.17" d="M407.46,-198.42C412.46,-194.79 417.82,-191.12 423,-187.97 453.41,-169.42 489.94,-151.69 516.35,-139.62"/>
<polygon fill="red" stroke="red" stroke-width="0.17" points="517.92,-142.75 525.59,-135.43 515.04,-136.37 517.92,-142.75"/>
</g>
<!-- 3065&#45;&gt;2570 -->
<g id="edge39" class="edge">
<title>3065&#45;&gt;2570</title>
<path fill="none" stroke="red" stroke-width="0.69" d="M777,-375.82C777,-367.79 777,-358.88 777,-350.34"/>
<polygon fill="red" stroke="red" stroke-width="0.69" points="780.5,-350.18 777,-340.18 773.5,-350.18 780.5,-350.18"/>
</g>
</g>
</svg>
